<?xml version="1.0" encoding="UTF-8"?>
<svg version="1.1" xmlns="http://www.w3.org/2000/svg" width="868" height="757">
<path d="M0 0 C0.33 0.66 0.66 1.32 1 2 C1.85053955 1.74742432 1.85053955 1.74742432 2.71826172 1.48974609 C6.83938489 0.60519943 10.95568972 1.25953461 15.125 1.625 C16.12313721 1.71056152 17.12127441 1.79612305 18.1496582 1.88427734 C29.42379783 2.96646928 40.45823899 5.21122255 51.52416992 7.57275391 C54.23821926 8.1133689 54.23821926 8.1133689 58 8 C58 8.66 58 9.32 58 10 C58.90878906 10.16435547 58.90878906 10.16435547 59.8359375 10.33203125 C72.27041887 12.68501772 72.27041887 12.68501772 78 15 C78.33 15.66 78.66 16.32 79 17 C80.6618139 17.35674002 82.32978043 17.68495165 84 18 C86.03723007 18.79240486 88.05794603 19.62823443 90.0625 20.5 C93.35672972 21.92902273 96.48059982 23.25729685 100 24 C99.34 24.33 98.68 24.66 98 25 C98.70382812 25.31710938 99.40765625 25.63421875 100.1328125 25.9609375 C108.19714338 29.77201815 115.16640583 34.3994424 122.29052734 39.72412109 C123.93152996 40.94889682 125.58299178 42.15791435 127.23828125 43.36328125 C140.05450478 52.79224367 140.05450478 52.79224367 145 58 C145 58.66 145 59.32 145 60 C145.66 60 146.32 60 147 60 C147 60.66 147 61.32 147 62 C147.91072266 62.14695312 147.91072266 62.14695312 148.83984375 62.296875 C151.47912634 63.15595432 152.03427802 63.9696437 153.5625 66.25 C155.78046935 69.39951647 158.12518239 72.31549496 160.6875 75.19238281 C192.25410751 110.95143038 207.3469555 160.96986359 209 208 C209.04302246 209.16619873 209.04302246 209.16619873 209.08691406 210.35595703 C210.60589811 258.80001153 199.44256447 306.93677801 175.25 348.98046875 C173.56776248 351.9142423 172.12860761 354.80014091 171 358 C170.34 358 169.68 358 169 358 C167.08982143 362.32525928 167.08982143 362.32525928 167.61132812 366.83300781 C168.73636876 368.83438466 169.96219479 370.72420407 171.25 372.625 C172.1958608 374.12839457 173.13438162 375.63642626 174.06640625 377.1484375 C174.55383301 377.93831055 175.04125977 378.72818359 175.54345703 379.54199219 C202.43568668 424.92432006 207.79573119 480.73104353 195.49609375 531.3984375 C191.94498479 545.17230798 187.14171164 558.17787805 181 571 C180.67418945 571.6820752 180.34837891 572.36415039 180.01269531 573.06689453 C166.25987246 601.33500245 144.94837025 626.943771 120 646 C119.10667969 646.71027344 118.21335937 647.42054688 117.29296875 648.15234375 C88.14525978 670.84050572 50.99873229 686.32246016 14 689 C13.11441406 689.06558105 12.22882812 689.13116211 11.31640625 689.19873047 C-18.4856733 691.24003585 -47.64453305 687.50653964 -76 678 C-76.96993896 677.68192383 -76.96993896 677.68192383 -77.95947266 677.35742188 C-94.87340609 671.72924437 -110.27471984 662.94496898 -125 653 C-131.48394409 658.3817597 -137.33642789 664.275341 -143.24023438 670.27929688 C-146.66307783 673.73721643 -150.08084645 677.12834787 -153.78515625 680.28515625 C-159.67749431 685.34834826 -165.0442486 690.97663528 -170.5 696.5 C-182.87641333 709.02979467 -182.87641333 709.02979467 -189.28759766 714.48388672 C-191.51314473 716.45432403 -193.50057744 718.59856129 -195.51269531 720.78295898 C-203.78715349 729.66566641 -203.78715349 729.66566641 -209.77514648 730.07641602 C-216.05929227 729.86057736 -220.67385085 726.8888997 -224.91943359 722.46899414 C-225.44102051 721.90172607 -225.96260742 721.33445801 -226.5 720.75 C-227.62577101 719.57506372 -228.75336665 718.40187291 -229.8828125 717.23046875 C-230.4180957 716.67020996 -230.95337891 716.10995117 -231.50488281 715.53271484 C-235.09850907 711.84871981 -239.07125176 708.5888156 -243.0390625 705.3203125 C-243.68617188 704.78148437 -244.33328125 704.24265625 -245 703.6875 C-245.5775 703.21699219 -246.155 702.74648438 -246.75 702.26171875 C-248 701 -248 701 -248 699 C-248.57234375 698.75636719 -249.1446875 698.51273438 -249.734375 698.26171875 C-252.40433538 696.77482702 -254.13829007 695.01916092 -256.25 692.8125 C-258.96516752 690.03582383 -261.67456004 687.33776739 -264.625 684.8125 C-268.64076366 681.37385207 -272.46853262 677.75251375 -276.3125 674.125 C-281.72233885 669.02070246 -287.23730864 664.22816857 -293.12109375 659.671875 C-293.74113281 659.12015625 -294.36117188 658.5684375 -295 658 C-295 657.34 -295 656.68 -295 656 C-295.78697266 655.69255859 -295.78697266 655.69255859 -296.58984375 655.37890625 C-300.05764282 653.39489803 -302.69254935 650.69490357 -305.5625 647.9375 C-309.76233947 643.96420789 -313.97717147 640.10885427 -318.5 636.5 C-323.5043432 632.49652544 -328.14699302 628.18663292 -332.80859375 623.796875 C-336.27096211 620.55421929 -339.79305103 617.46555917 -343.5 614.5 C-348.50514666 610.49588267 -353.14860143 606.18532008 -357.81079102 601.79467773 C-361.25143567 598.57215839 -364.74989605 595.50491207 -368.4375 592.5625 C-373.91199316 588.19107636 -378.97964851 583.43444454 -384.05053711 578.60766602 C-384.97104858 577.73452759 -384.97104858 577.73452759 -385.91015625 576.84375 C-386.45808838 576.31974609 -387.00602051 575.79574219 -387.57055664 575.25585938 C-388.99632699 573.89584824 -388.99632699 573.89584824 -391 573 C-391 572.34 -391 571.68 -391 571 C-391.58249512 570.73968994 -392.16499023 570.47937988 -392.76513672 570.21118164 C-395.15071338 568.91832105 -396.80330267 567.49757373 -398.7578125 565.62109375 C-399.81282959 564.61647095 -399.81282959 564.61647095 -400.88916016 563.59155273 C-401.6269873 562.88071533 -402.36481445 562.16987793 -403.125 561.4375 C-404.6554354 559.97831181 -406.18668118 558.51997309 -407.71875 557.0625 C-408.82476562 556.00869141 -408.82476562 556.00869141 -409.953125 554.93359375 C-412.47149765 552.55459668 -415.03573808 550.23906615 -417.625 547.9375 C-421.06120412 544.88179549 -424.33917582 541.72365756 -427.52734375 538.41015625 C-429.15127917 536.77289132 -429.15127917 536.77289132 -432 535 C-432 534.34 -432 533.68 -432 533 C-432.53109375 532.79761719 -433.0621875 532.59523438 -433.609375 532.38671875 C-437.04132937 530.39596091 -439.5114173 527.65690615 -442.25 524.8125 C-445.58073356 521.37341727 -448.9181528 518.02715412 -452.56738281 514.92382812 C-457.73508158 510.42576532 -462.56058514 505.6015297 -467.40625 500.76171875 C-468.38123634 499.78995294 -469.35629463 498.81825931 -470.3314209 497.84663391 C-472.356826 495.82716736 -474.38020435 493.80569528 -476.40234375 491.78295898 C-478.99768828 489.18751183 -481.59990566 486.59907128 -484.20383453 484.01224041 C-486.21116316 482.01599171 -488.21396951 480.01525386 -490.21549988 478.01319313 C-491.17400477 477.05586961 -492.13413465 476.10017026 -493.09590149 475.14612389 C-494.43127675 473.82048905 -495.75976811 472.48793041 -497.08789062 471.1550293 C-497.84541626 470.39892868 -498.60294189 469.64282806 -499.38342285 468.86381531 C-501 467 -501 467 -501 465 C-501.66 465 -502.32 465 -503 465 C-504.234375 463.77734375 -504.234375 463.77734375 -505.75 461.9375 C-509.32481257 457.71952031 -513.07897442 453.70453571 -516.875 449.6875 C-521.69063039 444.56565525 -526.28584705 439.35424824 -530.671875 433.85546875 C-532.9350429 431.07967053 -535.27287723 428.39229452 -537.64233398 425.70776367 C-544.32674829 418.1224533 -550.51095004 410.27565746 -556.46435547 402.10644531 C-558.05311013 399.92714878 -559.6532927 397.7565349 -561.25390625 395.5859375 C-608 331.8814381 -608 331.8814381 -608 310 C-608.66 309.67 -609.32 309.34 -610 309 C-610.89794922 306.55761719 -610.89794922 306.55761719 -611.8046875 303.296875 C-612.13903809 302.09901367 -612.47338867 300.90115234 -612.81787109 299.66699219 C-613.17123604 298.36159534 -613.52359063 297.05592464 -613.875 295.75 C-614.05363586 295.0940686 -614.23227173 294.43813721 -614.4163208 293.7623291 C-617.53662582 282.27480995 -620.1731056 270.7677198 -622 259 C-622.11037598 258.30680664 -622.22075195 257.61361328 -622.33447266 256.89941406 C-629.33855883 211.34527879 -624.68882399 158.75795724 -604 117 C-603.01 116.505 -603.01 116.505 -602 116 C-601.61714844 114.76830078 -601.61714844 114.76830078 -601.2265625 113.51171875 C-599.58888978 108.82296788 -597.05828627 104.97052238 -594.375 100.8125 C-593.56095703 99.54176636 -593.56095703 99.54176636 -592.73046875 98.24536133 C-577.09920379 74.00715431 -558.24293269 55.04898831 -535 38 C-534.15566406 37.36964844 -533.31132813 36.73929688 -532.44140625 36.08984375 C-526.29180773 31.61293603 -519.84825911 28.2759701 -513 25 C-512.27562744 24.62512451 -511.55125488 24.25024902 -510.80493164 23.86401367 C-461.17036729 -1.71517016 -402.82253109 -3.31213485 -349.4609375 9.43017578 C-347.86793386 9.79903198 -346.26884987 10.14289828 -344.6640625 10.45654297 C-339.01801885 11.57134354 -334.1880915 13.54434911 -329 16 C-327.59618897 16.61368259 -326.1899519 17.22184785 -324.78125 17.82421875 C-310.47493581 24.02527739 -296.52375023 30.62148384 -284 40 C-282.86490224 40.80956928 -281.72804574 41.6166759 -280.58984375 42.421875 C-263.58893523 54.5283796 -245.33064433 68.9675404 -233 86 C-233 86.66 -233 87.32 -233 88 C-232.01 88.33 -231.02 88.66 -230 89 C-228.95107762 90.63631892 -227.95093297 92.30485863 -227 94 C-226.34 94.66 -225.68 95.32 -225 96 C-224.14546901 97.23560562 -223.31574014 98.48844839 -222.5 99.75 C-218.19015356 106.30053774 -213.57985828 112.63707437 -209 119 C-205.69705529 115.92022723 -203.26003728 112.6219981 -200.75 108.875 C-196.76104225 103.01552791 -192.53870879 97.44970411 -188 92 C-187.19820313 91.01257813 -186.39640625 90.02515625 -185.5703125 89.0078125 C-172.45179807 73.08656492 -157.73736993 58.10240595 -141 46 C-140.09765625 45.31421875 -139.1953125 44.6284375 -138.265625 43.921875 C-132.91141261 39.89829528 -127.35586144 36.24719995 -121.6875 32.6875 C-121.01734863 32.26654053 -120.34719727 31.84558105 -119.65673828 31.41186523 C-109.30635869 25 -109.30635869 25 -106 25 C-105.67 24.01 -105.34 23.02 -105 22 C-103.33333333 22 -101.66666667 22 -100 22 C-99.67 21.34 -99.34 20.68 -99 20 C-97.27636719 19.26708984 -97.27636719 19.26708984 -95.046875 18.5859375 C-93.82194336 18.20066895 -93.82194336 18.20066895 -92.57226562 17.80761719 C-91.72341797 17.54110352 -90.87457031 17.27458984 -90 17 C-88.4199239 16.45615683 -86.84178045 15.90666597 -85.265625 15.3515625 C-59.95271327 6.57903843 -34.84837752 2.04480785 -8.04541016 1.29003906 C-6.67908447 1.25088379 -6.67908447 1.25088379 -5.28515625 1.2109375 C-4.47957275 1.19337402 -3.67398926 1.17581055 -2.84399414 1.15771484 C-0.98326535 1.19802417 -0.98326535 1.19802417 0 0 Z M-519 61 C-520.43472656 62.01126953 -520.43472656 62.01126953 -521.8984375 63.04296875 C-528.89757775 68.12589194 -535.3143896 73.65969395 -541.55615234 79.62792969 C-542.92391999 80.92770212 -544.31488304 82.20293773 -545.70703125 83.4765625 C-558.7590035 95.8214733 -568.89313676 111.04115462 -577 127 C-577.31517578 127.61262695 -577.63035156 128.22525391 -577.95507812 128.85644531 C-603.20006642 178.47681375 -602.26860052 238.86358663 -586.05761719 291.03271484 C-574.49528996 326.50612687 -554.6789229 358.62031299 -532 388 C-531.5373877 388.60295898 -531.07477539 389.20591797 -530.59814453 389.82714844 C-521.34345225 401.87106107 -511.50220356 413.36455176 -501.23046875 424.55078125 C-499.28096981 426.69147448 -497.38296696 428.86351062 -495.5 431.0625 C-492.07234933 435.01561599 -488.3723409 438.66377333 -484.625 442.3125 C-482.67014814 444.31389595 -480.86539054 446.31013556 -479.05786133 448.43554688 C-474.1083694 454.10984701 -468.76868603 459.39562586 -463.44921875 464.71875 C-462.34293079 465.82825713 -461.23671562 466.93783685 -460.13056946 468.04748535 C-457.82863641 470.35536467 -455.52468846 472.66121043 -453.21948242 474.96582031 C-450.2608337 477.92436652 -447.30917631 480.88978644 -444.35914898 483.85692596 C-442.0849618 486.14219301 -439.8062835 488.42293985 -437.52628517 490.70240784 C-436.43499006 491.79488488 -435.34532046 492.88898815 -434.25729942 493.98472595 C-432.74481297 495.50695054 -431.22619506 497.02277909 -429.70581055 498.53710938 C-428.41177559 499.83328186 -428.41177559 499.83328186 -427.09159851 501.15563965 C-425.21475624 503.22046205 -425.21475624 503.22046205 -423 503 C-422.76410156 503.57363281 -422.52820313 504.14726563 -422.28515625 504.73828125 C-420.71167911 507.50740972 -418.85196589 509.11309973 -416.4375 511.1875 C-412.96193494 514.23299514 -409.61440886 517.32925359 -406.375 520.625 C-403.01042191 524.03696651 -399.52443331 527.21212588 -395.88671875 530.328125 C-394.06540284 531.94204468 -392.37732032 533.62497231 -390.6875 535.375 C-387.94612335 538.16565982 -385.055791 540.62057544 -382 543.0625 C-376.51841028 547.46748427 -371.40145772 552.19882174 -366.30273438 557.03930664 C-360.34509305 563.60419767 -360.34509305 563.60419767 -353 567 C-353 567.66 -353 568.32 -353 569 C-351.54970831 570.28744114 -350.03502843 571.50236776 -348.5 572.6875 C-343.42803681 576.73330569 -338.6979597 581.02726209 -334 585.5 C-329.61527539 589.66538613 -325.23777296 593.73261427 -320.5 597.5 C-314.96396185 601.90366671 -309.86305045 606.72297873 -304.74414062 611.59765625 C-301.59855511 614.58864429 -298.4379325 617.56250649 -295.203125 620.45703125 C-294.65817383 620.94792236 -294.11322266 621.43881348 -293.55175781 621.94458008 C-291.89934172 623.28119593 -291.89934172 623.28119593 -289 623 C-288.7834375 623.55171875 -288.566875 624.1034375 -288.34375 624.671875 C-286.53504366 627.80556389 -284.18448326 629.83396506 -281.5 632.25 C-281.00113281 632.70890625 -280.50226563 633.1678125 -279.98828125 633.640625 C-277.3985934 636.2293045 -277.3985934 636.2293045 -274 637 C-273.67 637.99 -273.34 638.98 -273 640 C-271.54659265 641.51214976 -271.54659265 641.51214976 -269.6875 643 C-266.04659204 646.08529364 -262.50419731 649.26107838 -259 652.5 C-255.74590573 655.50650014 -252.47047532 658.47057855 -249.125 661.375 C-244.29388265 665.58615457 -239.65201913 669.98783344 -235 674.39453125 C-231.01053442 678.158031 -226.95900334 681.8229342 -222.79833984 685.39672852 C-220.99061598 687.00836612 -219.30751627 688.69639746 -217.625 690.4375 C-215.37287237 693.23284557 -215.37287237 693.23284557 -213 693 C-213 693.66 -213 694.32 -213 695 C-212.01 695.33 -211.02 695.66 -210 696 C-208.76697144 694.75911621 -208.76697144 694.75911621 -207.5090332 693.49316406 C-204.4458503 690.41182128 -201.37931017 687.33383808 -198.31176758 684.25683594 C-196.98696192 682.92701514 -195.66305691 681.59629643 -194.34008789 680.26464844 C-192.43354073 678.345912 -190.52373121 676.43047458 -188.61328125 674.515625 C-188.02662186 673.92380432 -187.43996246 673.33198364 -186.83552551 672.722229 C-184.32986491 670.21623057 -181.88293264 667.90829249 -179.08666992 665.71777344 C-178.05376831 664.86747559 -178.05376831 664.86747559 -177 664 C-177 663.34 -177 662.68 -177 662 C-176.34 662 -175.68 662 -175 662 C-173.33333333 660.66666667 -173.33333333 660.66666667 -172 659 C-172 658.34 -172 657.68 -172 657 C-171.34 657 -170.68 657 -170 657 C-170 656.34 -170 655.68 -170 655 C-169.42926758 654.75523926 -168.85853516 654.51047852 -168.27050781 654.25830078 C-165.60267546 652.7798053 -163.81283685 651.03873452 -161.671875 648.8671875 C-160.87265625 648.06152344 -160.0734375 647.25585938 -159.25 646.42578125 C-158.425 645.58402344 -157.6 644.74226562 -156.75 643.875 C-155.48929687 642.60076172 -155.48929687 642.60076172 -154.203125 641.30078125 C-152.13084317 639.20495077 -150.06337607 637.10459287 -148 635 C-149.06987577 631.79037268 -149.58389694 631.30094163 -152.125 629.3125 C-156.23685115 625.90124823 -159.56887696 622.08100989 -163 618 C-163.70511719 617.2059375 -164.41023438 616.411875 -165.13671875 615.59375 C-177.585465 601.2725477 -188.24346142 585.32169312 -196 568 C-196.515625 566.91589844 -197.03125 565.83179688 -197.5625 564.71484375 C-205.35787943 547.68275172 -209.75932662 529.37723476 -213 511 C-213.66 511 -214.32 511 -215 511 C-214.67 510.34 -214.34 509.68 -214 509 C-213.98389129 507.56723023 -214.03469371 506.13337804 -214.12109375 504.703125 C-214.19396606 503.40024536 -214.19396606 503.40024536 -214.26831055 502.07104492 C-214.35205933 500.67462769 -214.35205933 500.67462769 -214.4375 499.25 C-216.90292336 452.00994752 -208.21986163 401.72322077 -178.25 363.609375 C-176.84190698 361.84506691 -176.84190698 361.84506691 -175.1875 359.1875 C-167.03964081 347.31490517 -157.11978684 336.15259922 -146 327 C-145.21496094 326.32710938 -144.42992187 325.65421875 -143.62109375 324.9609375 C-107.50324963 294.49491697 -62.17568383 277.4873122 -15 276 C-14.31824707 275.97808594 -13.63649414 275.95617187 -12.93408203 275.93359375 C8.48688636 275.34089921 29.19085419 278.01035105 50 283 C50.84498047 283.19996582 51.68996094 283.39993164 52.56054688 283.60595703 C62.26055566 285.94888824 71.12983643 289.0793608 80.05859375 293.546875 C82.95379359 295.06052876 82.95379359 295.06052876 86 296 C86.33 296.33 86.66 296.66 87 297 C88.5859374 297.74267244 90.17239103 298.48425963 91.76123047 299.22070312 C106.14368413 305.99938873 119.22862252 315.45779638 131.3203125 325.7421875 C132.91707583 327.19980138 132.91707583 327.19980138 135 327 C135.33 327.66 135.66 328.32 136 329 C136.7425 329.7425 137.485 330.485 138.25 331.25 C140.23771209 333.23771209 141.95006237 335.13168066 143.6875 337.3125 C144.450625 338.199375 145.21375 339.08625 146 340 C146.66 340 147.32 340 148 340 C164.58565629 312.04132225 176.19669101 281.40489042 180 249 C180.14139404 247.81676147 180.14139404 247.81676147 180.28564453 246.60961914 C183.78023514 213.4985294 181.93776656 176.13239355 168.92602539 145.2121582 C168.00690166 143.01648719 167.18403809 140.80069916 166.375 138.5625 C161.48998106 126.37891521 154.97677969 114.41743616 147 104 C146.52304687 103.33355469 146.04609375 102.66710937 145.5546875 101.98046875 C140.08120878 94.39835479 133.68845865 87.52124718 127 81 C126.3915625 80.35804687 125.783125 79.71609375 125.15625 79.0546875 C93.4778381 46.1137302 45.34925833 30.57779639 0.54296875 29.69970703 C-51.28873399 29.46798447 -101.72676392 45.96987457 -139.765625 81.94140625 C-142 84 -142 84 -144.296875 85.65234375 C-144.85890625 86.09707031 -145.4209375 86.54179688 -146 87 C-146 87.66 -146 88.32 -146 89 C-147.485 89.495 -147.485 89.495 -149 90 C-150.47813315 91.41977048 -150.47813315 91.41977048 -151.9375 93.25 C-154.56755131 96.37077367 -157.28764427 99.3550497 -160.11791992 102.29541016 C-174.44139242 117.30802429 -193.33139415 139.99418244 -200 160 C-201.8203125 160.80078125 -201.8203125 160.80078125 -204.125 161.3125 C-204.87007813 161.49425781 -205.61515625 161.67601562 -206.3828125 161.86328125 C-210.09030394 162.05695618 -212.56651541 161.43477457 -216 160 C-217.92434233 157.74747526 -219.32615237 155.82033712 -220.8125 153.3125 C-221.67407537 151.94375616 -222.53606611 150.5752737 -223.3984375 149.20703125 C-223.82995117 148.50658691 -224.26146484 147.80614258 -224.70605469 147.08447266 C-226.71679688 143.84528081 -228.82178096 140.67126927 -230.9375 137.5 C-231.34282959 136.88954834 -231.74815918 136.27909668 -232.16577148 135.65014648 C-238.06006773 126.83472166 -244.32460024 118.24057366 -251 110 C-251.69738281 109.12601562 -252.39476562 108.25203125 -253.11328125 107.3515625 C-257.02615833 102.50042892 -260.96813826 97.86750868 -265.45703125 93.54296875 C-267 92 -267 92 -269.4375 89 C-272.65166987 85.23706942 -276.22038957 82.18017305 -280 79 C-280.86496094 78.2471875 -281.72992188 77.494375 -282.62109375 76.71875 C-303.0027416 59.24086473 -327.66216406 44.29398018 -354 38 C-355.82144531 37.51853516 -355.82144531 37.51853516 -357.6796875 37.02734375 C-359.07807467 36.66386882 -360.47651367 36.30059324 -361.875 35.9375 C-362.56980469 35.75123047 -363.26460937 35.56496094 -363.98046875 35.37304688 C-368.08666314 34.31749973 -371.72151502 33.79211123 -376 34 C-376 33.67 -376 33.34 -376 33 C-423.5150619 24.10172477 -479.14567746 32.46936593 -519 61 Z M-70 314 C-70.99 314.33 -71.98 314.66 -73 315 C-95.27507031 323.31447937 -115.48154325 335.81608252 -132.43945312 352.47460938 C-134.01948394 354.019045 -135.62449851 355.53362975 -137.234375 357.046875 C-169.50961273 387.80174487 -185.60739141 430.2768252 -188.19140625 474.2578125 C-188.53978515 491.67675746 -186.48676745 509.18729103 -182 526 C-181.73147217 527.0521167 -181.73147217 527.0521167 -181.45751953 528.12548828 C-173.69302405 558.3176701 -157.29312044 585.3261329 -135 607 C-132.55488003 609.42890027 -130.12683963 611.86722507 -127.74609375 614.359375 C-121.71580424 620.60393876 -115.36423042 626.35952604 -108 631 C-107.01 631 -106.02 631 -105 631 C-105 631.66 -105 632.32 -105 633 C-92.72913989 640.23210113 -80.39519848 646.15122453 -67 651 C-65.97640381 651.37680908 -65.97640381 651.37680908 -64.93212891 651.76123047 C-21.62093624 667.43855492 28.38138119 663.30430226 69.77734375 644.07080078 C81.28605882 638.5262902 91.87525739 631.77958466 102 624 C102.75297363 623.42507813 103.50594727 622.85015625 104.28173828 622.2578125 C110.6625093 617.28183323 116.43382017 611.86970189 122.125 606.125 C122.98609375 605.27164062 123.8471875 604.41828125 124.734375 603.5390625 C125.54648437 602.724375 126.35859375 601.9096875 127.1953125 601.0703125 C128.29383545 599.96840576 128.29383545 599.96840576 129.41455078 598.84423828 C131.21729949 597.1525728 131.21729949 597.1525728 131 595 C131.66 595 132.32 595 133 595 C135.23921421 592.57447346 137.08120684 589.80752874 139 587.125 C139.87132568 585.91009888 139.87132568 585.91009888 140.76025391 584.6706543 C146.53796018 576.46561356 151.40784764 567.91048953 156 559 C156.32693848 558.38656738 156.65387695 557.77313477 156.99072266 557.14111328 C165.99633354 540.16918133 170.57204029 520.95750943 173 502 C173.19529297 500.6078125 173.19529297 500.6078125 173.39453125 499.1875 C176.31494529 474.26663351 173.32954759 447.63891066 165 424 C164.77256104 423.34056396 164.54512207 422.68112793 164.31079102 422.00170898 C161.00036572 412.49976331 157.03897431 403.73791369 152 395 C151.44441406 393.99324219 150.88882812 392.98648438 150.31640625 391.94921875 C143.68539631 380.14203938 135.2792441 368.89318275 126 359 C125.34 359 124.68 359 124 359 C123.67 358.01 123.34 357.02 123 356 C122.34 356 121.68 356 121 356 C120.67 355.01 120.34 354.02 120 353 C117.56655193 350.41928274 114.73863799 348.24813566 112 346 C111.50274414 345.5865332 111.00548828 345.17306641 110.49316406 344.74707031 C101.82540944 337.57212485 92.86441653 331.41364395 83 326 C82.36868164 325.65340332 81.73736328 325.30680664 81.08691406 324.94970703 C35.55086957 300.33156617 -21.43796619 295.18155848 -70 314 Z " fill="#FEFEFE" transform="translate(639,11)"/>
<path d="M0 0 C3.45098662 1.85330763 6.50428651 3.94968352 9 7 C9 7.66 9 8.32 9 9 C9.99 9.33 10.98 9.66 12 10 C12 10.66 12 11.32 12 12 C12.66 12 13.32 12 14 12 C14 12.66 14 13.32 14 14 C14.55447311 14.22653763 15.10894623 14.45307526 15.68022156 14.68647766 C18.68660659 16.38877553 20.71109172 18.53410331 23.11645508 21.01635742 C23.6129808 21.52544144 24.10950653 22.03452545 24.62107849 22.55903625 C25.69582936 23.66142411 26.76844527 24.76589658 27.83915138 25.87221336 C29.53577208 27.62222062 31.24112292 29.36323912 32.94963074 31.10163879 C37.8058449 36.04326212 42.65668321 40.98974596 47.47485352 45.96850586 C50.42535545 49.01603925 53.39502101 52.04370021 56.37814903 55.05928993 C57.51020425 56.21114194 58.63490678 57.37026862 59.75196266 58.53667259 C61.31507711 60.16728925 62.90143038 61.7714012 64.49536133 63.37182617 C65.8396093 64.7517701 65.8396093 64.7517701 67.21101379 66.15959167 C69.95261762 68.35849008 69.95261762 68.35849008 73.65653992 67.85176086 C76.9652012 67.05173255 76.9652012 67.05173255 80 66 C89.41112052 65.29647261 97.41984176 65.80846787 106 70 C106.85207031 70.40089844 107.70414063 70.80179687 108.58203125 71.21484375 C118.20587195 76.31503583 124.71604799 84.6140793 128.34375 94.80859375 C128.5603125 95.53175781 128.776875 96.25492187 129 97 C129.19078125 97.60714844 129.3815625 98.21429688 129.578125 98.83984375 C131.67570013 109.58020531 130.25505659 120.77653337 124.6875 130.1875 C123.81489711 131.47439507 122.91902317 132.74583448 122 134 C121.55785156 134.60714844 121.11570312 135.21429687 120.66015625 135.83984375 C113.65050439 144.71355815 103.07474017 150.15420997 92 152 C80.17290468 153.27016341 68.38105716 149.14747212 59 142 C50.42578274 134.21440937 45.60023884 123.79924597 44.81640625 112.30859375 C44.64961389 105.25425821 45.43119806 98.71558355 48.1875 92.1875 C49.12826665 90.0761025 49.12826665 90.0761025 48.9375 88 C47.55853371 85.05820524 45.32107824 83.26452075 43 81 C42.08161346 80.08605469 41.16322693 79.17210937 40.2170105 78.23046875 C39.19663482 77.21610501 38.17621629 76.20178438 37.15576172 75.1875 C31.45217992 69.516544 25.75364759 63.84054224 20.05799675 58.16162109 C16.61860658 54.73269488 13.17735848 51.30567575 9.73193359 47.8828125 C6.38906016 44.56168082 3.05110702 41.23567632 -0.28350449 37.90625 C-1.55199062 36.64145161 -2.82223222 35.37841122 -4.09427261 34.1171875 C-5.87239718 32.35359949 -7.64414517 30.58383204 -9.41455078 28.8125 C-9.93825256 28.29598877 -10.46195435 27.77947754 -11.00152588 27.24731445 C-15.03188839 23.19410114 -18.42695106 19.48045731 -18.4375 13.5625 C-18.2722151 9.04721696 -17.0285818 6.43784961 -14 3 C-9.80841225 -0.5927895 -5.29487799 -0.85913364 0 0 Z " fill="#FEFEFE" transform="translate(547,381)"/>
<path d="M0 0 C0.66 0 1.32 0 2 0 C2 0.66 2 1.32 2 2 C1.34 2 0.68 2 0 2 C0 1.34 0 0.68 0 0 Z " fill="#FDFDFE" transform="translate(424,119)"/>
<path d="M0 0 C3 1 3 1 3 1 Z " fill="#EEEFF1" transform="translate(611,700)"/>
<path d="M0 0 C0.99 0.495 0.99 0.495 2 1 C1.01 1.495 1.01 1.495 0 2 C0 1.34 0 0.68 0 0 Z " fill="#EFF0F0" transform="translate(358,684)"/>
<path d="M0 0 C0.33 0.66 0.66 1.32 1 2 C0.34 1.67 -0.32 1.34 -1 1 C-0.67 0.67 -0.34 0.34 0 0 Z " fill="#F7F8F8" transform="translate(431,553)"/>
<path d="" fill="#FBFCFC" transform="translate(0,0)"/>
<path d="M0 0 C3 1 3 1 3 1 Z " fill="#F4F6F5" transform="translate(573,292)"/>
<path d="" fill="#F8F8F8" transform="translate(0,0)"/>
<path d="M0 0 C0.33 0.66 0.66 1.32 1 2 C0.34 1.67 -0.32 1.34 -1 1 C-0.67 0.67 -0.34 0.34 0 0 Z " fill="#F5F5F5" transform="translate(119,75)"/>
<path d="M0 0 C3 1 3 1 3 1 Z " fill="#EFF1F0" transform="translate(647,11)"/>
<path d="M0 0 C2 1 2 1 2 1 Z " fill="#F3F2F3" transform="translate(565,691)"/>
<path d="M0 0 C2 1 2 1 2 1 Z " fill="#EBEEED" transform="translate(727,678)"/>
<path d="M0 0 C2 1 2 1 2 1 Z " fill="#F9FBFB" transform="translate(680,663)"/>
<path d="" fill="#F9FAFA" transform="translate(0,0)"/>
<path d="" fill="#FBFDFD" transform="translate(0,0)"/>
<path d="M0 0 C2 1 2 1 2 1 Z " fill="#FBFCFC" transform="translate(550,651)"/>
<path d="" fill="#FCFCFB" transform="translate(0,0)"/>
<path d="M0 0 C2 1 2 1 2 1 Z " fill="#F9FAF9" transform="translate(437,573)"/>
<path d="" fill="#EEF0F1" transform="translate(0,0)"/>
<path d="" fill="#F5F5F6" transform="translate(0,0)"/>
<path d="" fill="#FBFBFA" transform="translate(0,0)"/>
<path d="" fill="#FCFCFD" transform="translate(0,0)"/>
<path d="" fill="#F4F6F6" transform="translate(0,0)"/>
<path d="" fill="#F9FAFA" transform="translate(0,0)"/>
<path d="" fill="#F5F5F6" transform="translate(0,0)"/>
<path d="M0 0 C2 1 2 1 2 1 Z " fill="#FCFCFD" transform="translate(606,317)"/>
<path d="" fill="#F0EFF2" transform="translate(0,0)"/>
<path d="M0 0 C2 1 2 1 2 1 Z " fill="#F5F6F6" transform="translate(563,295)"/>
<path d="M0 0 C2 1 2 1 2 1 Z " fill="#F4F8F7" transform="translate(579,290)"/>
<path d="" fill="#FAFCFB" transform="translate(0,0)"/>
<path d="" fill="#F8F9F9" transform="translate(0,0)"/>
<path d="" fill="#F8F8FB" transform="translate(0,0)"/>
<path d="M0 0 C2 1 2 1 2 1 Z " fill="#E9EBEC" transform="translate(414,162)"/>
<path d="" fill="#FBF8FA" transform="translate(0,0)"/>
<path d="" fill="#FBFBFB" transform="translate(0,0)"/>
<path d="" fill="#F3F5F5" transform="translate(0,0)"/>
<path d="" fill="#EBECEB" transform="translate(0,0)"/>
<path d="" fill="#F1F1F1" transform="translate(0,0)"/>
<path d="M0 0 C2 1 2 1 2 1 Z " fill="#F5F5F7" transform="translate(259,45)"/>
<path d="M0 0 C2 1 2 1 2 1 Z " fill="#F5F5F6" transform="translate(663,44)"/>
<path d="" fill="#F4F7F6" transform="translate(0,0)"/>
<path d="M0 0 C2 1 2 1 2 1 Z " fill="#F5F7F6" transform="translate(606,44)"/>
<path d="" fill="#EFEFF0" transform="translate(0,0)"/>
<path d="" fill="#EFF1F1" transform="translate(0,0)"/>
<path d="M0 0 C2 1 2 1 2 1 Z " fill="#EFF1F2" transform="translate(129,32)"/>
<path d="M0 0 C2 1 2 1 2 1 Z " fill="#EDF0F1" transform="translate(269,15)"/>
<path d="M0 0 C2 1 2 1 2 1 Z " fill="#EFF0F1" transform="translate(656,12)"/>
<path d="M0 0 C2 1 2 1 2 1 Z " fill="#F0F1F1" transform="translate(239,11)"/>
<path d="M0 0 C2 1 2 1 2 1 Z " fill="#F0F1F1" transform="translate(215,11)"/>
<path d="" fill="#000000" transform="translate(0,0)"/>
<path d="" fill="#E2E1E0" transform="translate(0,0)"/>
<path d="" fill="#000000" transform="translate(0,0)"/>
<path d="" fill="#0B0A0C" transform="translate(0,0)"/>
<path d="" fill="#E3E6E7" transform="translate(0,0)"/>
<path d="" fill="#555654" transform="translate(0,0)"/>
<path d="" fill="#000000" transform="translate(0,0)"/>
<path d="" fill="#EEF0F0" transform="translate(0,0)"/>
<path d="" fill="#ECEDEF" transform="translate(0,0)"/>
<path d="" fill="#E7E9E8" transform="translate(0,0)"/>
<path d="" fill="#F3F5F4" transform="translate(0,0)"/>
<path d="" fill="#FCFBFD" transform="translate(0,0)"/>
<path d="" fill="#EDEFF0" transform="translate(0,0)"/>
<path d="" fill="#F1F1F0" transform="translate(0,0)"/>
<path d="" fill="#F0F3F2" transform="translate(0,0)"/>
<path d="" fill="#EDF0EF" transform="translate(0,0)"/>
<path d="" fill="#F2F1F2" transform="translate(0,0)"/>
<path d="" fill="#EFF2F2" transform="translate(0,0)"/>
<path d="" fill="#F1F2F2" transform="translate(0,0)"/>
<path d="" fill="#F1EFF1" transform="translate(0,0)"/>
<path d="" fill="#EDECEF" transform="translate(0,0)"/>
<path d="" fill="#F0EFF1" transform="translate(0,0)"/>
<path d="" fill="#F2F4F3" transform="translate(0,0)"/>
<path d="" fill="#000000" transform="translate(0,0)"/>
<path d="" fill="#000000" transform="translate(0,0)"/>
<path d="" fill="#EDEEEF" transform="translate(0,0)"/>
<path d="" fill="#F1F2F3" transform="translate(0,0)"/>
<path d="" fill="#F6F6F6" transform="translate(0,0)"/>
<path d="" fill="#FFFEFE" transform="translate(0,0)"/>
<path d="" fill="#F1F3F5" transform="translate(0,0)"/>
<path d="" fill="#FFFFFF" transform="translate(0,0)"/>
<path d="" fill="#FAFCFC" transform="translate(0,0)"/>
<path d="" fill="#F2F5F3" transform="translate(0,0)"/>
<path d="" fill="#FEFEFF" transform="translate(0,0)"/>
<path d="" fill="#F1F3F1" transform="translate(0,0)"/>
<path d="" fill="#EFF2F1" transform="translate(0,0)"/>
<path d="" fill="#000000" transform="translate(0,0)"/>
<path d="" fill="#F1F1EF" transform="translate(0,0)"/>
<path d="" fill="#F9F9FA" transform="translate(0,0)"/>
<path d="" fill="#FCFCFB" transform="translate(0,0)"/>
<path d="" fill="#FFFCFE" transform="translate(0,0)"/>
<path d="" fill="#EFF1F1" transform="translate(0,0)"/>
<path d="" fill="#FBFBFB" transform="translate(0,0)"/>
<path d="" fill="#F7F9FB" transform="translate(0,0)"/>
<path d="" fill="#F8F9F9" transform="translate(0,0)"/>
<path d="" fill="#ECEFED" transform="translate(0,0)"/>
<path d="" fill="#FEFEFF" transform="translate(0,0)"/>
<path d="" fill="#FBFBFC" transform="translate(0,0)"/>
<path d="" fill="#F9FDFC" transform="translate(0,0)"/>
<path d="" fill="#FBFEFD" transform="translate(0,0)"/>
<path d="" fill="#FBFAFD" transform="translate(0,0)"/>
<path d="" fill="#EFF0F0" transform="translate(0,0)"/>
<path d="" fill="#FDFEFE" transform="translate(0,0)"/>
<path d="" fill="#FCFDFC" transform="translate(0,0)"/>
<path d="" fill="#FBFFFD" transform="translate(0,0)"/>
<path d="" fill="#F8F8FB" transform="translate(0,0)"/>
<path d="" fill="#FBFEFC" transform="translate(0,0)"/>
<path d="" fill="#FCFAF9" transform="translate(0,0)"/>
<path d="" fill="#FAFCFB" transform="translate(0,0)"/>
<path d="" fill="#FAF9FA" transform="translate(0,0)"/>
<path d="" fill="#FFFDFF" transform="translate(0,0)"/>
<path d="" fill="#FEFDFD" transform="translate(0,0)"/>
<path d="" fill="#F9F8F9" transform="translate(0,0)"/>
<path d="" fill="#060907" transform="translate(0,0)"/>
<path d="" fill="#F8FAF6" transform="translate(0,0)"/>
<path d="" fill="#FBFEFD" transform="translate(0,0)"/>
<path d="" fill="#FBFBFE" transform="translate(0,0)"/>
<path d="" fill="#FAFBFC" transform="translate(0,0)"/>
<path d="" fill="#FAFBFD" transform="translate(0,0)"/>
<path d="" fill="#FBFDFB" transform="translate(0,0)"/>
<path d="" fill="#FBFFFE" transform="translate(0,0)"/>
<path d="" fill="#F7F8F8" transform="translate(0,0)"/>
<path d="" fill="#EAEBEC" transform="translate(0,0)"/>
<path d="" fill="#FCFBFE" transform="translate(0,0)"/>
<path d="" fill="#FCFFFE" transform="translate(0,0)"/>
<path d="" fill="#FCFFFE" transform="translate(0,0)"/>
<path d="" fill="#F7F8F8" transform="translate(0,0)"/>
<path d="" fill="#FCFBFE" transform="translate(0,0)"/>
<path d="" fill="#FCFAFC" transform="translate(0,0)"/>
<path d="" fill="#FAFDFE" transform="translate(0,0)"/>
<path d="" fill="#F8FBF9" transform="translate(0,0)"/>
<path d="" fill="#F9FAFA" transform="translate(0,0)"/>
<path d="" fill="#EDEFF0" transform="translate(0,0)"/>
<path d="" fill="#EEF0F0" transform="translate(0,0)"/>
<path d="" fill="#FAFCFD" transform="translate(0,0)"/>
<path d="" fill="#F5F6F8" transform="translate(0,0)"/>
<path d="" fill="#EEEEF1" transform="translate(0,0)"/>
<path d="" fill="#ECEEEF" transform="translate(0,0)"/>
<path d="" fill="#F9FBFA" transform="translate(0,0)"/>
<path d="" fill="#E9EBEE" transform="translate(0,0)"/>
<path d="" fill="#EBEBEE" transform="translate(0,0)"/>
<path d="" fill="#F1F2F0" transform="translate(0,0)"/>
<path d="" fill="#F8F9F9" transform="translate(0,0)"/>
<path d="" fill="#EBEDF0" transform="translate(0,0)"/>
<path d="" fill="#FAFAFB" transform="translate(0,0)"/>
<path d="" fill="#F4F7F7" transform="translate(0,0)"/>
<path d="" fill="#EEEFF0" transform="translate(0,0)"/>
<path d="" fill="#FCFBFC" transform="translate(0,0)"/>
<path d="" fill="#F6F8F8" transform="translate(0,0)"/>
<path d="" fill="#FAFBFC" transform="translate(0,0)"/>
<path d="" fill="#F3F6F5" transform="translate(0,0)"/>
<path d="" fill="#EBECEC" transform="translate(0,0)"/>
<path d="" fill="#F8F9FA" transform="translate(0,0)"/>
<path d="" fill="#FBFAFC" transform="translate(0,0)"/>
<path d="" fill="#F6FAF9" transform="translate(0,0)"/>
<path d="" fill="#EAF1F0" transform="translate(0,0)"/>
<path d="" fill="#E9ECE9" transform="translate(0,0)"/>
<path d="" fill="#EDEBEE" transform="translate(0,0)"/>
<path d="" fill="#FBFBFD" transform="translate(0,0)"/>
<path d="" fill="#F4F7F4" transform="translate(0,0)"/>
<path d="" fill="#ECEDED" transform="translate(0,0)"/>
<path d="" fill="#F3F5F7" transform="translate(0,0)"/>
<path d="" fill="#FAFBFA" transform="translate(0,0)"/>
<path d="" fill="#F9FCFC" transform="translate(0,0)"/>
<path d="" fill="#F9F7F7" transform="translate(0,0)"/>
<path d="" fill="#F3F3F3" transform="translate(0,0)"/>
<path d="" fill="#F7F6F7" transform="translate(0,0)"/>
<path d="" fill="#FAFBFC" transform="translate(0,0)"/>
<path d="" fill="#ECEDED" transform="translate(0,0)"/>
<path d="" fill="#F9F8F9" transform="translate(0,0)"/>
<path d="" fill="#FCFCFB" transform="translate(0,0)"/>
<path d="" fill="#FCFAFC" transform="translate(0,0)"/>
<path d="" fill="#F3F8F9" transform="translate(0,0)"/>
<path d="" fill="#EBEDEC" transform="translate(0,0)"/>
<path d="" fill="#FAFCFB" transform="translate(0,0)"/>
<path d="" fill="#F7F6F9" transform="translate(0,0)"/>
<path d="" fill="#FCFBFC" transform="translate(0,0)"/>
<path d="" fill="#FBFDFC" transform="translate(0,0)"/>
<path d="" fill="#F9F8FA" transform="translate(0,0)"/>
<path d="" fill="#E8EBEC" transform="translate(0,0)"/>
<path d="" fill="#FAFBFA" transform="translate(0,0)"/>
<path d="" fill="#EDEDEF" transform="translate(0,0)"/>
<path d="" fill="#F9FAF9" transform="translate(0,0)"/>
<path d="" fill="#F7F7FA" transform="translate(0,0)"/>
<path d="" fill="#F3F5F3" transform="translate(0,0)"/>
<path d="" fill="#EFEFEF" transform="translate(0,0)"/>
<path d="" fill="#EFEEED" transform="translate(0,0)"/>
<path d="" fill="#FCFAFC" transform="translate(0,0)"/>
<path d="" fill="#FCFBFC" transform="translate(0,0)"/>
<path d="" fill="#FCF9FB" transform="translate(0,0)"/>
<path d="" fill="#F6F8F8" transform="translate(0,0)"/>
<path d="" fill="#EFF1F1" transform="translate(0,0)"/>
<path d="" fill="#EEEEEF" transform="translate(0,0)"/>
<path d="" fill="#F8FAFA" transform="translate(0,0)"/>
<path d="" fill="#EFEEEF" transform="translate(0,0)"/>
<path d="" fill="#F0F0F2" transform="translate(0,0)"/>
<path d="" fill="#EAECEC" transform="translate(0,0)"/>
<path d="" fill="#F8F7F7" transform="translate(0,0)"/>
<path d="" fill="#F8F5F8" transform="translate(0,0)"/>
<path d="" fill="#FCFBFB" transform="translate(0,0)"/>
<path d="" fill="#F0EEF0" transform="translate(0,0)"/>
<path d="" fill="#ECEFEE" transform="translate(0,0)"/>
<path d="" fill="#F2F3F4" transform="translate(0,0)"/>
<path d="" fill="#EEEEEF" transform="translate(0,0)"/>
<path d="" fill="#F3F3F2" transform="translate(0,0)"/>
<path d="" fill="#F0F3F0" transform="translate(0,0)"/>
<path d="" fill="#F9F9FA" transform="translate(0,0)"/>
<path d="" fill="#F7F5F7" transform="translate(0,0)"/>
<path d="" fill="#FCFAFD" transform="translate(0,0)"/>
<path d="" fill="#FAFBFA" transform="translate(0,0)"/>
<path d="" fill="#F1F0F0" transform="translate(0,0)"/>
<path d="" fill="#F2F3F1" transform="translate(0,0)"/>
<path d="" fill="#FAFAFB" transform="translate(0,0)"/>
<path d="" fill="#FDFAFC" transform="translate(0,0)"/>
<path d="" fill="#EFF0EF" transform="translate(0,0)"/>
<path d="" fill="#EFEFF1" transform="translate(0,0)"/>
<path d="" fill="#FCFBFB" transform="translate(0,0)"/>
<path d="" fill="#F5F5F4" transform="translate(0,0)"/>
<path d="" fill="#F1F1F1" transform="translate(0,0)"/>
<path d="" fill="#FBFCFC" transform="translate(0,0)"/>
<path d="" fill="#EDF0EE" transform="translate(0,0)"/>
<path d="" fill="#FCFDFC" transform="translate(0,0)"/>
<path d="" fill="#F1F1F4" transform="translate(0,0)"/>
<path d="" fill="#FBFBFB" transform="translate(0,0)"/>
<path d="" fill="#F6F6F6" transform="translate(0,0)"/>
<path d="" fill="#EFF1F2" transform="translate(0,0)"/>
<path d="" fill="#FAFBFB" transform="translate(0,0)"/>
<path d="" fill="#EFF1F2" transform="translate(0,0)"/>
<path d="" fill="#EFEEEE" transform="translate(0,0)"/>
<path d="" fill="#FBFDFE" transform="translate(0,0)"/>
<path d="" fill="#EFF0F1" transform="translate(0,0)"/>
<path d="" fill="#FBFCFB" transform="translate(0,0)"/>
<path d="" fill="#F3F4F4" transform="translate(0,0)"/>
<path d="" fill="#F9FCF7" transform="translate(0,0)"/>
<path d="" fill="#FAFBFA" transform="translate(0,0)"/>
<path d="" fill="#FDFAFE" transform="translate(0,0)"/>
<path d="" fill="#FCFCFA" transform="translate(0,0)"/>
<path d="" fill="#636263" transform="translate(0,0)"/>
<path d="" fill="#FDFDFE" transform="translate(0,0)"/>
<path d="" fill="#F5F5F5" transform="translate(0,0)"/>
<path d="" fill="#FAFDFE" transform="translate(0,0)"/>
<path d="" fill="#F1F5F3" transform="translate(0,0)"/>
<path d="" fill="#FBFCFD" transform="translate(0,0)"/>
<path d="" fill="#F3F3F2" transform="translate(0,0)"/>
<path d="" fill="#FBFBFB" transform="translate(0,0)"/>
<path d="" fill="#F1EFEF" transform="translate(0,0)"/>
<path d="" fill="#F5F5F7" transform="translate(0,0)"/>
<path d="" fill="#EEEDEF" transform="translate(0,0)"/>
<path d="" fill="#F3F5F4" transform="translate(0,0)"/>
<path d="" fill="#FAFAFA" transform="translate(0,0)"/>
<path d="" fill="#F1F3F4" transform="translate(0,0)"/>
<path d="" fill="#F0F2F3" transform="translate(0,0)"/>
<path d="" fill="#FAFCFE" transform="translate(0,0)"/>
<path d="" fill="#4C4C4D" transform="translate(0,0)"/>
<path d="" fill="#F6F6F7" transform="translate(0,0)"/>
<path d="" fill="#FCFCFB" transform="translate(0,0)"/>
<path d="" fill="#F2F4F5" transform="translate(0,0)"/>
<path d="" fill="#EBEEEF" transform="translate(0,0)"/>
<path d="" fill="#F9FBFC" transform="translate(0,0)"/>
<path d="" fill="#F6F8F7" transform="translate(0,0)"/>
<path d="" fill="#FCFCFE" transform="translate(0,0)"/>
<path d="" fill="#F1F3F2" transform="translate(0,0)"/>
<path d="" fill="#FBFCFF" transform="translate(0,0)"/>
<path d="" fill="#EDEEF0" transform="translate(0,0)"/>
<path d="" fill="#FDFCFD" transform="translate(0,0)"/>
<path d="" fill="#F5F7F8" transform="translate(0,0)"/>
<path d="" fill="#F0EDEF" transform="translate(0,0)"/>
<path d="" fill="#F9F8F8" transform="translate(0,0)"/>
<path d="" fill="#FCFDFC" transform="translate(0,0)"/>
<path d="" fill="#FDFFFD" transform="translate(0,0)"/>
<path d="" fill="#F9FAFB" transform="translate(0,0)"/>
<path d="" fill="#EBECED" transform="translate(0,0)"/>
<path d="" fill="#EDEAEE" transform="translate(0,0)"/>
<path d="" fill="#F9FDFB" transform="translate(0,0)"/>
<path d="" fill="#FDFEFE" transform="translate(0,0)"/>
<path d="" fill="#F0F2F2" transform="translate(0,0)"/>
<path d="" fill="#EAEBEA" transform="translate(0,0)"/>
<path d="" fill="#F6F4F6" transform="translate(0,0)"/>
<path d="" fill="#F9FBF9" transform="translate(0,0)"/>
<path d="" fill="#FFFEFD" transform="translate(0,0)"/>
<path d="" fill="#FEFEFD" transform="translate(0,0)"/>
<path d="" fill="#F2F2F2" transform="translate(0,0)"/>
<path d="" fill="#F3F5F4" transform="translate(0,0)"/>
<path d="" fill="#F4F6F5" transform="translate(0,0)"/>
<path d="" fill="#F6F9F7" transform="translate(0,0)"/>
<path d="" fill="#FDFFFF" transform="translate(0,0)"/>
<path d="" fill="#3F3E40" transform="translate(0,0)"/>
<path d="" fill="#EEEDEF" transform="translate(0,0)"/>
<path d="" fill="#F4F6F5" transform="translate(0,0)"/>
<path d="" fill="#F6F6F8" transform="translate(0,0)"/>
<path d="" fill="#EAE9EA" transform="translate(0,0)"/>
<path d="" fill="#F6F5F6" transform="translate(0,0)"/>
<path d="" fill="#F3F4F6" transform="translate(0,0)"/>
<path d="" fill="#F9FCFD" transform="translate(0,0)"/>
<path d="" fill="#EEF0F1" transform="translate(0,0)"/>
<path d="" fill="#FBFCFD" transform="translate(0,0)"/>
<path d="" fill="#FDFFFF" transform="translate(0,0)"/>
<path d="" fill="#EFEEF1" transform="translate(0,0)"/>
<path d="" fill="#EEF1F2" transform="translate(0,0)"/>
<path d="" fill="#F0F4F2" transform="translate(0,0)"/>
<path d="" fill="#FAFFFF" transform="translate(0,0)"/>
<path d="" fill="#F5F7F4" transform="translate(0,0)"/>
<path d="" fill="#FCFDFD" transform="translate(0,0)"/>
<path d="" fill="#ECEDF1" transform="translate(0,0)"/>
<path d="" fill="#FDFEFF" transform="translate(0,0)"/>
<path d="" fill="#FFFDFE" transform="translate(0,0)"/>
<path d="" fill="#ECEDEF" transform="translate(0,0)"/>
<path d="" fill="#FCFDFF" transform="translate(0,0)"/>
<path d="" fill="#FBFDFD" transform="translate(0,0)"/>
<path d="" fill="#F2F2F3" transform="translate(0,0)"/>
<path d="" fill="#FBFAF9" transform="translate(0,0)"/>
<path d="" fill="#FBFDFD" transform="translate(0,0)"/>
<path d="" fill="#F9FBFC" transform="translate(0,0)"/>
<path d="" fill="#F6F7F4" transform="translate(0,0)"/>
<path d="" fill="#FBFAFB" transform="translate(0,0)"/>
<path d="" fill="#F0F1F1" transform="translate(0,0)"/>
<path d="" fill="#FAFDFE" transform="translate(0,0)"/>
<path d="" fill="#FDFBFE" transform="translate(0,0)"/>
<path d="" fill="#FEFBFC" transform="translate(0,0)"/>
<path d="" fill="#FAFDFC" transform="translate(0,0)"/>
<path d="" fill="#FCFDFD" transform="translate(0,0)"/>
<path d="" fill="#F0F2F3" transform="translate(0,0)"/>
<path d="" fill="#FDFCFF" transform="translate(0,0)"/>
<path d="" fill="#F4F6F7" transform="translate(0,0)"/>
<path d="" fill="#F3F4F5" transform="translate(0,0)"/>
<path d="" fill="#F9FDFC" transform="translate(0,0)"/>
<path d="" fill="#F9FBFC" transform="translate(0,0)"/>
<path d="" fill="#FDFAFD" transform="translate(0,0)"/>
<path d="" fill="#EFF0F1" transform="translate(0,0)"/>
<path d="" fill="#FCFDFD" transform="translate(0,0)"/>
<path d="" fill="#FBFDFE" transform="translate(0,0)"/>
<path d="" fill="#FBFCFB" transform="translate(0,0)"/>
<path d="" fill="#FDFFFE" transform="translate(0,0)"/>
<path d="" fill="#FDFAFC" transform="translate(0,0)"/>
<path d="" fill="#F2F5F5" transform="translate(0,0)"/>
<path d="" fill="#F8F9FA" transform="translate(0,0)"/>
<path d="" fill="#EFF4F4" transform="translate(0,0)"/>
<path d="" fill="#F5F4F5" transform="translate(0,0)"/>
<path d="" fill="#F3F7F5" transform="translate(0,0)"/>
<path d="" fill="#F3F3F3" transform="translate(0,0)"/>
<path d="" fill="#F9FBFA" transform="translate(0,0)"/>
<path d="" fill="#FAFEFC" transform="translate(0,0)"/>
<path d="" fill="#F2F6F8" transform="translate(0,0)"/>
<path d="" fill="#F1F0F1" transform="translate(0,0)"/>
<path d="" fill="#FBFBFB" transform="translate(0,0)"/>
<path d="" fill="#F8F9F7" transform="translate(0,0)"/>
<path d="" fill="#F3F2F3" transform="translate(0,0)"/>
<path d="" fill="#F0F4F4" transform="translate(0,0)"/>
<path d="" fill="#F3F3F2" transform="translate(0,0)"/>
<path d="" fill="#F3F4F3" transform="translate(0,0)"/>
<path d="" fill="#F5F8F8" transform="translate(0,0)"/>
<path d="" fill="#F8F8F7" transform="translate(0,0)"/>
<path d="" fill="#F5F6F7" transform="translate(0,0)"/>
<path d="" fill="#F4F6F7" transform="translate(0,0)"/>
<path d="" fill="#F8FAF7" transform="translate(0,0)"/>
<path d="" fill="#F1F1F3" transform="translate(0,0)"/>
<path d="" fill="#F5F8F8" transform="translate(0,0)"/>
<path d="" fill="#F6F5F6" transform="translate(0,0)"/>
<path d="" fill="#F6F5F6" transform="translate(0,0)"/>
<path d="" fill="#FAFCFD" transform="translate(0,0)"/>
<path d="" fill="#F1F1F1" transform="translate(0,0)"/>
<path d="" fill="#FAFBFC" transform="translate(0,0)"/>
<path d="" fill="#919291" transform="translate(0,0)"/>
<path d="" fill="#F1F1F4" transform="translate(0,0)"/>
<path d="" fill="#F0F3F4" transform="translate(0,0)"/>
<path d="" fill="#F0F0F0" transform="translate(0,0)"/>
<path d="" fill="#F2F4F4" transform="translate(0,0)"/>
<path d="" fill="#F2F3F3" transform="translate(0,0)"/>
<path d="" fill="#F1F1F2" transform="translate(0,0)"/>
<path d="" fill="#F0F3F2" transform="translate(0,0)"/>
<path d="" fill="#F3F3F3" transform="translate(0,0)"/>
<path d="" fill="#F9FAFB" transform="translate(0,0)"/>
<path d="" fill="#F3F3F3" transform="translate(0,0)"/>
<path d="" fill="#262424" transform="translate(0,0)"/>
<path d="" fill="#363536" transform="translate(0,0)"/>
<path d="" fill="#F4F3F3" transform="translate(0,0)"/>
<path d="" fill="#ECEFF0" transform="translate(0,0)"/>
<path d="" fill="#808181" transform="translate(0,0)"/>
<path d="" fill="#F3F3F2" transform="translate(0,0)"/>
<path d="" fill="#EDF2F1" transform="translate(0,0)"/>
<path d="" fill="#F6F7FB" transform="translate(0,0)"/>
<path d="" fill="#333232" transform="translate(0,0)"/>
<path d="" fill="#F6F5F5" transform="translate(0,0)"/>
<path d="" fill="#F7F7F8" transform="translate(0,0)"/>
<path d="" fill="#F9F7FB" transform="translate(0,0)"/>
<path d="" fill="#F8F9FA" transform="translate(0,0)"/>
<path d="" fill="#F8F7F9" transform="translate(0,0)"/>
<path d="" fill="#DDDFDE" transform="translate(0,0)"/>
<path d="" fill="#E1E1E1" transform="translate(0,0)"/>
<path d="" fill="#E0E5E3" transform="translate(0,0)"/>
<path d="" fill="#ECECEF" transform="translate(0,0)"/>
<path d="" fill="#F8F8FA" transform="translate(0,0)"/>
<path d="" fill="#F6F9F9" transform="translate(0,0)"/>
<path d="" fill="#F6F5F7" transform="translate(0,0)"/>
<path d="" fill="#EDEEF1" transform="translate(0,0)"/>
<path d="" fill="#F5F9F8" transform="translate(0,0)"/>
<path d="" fill="#E8E8EB" transform="translate(0,0)"/>
<path d="" fill="#EEF0EC" transform="translate(0,0)"/>
<path d="" fill="#F1F1F2" transform="translate(0,0)"/>
<path d="" fill="#F9F9FA" transform="translate(0,0)"/>
<path d="" fill="#565758" transform="translate(0,0)"/>
<path d="" fill="#F7F6F5" transform="translate(0,0)"/>
<path d="" fill="#ECEBEB" transform="translate(0,0)"/>
<path d="" fill="#F7F9F8" transform="translate(0,0)"/>
<path d="" fill="#F2F3F3" transform="translate(0,0)"/>
<path d="" fill="#F3F1F3" transform="translate(0,0)"/>
<path d="" fill="#ECEFEC" transform="translate(0,0)"/>
<path d="" fill="#F2F0F0" transform="translate(0,0)"/>
<path d="" fill="#F1F1F3" transform="translate(0,0)"/>
<path d="" fill="#ECEDED" transform="translate(0,0)"/>
<path d="" fill="#F8F8F8" transform="translate(0,0)"/>
<path d="" fill="#F5F7F8" transform="translate(0,0)"/>
<path d="" fill="#EAEAE9" transform="translate(0,0)"/>
<path d="" fill="#F3F4F5" transform="translate(0,0)"/>
<path d="" fill="#F6F6F8" transform="translate(0,0)"/>
<path d="" fill="#FFFFFF" transform="translate(0,0)"/>
<path d="" fill="#EAEAEB" transform="translate(0,0)"/>
<path d="" fill="#F6F8F6" transform="translate(0,0)"/>
<path d="" fill="#ECEFEE" transform="translate(0,0)"/>
<path d="" fill="#EBEBED" transform="translate(0,0)"/>
<path d="" fill="#F2F3F4" transform="translate(0,0)"/>
<path d="" fill="#F5F5F7" transform="translate(0,0)"/>
<path d="" fill="#F5F7F7" transform="translate(0,0)"/>
<path d="" fill="#F3F1F6" transform="translate(0,0)"/>
<path d="" fill="#F1F3F4" transform="translate(0,0)"/>
<path d="" fill="#F2F4F2" transform="translate(0,0)"/>
<path d="" fill="#F4F5F5" transform="translate(0,0)"/>
<path d="" fill="#E9EBEA" transform="translate(0,0)"/>
<path d="" fill="#FBFBFC" transform="translate(0,0)"/>
<path d="" fill="#DDDFDE" transform="translate(0,0)"/>
<path d="" fill="#F6F6F5" transform="translate(0,0)"/>
<path d="" fill="#F9FBFA" transform="translate(0,0)"/>
<path d="" fill="#ECEDEE" transform="translate(0,0)"/>
<path d="" fill="#F5F6F7" transform="translate(0,0)"/>
<path d="" fill="#F4F7F8" transform="translate(0,0)"/>
<path d="" fill="#EEEEED" transform="translate(0,0)"/>
<path d="" fill="#F5F8F7" transform="translate(0,0)"/>
<path d="" fill="#F8FAF8" transform="translate(0,0)"/>
<path d="" fill="#F4F6F7" transform="translate(0,0)"/>
<path d="" fill="#F4F6F7" transform="translate(0,0)"/>
<path d="" fill="#F7FAF7" transform="translate(0,0)"/>
<path d="" fill="#E9E9EB" transform="translate(0,0)"/>
<path d="" fill="#F6F6F7" transform="translate(0,0)"/>
<path d="" fill="#F6F7F8" transform="translate(0,0)"/>
<path d="" fill="#F6F5F6" transform="translate(0,0)"/>
<path d="" fill="#EEEFEF" transform="translate(0,0)"/>
<path d="" fill="#F7F8F7" transform="translate(0,0)"/>
<path d="" fill="#EFEEF0" transform="translate(0,0)"/>
<path d="" fill="#F6F7F8" transform="translate(0,0)"/>
<path d="" fill="#F8F8F8" transform="translate(0,0)"/>
<path d="" fill="#F6F8F9" transform="translate(0,0)"/>
<path d="" fill="#E9EDE9" transform="translate(0,0)"/>
<path d="" fill="#F7F8F8" transform="translate(0,0)"/>
<path d="" fill="#F4F6F5" transform="translate(0,0)"/>
<path d="" fill="#ECEFEC" transform="translate(0,0)"/>
<path d="" fill="#F5F3F8" transform="translate(0,0)"/>
<path d="" fill="#F5F7F6" transform="translate(0,0)"/>
<path d="" fill="#F4F8F6" transform="translate(0,0)"/>
<path d="" fill="#F1F0F0" transform="translate(0,0)"/>
<path d="" fill="#F4F5F7" transform="translate(0,0)"/>
<path d="" fill="#F7F5F6" transform="translate(0,0)"/>
<path d="" fill="#F7F6F7" transform="translate(0,0)"/>
<path d="" fill="#F6F7F7" transform="translate(0,0)"/>
<path d="" fill="#F5F7F7" transform="translate(0,0)"/>
<path d="" fill="#F3F4F4" transform="translate(0,0)"/>
<path d="" fill="#F4F5F5" transform="translate(0,0)"/>
<path d="" fill="#EDEEEE" transform="translate(0,0)"/>
<path d="" fill="#EFF2F0" transform="translate(0,0)"/>
<path d="" fill="#F1F2F5" transform="translate(0,0)"/>
<path d="" fill="#F4F2F5" transform="translate(0,0)"/>
<path d="" fill="#F5F8F7" transform="translate(0,0)"/>
<path d="" fill="#EEF0F0" transform="translate(0,0)"/>
<path d="" fill="#F3F3F5" transform="translate(0,0)"/>
<path d="" fill="#F8F7FB" transform="translate(0,0)"/>
<path d="" fill="#F3F6F7" transform="translate(0,0)"/>
<path d="" fill="#F2F5F6" transform="translate(0,0)"/>
<path d="" fill="#F2F0F1" transform="translate(0,0)"/>
<path d="" fill="#F2F1F3" transform="translate(0,0)"/>
<path d="" fill="#F4F5F5" transform="translate(0,0)"/>
<path d="" fill="#E8E9EA" transform="translate(0,0)"/>
<path d="" fill="#EEEFEE" transform="translate(0,0)"/>
<path d="" fill="#ECE9EC" transform="translate(0,0)"/>
<path d="" fill="#F2F2F4" transform="translate(0,0)"/>
<path d="" fill="#F7F8F9" transform="translate(0,0)"/>
<path d="" fill="#F6F9F8" transform="translate(0,0)"/>
<path d="" fill="#F7F8F6" transform="translate(0,0)"/>
<path d="" fill="#F4F5F5" transform="translate(0,0)"/>
<path d="" fill="#F3F4F4" transform="translate(0,0)"/>
<path d="" fill="#F5F7F5" transform="translate(0,0)"/>
<path d="" fill="#F8F8F7" transform="translate(0,0)"/>
<path d="" fill="#F8F9F8" transform="translate(0,0)"/>
<path d="" fill="#F5F7F8" transform="translate(0,0)"/>
<path d="" fill="#F6F7F7" transform="translate(0,0)"/>
<path d="" fill="#F5F5F6" transform="translate(0,0)"/>
<path d="" fill="#F4F6F7" transform="translate(0,0)"/>
<path d="" fill="#F7F8F8" transform="translate(0,0)"/>
<path d="" fill="#ECEFF0" transform="translate(0,0)"/>
<path d="" fill="#F6F9F9" transform="translate(0,0)"/>
<path d="" fill="#F8F9F9" transform="translate(0,0)"/>
<path d="" fill="#F4F6F6" transform="translate(0,0)"/>
<path d="" fill="#F0EFEF" transform="translate(0,0)"/>
<path d="" fill="#F1F2F3" transform="translate(0,0)"/>
<path d="" fill="#EDEDEE" transform="translate(0,0)"/>
<path d="" fill="#F5F5F4" transform="translate(0,0)"/>
<path d="" fill="#ECEFEE" transform="translate(0,0)"/>
<path d="" fill="#F0EFF0" transform="translate(0,0)"/>
<path d="" fill="#EDEFF1" transform="translate(0,0)"/>
<path d="" fill="#F1F3F1" transform="translate(0,0)"/>
<path d="" fill="#EEF1F2" transform="translate(0,0)"/>
<path d="" fill="#ECEFEF" transform="translate(0,0)"/>
<path d="" fill="#EEF0F2" transform="translate(0,0)"/>
<path d="" fill="#DADADC" transform="translate(0,0)"/>
<path d="" fill="#F0F1F2" transform="translate(0,0)"/>
<path d="" fill="#EEEEEF" transform="translate(0,0)"/>
<path d="" fill="#F1F2F0" transform="translate(0,0)"/>
<path d="" fill="#EAECEE" transform="translate(0,0)"/>
<path d="" fill="#EBEDEC" transform="translate(0,0)"/>
<path d="" fill="#F2F3F5" transform="translate(0,0)"/>
<path d="" fill="#6C6D6C" transform="translate(0,0)"/>
<path d="" fill="#F1F4F3" transform="translate(0,0)"/>
<path d="" fill="#EFF2F0" transform="translate(0,0)"/>
<path d="" fill="#EEF2F0" transform="translate(0,0)"/>
<path d="" fill="#EFF4F3" transform="translate(0,0)"/>
<path d="" fill="#EDEFEF" transform="translate(0,0)"/>
<path d="" fill="#EDEFEF" transform="translate(0,0)"/>
<path d="" fill="#F1F2F1" transform="translate(0,0)"/>
<path d="" fill="#EDEEEF" transform="translate(0,0)"/>
<path d="" fill="#EFF1F2" transform="translate(0,0)"/>
<path d="" fill="#F0F0F1" transform="translate(0,0)"/>
<path d="" fill="#F2F1F1" transform="translate(0,0)"/>
<path d="" fill="#F1F1F1" transform="translate(0,0)"/>
<path d="" fill="#EFF0F0" transform="translate(0,0)"/>
<path d="" fill="#F0EFEF" transform="translate(0,0)"/>
<path d="" fill="#F2EFF0" transform="translate(0,0)"/>
<path d="" fill="#F0F0F1" transform="translate(0,0)"/>
</svg>
