<?xml version="1.0" encoding="UTF-8"?>
<svg version="1.1" xmlns="http://www.w3.org/2000/svg" width="115" height="100">
<path d="M0 0 C3.43751431 2.58908323 6.11444505 4.74588632 8.515625 8.34765625 C11.89090466 6.88377091 14.08449401 4.97154941 16.703125 2.41015625 C23.71691962 -3.88398191 30.27270557 -5.23306733 39.59765625 -4.92578125 C48.57651027 -4.08438931 54.5255039 -0.38672839 60.515625 6.34765625 C65.64829335 14.16684523 66.32553235 22.13755605 65.515625 31.34765625 C64.62806513 34.32732153 63.57432601 37.07995302 62.29296875 39.91015625 C61.08671459 43.69258135 62.09755815 46.33937738 63.578125 49.91015625 C65.64950061 57.50520014 65.4970173 65.20487384 61.83203125 72.25390625 C57.26102976 79.52410447 51.92877117 84.88527201 43.515625 87.34765625 C35.73235684 88.24905924 29.49598705 87.83783727 22.515625 84.34765625 C18.91715339 84.69960258 17.34038626 86.2414292 14.953125 88.84765625 C12.68159028 91.31649577 11.77242457 92.26205639 8.515625 93.34765625 C6.9296875 92.3359375 6.9296875 92.3359375 5.140625 90.66015625 C4.44195312 90.01691406 3.74328125 89.37367187 3.0234375 88.7109375 C2.19585937 87.93105469 1.36828125 87.15117188 0.515625 86.34765625 C-1.08168118 84.8684208 -2.68244253 83.39297639 -4.28320312 81.91748047 C-5.42673004 80.86224538 -6.56863356 79.8052486 -7.70898438 78.74658203 C-10.54593184 76.11543625 -13.403342 73.53293959 -16.359375 71.03515625 C-30.31970775 58.85699364 -44.43506714 46.10528761 -46.79296875 26.82421875 C-47.21408636 18.73365615 -44.79036997 10.88491581 -39.796875 4.47265625 C-29.56793888 -6.3549199 -12.36980537 -8.22708753 0 0 Z M-35.484375 7.34765625 C-40.41253666 14.80990104 -42.57815996 21.53253461 -41.12890625 30.5625 C-36.75161147 48.68861327 -19.15593062 63.19946969 -5.1015625 74.2421875 C-0.36465862 78.05292062 4.05741979 82.21713344 8.515625 86.34765625 C12.25582998 84.66613552 14.07696848 82.65726152 16.515625 79.34765625 C16.10570312 78.79078125 15.69578125 78.23390625 15.2734375 77.66015625 C9.72277293 69.79892796 7.74494357 63.79906319 8.921875 54.15625 C10.53332818 46.53365239 13.88448853 40.83665564 20.421875 36.53125 C28.02919211 32.23084499 35.34460457 31.01285873 44.0078125 32.88671875 C48.74918786 34.33946339 52.54623941 36.39606184 56.515625 39.34765625 C60.51430335 33.26271094 61.15545917 27.50216559 60.515625 20.34765625 C59.24345173 14.26726904 57.06942854 9.69906853 52.515625 5.34765625 C45.47696243 0.97302932 38.56422328 -0.72479025 30.3125 0.73828125 C21.51502164 3.13759353 14.98577099 9.57348931 10.515625 17.34765625 C7.08496608 16.20410328 6.7545378 15.55805516 4.828125 12.66015625 C0.10862467 6.1533204 -5.4364778 1.78478075 -13.484375 0.34765625 C-21.55997897 -0.30360213 -29.71684618 1.25970916 -35.484375 7.34765625 Z M18.1796875 44.546875 C13.19769896 49.93818185 12.97381969 55.05110944 13.17578125 62.16015625 C13.98743598 69.77291783 17.66328543 74.20920861 23.51171875 78.9375 C28.75042434 82.62399653 34.30144924 83.02288078 40.515625 82.34765625 C46.7261209 80.89967178 51.99469618 77.93172437 55.73828125 72.609375 C59.43419645 66.42302232 60.70793877 60.36100705 59.01953125 53.26171875 C56.91909051 47.06719861 53.61963817 42.29288241 47.828125 39.03515625 C36.81357852 34.10759598 26.74101061 36.30958603 18.1796875 44.546875 Z " fill="#FEFEFE" transform="translate(47.484375,5.65234375)"/>
<path d="M0 0 C2.87767477 0.08720227 4.57831459 0.60086985 6.6796875 2.58984375 C7.25976562 3.22019531 7.83984375 3.85054687 8.4375 4.5 C11.50129776 7.78455175 13.42846779 8.68105589 18 9 C20 11 20 11 20.3125 14.4375 C20 18 20 18 18.875 19.9375 C16.11019567 21.50422245 14.11811483 21.38976435 11 21 C9.1875 19.9375 9.1875 19.9375 8 18 C7.938125 16.948125 7.87625 15.89625 7.8125 14.8125 C6.63334801 9.27955605 3.14925086 6.63886465 -1 3 C-0.67 2.01 -0.34 1.02 0 0 Z " fill="#FEFEFE" transform="translate(70,50)"/>
</svg>
