<?xml version="1.0" encoding="UTF-8"?>
<svg version="1.1" xmlns="http://www.w3.org/2000/svg" width="125" height="100">
<path d="M0 0 C7.99508086 4.78857317 13.16157646 11.05443323 16.5234375 19.69921875 C18.45983803 29.90933062 17.11583637 39.13422933 11.4609375 47.94921875 C9.37743025 50.92417686 7.11708122 53.47789537 4.5859375 56.07421875 C-2.48933019 64.04172152 -3.24313992 74.55000678 -3.46240234 84.76342773 C-3.59825667 90.13341292 -3.59825667 90.13341292 -5.7890625 92.32421875 C-9.77061586 92.78016821 -13.78441379 92.64825288 -17.7890625 92.63671875 C-19.46742187 92.66088867 -19.46742187 92.66088867 -21.1796875 92.68554688 C-22.78070313 92.68651367 -22.78070313 92.68651367 -24.4140625 92.6875 C-25.39632812 92.69048096 -26.37859375 92.69346191 -27.390625 92.6965332 C-28.18210937 92.57366943 -28.97359375 92.45080566 -29.7890625 92.32421875 C-31.82026957 89.27740814 -32.03566125 88.72303551 -31.984375 85.3125 C-31.97792969 84.55517578 -31.97148438 83.79785156 -31.96484375 83.01757812 C-31.93970703 81.83905273 -31.93970703 81.83905273 -31.9140625 80.63671875 C-31.90503906 79.83943359 -31.89601563 79.04214844 -31.88671875 78.22070312 C-31.86317835 76.25507975 -31.82730797 74.289611 -31.7890625 72.32421875 C-32.45292969 72.2984375 -33.11679688 72.27265625 -33.80078125 72.24609375 C-39.30672506 71.89242729 -42.83092642 71.53771845 -46.7890625 67.32421875 C-48.15858923 64.5851653 -47.91527611 62.35334543 -47.7890625 59.32421875 C-47.2940625 58.33421875 -47.2940625 58.33421875 -46.7890625 57.32421875 C-47.1190625 56.66421875 -47.4490625 56.00421875 -47.7890625 55.32421875 C-47.8290545 53.32461863 -47.83253049 51.32374633 -47.7890625 49.32421875 C-49.1090625 48.99421875 -50.4290625 48.66421875 -51.7890625 48.32421875 C-51.77746094 49.39542969 -51.76585937 50.46664062 -51.75390625 51.5703125 C-51.74452951 52.96744618 -51.73542919 54.36458174 -51.7265625 55.76171875 C-51.71818359 56.46876953 -51.70980469 57.17582031 -51.70117188 57.90429688 C-51.69252662 59.71115434 -51.73686239 61.51809478 -51.7890625 63.32421875 C-53.78522804 65.32038429 -57.60608213 64.73405302 -60.3515625 64.88671875 C-61.06248047 64.92990234 -61.77339844 64.97308594 -62.50585938 65.01757812 C-64.26668162 65.12393652 -66.0278457 65.22460721 -67.7890625 65.32421875 C-67.92054687 66.43925781 -68.05203125 67.55429688 -68.1875 68.703125 C-68.7890625 72.32421875 -68.7890625 72.32421875 -70.4140625 74.26171875 C-73.76588303 75.76121741 -76.15886468 75.77799348 -79.7890625 75.32421875 C-82.79249146 73.26924104 -83.62193606 71.84788161 -84.7265625 68.38671875 C-84.80097733 64.74039189 -83.93620759 63.21460637 -81.7890625 60.32421875 C-81.4590625 59.99421875 -81.1290625 59.66421875 -80.7890625 59.32421875 C-82.03042969 59.31003906 -83.27179688 59.29585937 -84.55078125 59.28125 C-86.19274493 59.23433675 -87.83467087 59.18608943 -89.4765625 59.13671875 C-90.70149414 59.12801758 -90.70149414 59.12801758 -91.95117188 59.11914062 C-96.26836573 58.96183397 -98.27439898 58.70856258 -101.828125 56.0546875 C-104.34440631 52.55094122 -104.58460221 50.67324116 -104.33984375 46.484375 C-103.71232684 44.02326256 -103.01631246 42.97712702 -101.1640625 41.26171875 C-97.49245911 39.15394643 -95.92241086 38.53272651 -91.7890625 39.32421875 C-88.9765625 40.88671875 -88.9765625 40.88671875 -86.7890625 43.32421875 C-85.9765625 47.07421875 -85.9765625 47.07421875 -85.7890625 50.32421875 C-87.7690625 50.81921875 -87.7690625 50.81921875 -89.7890625 51.32421875 C-90.1809375 50.51984375 -90.5728125 49.71546875 -90.9765625 48.88671875 C-92.55854441 46.09357137 -92.55854441 46.09357137 -95.4765625 45.51171875 C-96.62125 45.41890625 -96.62125 45.41890625 -97.7890625 45.32421875 C-97.8317835 46.9903378 -97.82970082 48.6580476 -97.7890625 50.32421875 C-96.57477262 51.76810446 -96.57477262 51.76810446 -92.97265625 51.421875 C-91.39059568 51.41519964 -89.80855091 51.4032375 -88.2265625 51.38671875 C-87.01709961 51.37995117 -87.01709961 51.37995117 -85.78320312 51.37304688 C-83.78512494 51.36122393 -81.78708467 51.34328789 -79.7890625 51.32421875 C-80.51802734 50.70353516 -80.51802734 50.70353516 -81.26171875 50.0703125 C-83.38773568 47.63980209 -83.27330177 45.40189564 -83.12890625 42.265625 C-82.7890625 40.32421875 -82.7890625 40.32421875 -81.2890625 37.82421875 C-77.76595331 35.71035324 -74.79734335 35.51106341 -70.7890625 36.32421875 C-68.2890625 38.01171875 -68.2890625 38.01171875 -66.7890625 40.32421875 C-66.5390625 43.07421875 -66.5390625 43.07421875 -66.7890625 45.32421875 C-69.2640625 45.81921875 -69.2640625 45.81921875 -71.7890625 46.32421875 C-72.4490625 45.00421875 -73.1090625 43.68421875 -73.7890625 42.32421875 C-75.2740625 42.81921875 -75.2740625 42.81921875 -76.7890625 43.32421875 C-76.4590625 44.31421875 -76.1290625 45.30421875 -75.7890625 46.32421875 C-68.8590625 46.32421875 -61.9290625 46.32421875 -54.7890625 46.32421875 C-54.4590625 44.34421875 -54.1290625 42.36421875 -53.7890625 40.32421875 C-52.44921875 37.97265625 -52.44921875 37.97265625 -50.8515625 35.69921875 C-48.39726841 31.83167 -47.31636088 28.80085336 -46.7265625 24.26171875 C-45.52410282 15.06643883 -41.05300375 8.06675957 -33.7890625 2.32421875 C-23.62008496 -3.83709545 -10.93606226 -5.17737167 0 0 Z M-36.61328125 13.51953125 C-39.56494214 18.0499875 -40.84760254 22.35941844 -41.6640625 27.63671875 C-42.60497772 33.49310485 -44.87690616 38.20015741 -47.7890625 43.32421875 C-46.1390625 43.98421875 -44.4890625 44.64421875 -42.7890625 45.32421875 C-42.7890625 47.63421875 -42.7890625 49.94421875 -42.7890625 52.32421875 C-40.8090625 53.31421875 -38.8290625 54.30421875 -36.7890625 55.32421875 C-36.7890625 56.64421875 -36.7890625 57.96421875 -36.7890625 59.32421875 C-39.2890625 61.07421875 -39.2890625 61.07421875 -41.7890625 62.32421875 C-39.98242614 64.75925037 -38.63448605 66.17705799 -35.58984375 66.70703125 C-33.99964114 66.82482404 -32.40642393 66.90811386 -30.8125 66.953125 C-30.14476563 67.07558594 -29.47703125 67.19804688 -28.7890625 67.32421875 C-26.8134063 70.28770304 -26.52529391 71.00442248 -26.375 74.3359375 C-26.33938965 75.01873779 -26.3037793 75.70153809 -26.26708984 76.4050293 C-26.23309082 77.26523682 -26.1990918 78.12544434 -26.1640625 79.01171875 C-26.0403125 81.75484375 -25.9165625 84.49796875 -25.7890625 87.32421875 C-17.3740625 86.82921875 -17.3740625 86.82921875 -8.7890625 86.32421875 C-8.7065625 83.58109375 -8.6240625 80.83796875 -8.5390625 78.01171875 C-7.94737564 65.76885979 -4.75998407 57.67240539 3.2109375 48.32421875 C9.03746777 41.22354974 11.74073313 35.23958698 11.52734375 25.87890625 C10.68081556 19.04397497 7.13558442 13.03475058 2.2109375 8.32421875 C-10.25615559 -0.65208827 -27.20074566 1.16392115 -36.61328125 13.51953125 Z M-77.7890625 64.32421875 C-78.1190625 65.64421875 -78.4490625 66.96421875 -78.7890625 68.32421875 C-76.3140625 68.81921875 -76.3140625 68.81921875 -73.7890625 69.32421875 C-73.1290625 67.67421875 -72.4690625 66.02421875 -71.7890625 64.32421875 C-73.7690625 64.32421875 -75.7490625 64.32421875 -77.7890625 64.32421875 Z " fill="#F8F7F7" transform="translate(105.7890625,4.67578125)"/>
</svg>
