<?xml version="1.0" encoding="UTF-8"?>
<svg version="1.1" xmlns="http://www.w3.org/2000/svg" width="118" height="100">
<path d="M0 0 C3.5366398 2.80543579 6.80259387 5.81594421 10 9 C13.13618173 7.60844917 15.2398682 5.94855616 17.6875 3.5625 C24.36577719 -2.34094945 31.21377172 -3.61204826 40.01171875 -3.34375 C48.59752789 -2.35610137 55.23408042 1.66904599 61 8 C67.61229233 16.69861357 68.95705882 25.20390965 68 36 C66.23695022 43.3157478 63.43062737 50.71291509 57 55 C56.78150391 55.90685547 56.78150391 55.90685547 56.55859375 56.83203125 C53.12086901 70.17424965 31.72264369 82.13074242 21.00195312 89.59228516 C19.74860645 90.47360186 18.50990016 91.37655724 17.29492188 92.31005859 C14.99264084 94.02500804 13.48359726 94.99299134 10.57421875 95.03515625 C7.01767159 93.60498175 3.95181052 91.60252799 0.8125 89.4375 C0.14903564 88.98640869 -0.51442871 88.53531738 -1.19799805 88.07055664 C-6.68236091 84.30234371 -11.93834958 80.32278534 -17 76 C-17.83015625 75.29230469 -18.6603125 74.58460937 -19.515625 73.85546875 C-35.16538203 60.14993 -35.16538203 60.14993 -39 51 C-38.67 50.34 -38.34 49.68 -38 49 C-30.08 49 -22.16 49 -14 49 C-13.731875 47.02 -13.46375 45.04 -13.1875 43 C-12.04331157 34.9495231 -10.55454183 26.97998141 -9 19 C-7.68 18.67 -6.36 18.34 -5 18 C-2.16111528 24.68949963 0.12543669 31.43625197 2.16796875 38.41015625 C2.75151384 40.9038255 2.75151384 40.9038255 4 42 C4.99 40.02 5.98 38.04 7 36 C8.32 36 9.64 36 11 36 C11.95972174 38.54115002 12.91781494 41.08289457 13.875 43.625 C14.14441406 44.33785156 14.41382813 45.05070312 14.69140625 45.78515625 C16.2134184 49.83148122 17.66372172 53.88737656 19 58 C20.42679449 55.27563014 21.54823412 52.59233094 22.5078125 49.671875 C22.77207031 48.87265625 23.03632812 48.0734375 23.30859375 47.25 C23.57800781 46.425 23.84742187 45.6 24.125 44.75 C24.54072266 43.48929688 24.54072266 43.48929688 24.96484375 42.203125 C25.64595253 40.13631215 26.32334233 38.06827438 27 36 C28.90722656 36.34350586 28.90722656 36.34350586 31 37 C33.08338267 40.51433761 34.43290839 44.21286193 36 48 C42.93 48 49.86 48 57 48 C61.72933358 38.42006787 64.31487268 31.08908227 61.85546875 20.4921875 C59.50660864 13.64938955 55.45427194 8.36159997 49 5 C42.73979677 2.01895084 35.03515913 1.87912246 28.3984375 3.72265625 C22.28981777 6.24578179 18.45151594 9.66877743 14.9375 15.3125 C13.9784375 16.6428125 13.9784375 16.6428125 13 18 C11.68 18 10.36 18 9 18 C7.5078125 16.171875 7.5078125 16.171875 6.125 13.75 C2.96322158 8.6895657 -0.24682272 6.3110368 -5.625 3.75 C-14.30229873 1.82171139 -22.38171204 2.18762468 -30 7 C-34.53091554 10.82610646 -38.11173309 15.33519927 -40 21 C-40.14877911 23.5979122 -40.23103235 26.15143149 -40.25 28.75 C-40.2809375 29.78640625 -40.2809375 29.78640625 -40.3125 30.84375 C-40.35114425 35.9834351 -39.1674653 39.35873431 -37 44 C-37.3125 46.4375 -37.3125 46.4375 -38 48 C-39.859375 47.7578125 -39.859375 47.7578125 -42 47 C-47.15286909 39.84323737 -46.87653656 30.37679781 -46 22 C-43.8584661 12.58485392 -37.72733662 5.20782335 -29.73046875 -0.03515625 C-21.23920044 -4.76956544 -8.52086729 -4.80132348 0 0 Z M-6 31 C-6.11593506 31.59538574 -6.23187012 32.19077148 -6.35131836 32.80419922 C-6.87703798 35.49506396 -7.40721295 38.1850318 -7.9375 40.875 C-8.11990234 41.81214844 -8.30230469 42.74929687 -8.49023438 43.71484375 C-8.66748047 44.61074219 -8.84472656 45.50664063 -9.02734375 46.4296875 C-9.18968506 47.25710449 -9.35202637 48.08452148 -9.51928711 48.93701172 C-10 51 -10 51 -11 53 C-17.6 53.33 -24.2 53.66 -31 54 C-28.41623341 58.30627764 -25.81506915 61.5699957 -22.3125 65.0625 C-21.75014648 65.62396729 -21.18779297 66.18543457 -20.60839844 66.76391602 C-14.47478196 72.73291091 -7.73712528 77.79680258 -0.76513672 82.73876953 C0.78952172 83.84960847 2.31705263 84.99820632 3.83984375 86.15234375 C4.61457031 86.72082031 5.38929687 87.28929687 6.1875 87.875 C6.82042969 88.34679687 7.45335937 88.81859375 8.10546875 89.3046875 C10.04860653 90.21929084 10.04860653 90.21929084 12.32421875 89.41796875 C15.6171381 87.67296185 18.62107576 85.62964256 21.625 83.4375 C22.24036621 82.99132324 22.85573242 82.54514648 23.48974609 82.08544922 C31.68452131 76.09377596 39.39981992 69.75978462 46.625 62.625 C47.14658691 62.11275879 47.66817383 61.60051758 48.20556641 61.07275391 C50.53134027 58.72673561 51.94046833 57.17859502 53 54 C46.4 53.67 39.8 53.34 33 53 C32.01 50.69 31.02 48.38 30 46 C27.81175746 46.81171827 27.81175746 46.81171827 27.23803711 49.00952148 C27.0035083 49.87134033 26.76897949 50.73315918 26.52734375 51.62109375 C26.26759766 52.55630859 26.00785156 53.49152344 25.74023438 54.45507812 C25.47533203 55.43927734 25.21042969 56.42347656 24.9375 57.4375 C24.40654814 59.37413735 23.87406978 61.31035703 23.33984375 63.24609375 C23.10644287 64.10904053 22.87304199 64.9719873 22.63256836 65.86108398 C22 68 22 68 21 70 C20.01 70.33 19.02 70.66 18 71 C17.84144531 70.45214844 17.68289062 69.90429688 17.51953125 69.33984375 C15.90319655 63.84787778 14.19931228 58.3843441 12.4375 52.9375 C12.22778564 52.27032959 12.01807129 51.60315918 11.80200195 50.91577148 C11.2588722 49.25722088 10.6354812 47.6254057 10 46 C9.34 45.67 8.68 45.34 8 45 C7.01 47.97 6.02 50.94 5 54 C4.01 53.67 3.02 53.34 2 53 C1.0168457 50.86694336 1.0168457 50.86694336 0.17578125 48.08984375 C-0.13037109 47.10048828 -0.43652344 46.11113281 -0.75195312 45.09179688 C-1.06068359 44.05087891 -1.36941406 43.00996094 -1.6875 41.9375 C-2.00783203 40.89271484 -2.32816406 39.84792969 -2.65820312 38.77148438 C-3.4497745 36.18410929 -4.22979291 33.5937996 -5 31 C-5.33 31 -5.66 31 -6 31 Z " fill="#FEFEFE" transform="translate(48,4)"/>
</svg>
