<?xml version="1.0" encoding="UTF-8"?>
<svg version="1.1" xmlns="http://www.w3.org/2000/svg" width="74" height="100">
<path d="M0 0 C5.04473429 2.11174924 6.91895571 7.63926999 9.32421875 12.2890625 C9.94435485 13.48487211 10.56549801 14.68015987 11.1875 15.875 C11.51379395 16.50390137 11.84008789 17.13280273 12.17626953 17.78076172 C15.23562605 23.54360479 18.76631511 28.94397234 22.375 34.375 C26.79875873 41.05553501 30.93164807 47.55322862 33.6875 55.125 C34.120625 56.28 34.55375 57.435 35 58.625 C36.81650212 67.87264716 36.16299521 76.32285383 31.28125 84.47265625 C24.66314004 93.82229745 16.23778527 97.7010845 5.140625 99.71875 C-5.4620708 100.96612598 -15.77485161 98.49463578 -24.625 92.4375 C-31.89263277 86.51296158 -35.44491777 79.21477355 -36.5625 70.08203125 C-37.49624103 54.06253663 -26.93946205 40.04898696 -18.60986328 27.24780273 C-14.03844943 20.21218858 -9.68949619 13.04176427 -6 5.5 C-3.34027778 0.18055556 -3.34027778 0.18055556 0 0 Z M-1.3125 7.125 C-1.93511719 8.47464844 -1.93511719 8.47464844 -2.5703125 9.8515625 C-7.1284582 19.45595429 -12.50278118 28.31332198 -18.28833008 37.22631836 C-26.42674057 49.82883587 -31.41554243 59.8262811 -30.3125 75.125 C-28.68579503 81.80795991 -23.90913025 86.39705911 -18.3125 90.125 C-9.50852125 94.83992701 0.03496611 95.56269594 9.7421875 93.46484375 C17.64021458 90.93791265 24.03302882 86.58631975 28.125 79.25 C31.81762873 70.64485627 30.93581045 62.78043591 27.6875 54.125 C23.28320149 44.69586607 17.38632547 36.03575289 11.65893555 27.37841797 C7.41523702 20.88805551 3.95210833 14.15560701 0.6875 7.125 C0.0275 7.125 -0.6325 7.125 -1.3125 7.125 Z " fill="#E0E0E0" transform="translate(37.3125,-0.125)"/>
<path d="M0 0 C2.9576473 2.29217666 3.81597278 3.44791835 5 7 C5.50924563 13.23825899 5.71456604 18.69347708 2 24 C-1.92114794 27.59294613 -5.155759 27.55637109 -10.296875 27.42578125 C-14.54100718 26.7572691 -16.17992452 25.19113804 -19 22 C-21.01549526 15.95351421 -20.99394749 9.26620027 -18.4375 3.4375 C-12.71756318 -2.28243682 -7.26525232 -2.89485876 0 0 Z M-12.375 4.25 C-15.3143814 7.41548766 -15.28792002 10.81594266 -15.2109375 14.99609375 C-14.89013712 18.04369735 -14.05525014 19.73922484 -12 22 C-8.87936541 22.99594721 -6.91131822 23.25314395 -3.75 22.375 C-1.32095139 20.46646181 -0.79511983 18.98169937 0 16 C0.33465051 12.25191424 0.24387872 9.65990713 -1.0625 6.125 C-2.94180428 3.6929666 -2.94180428 3.6929666 -6.4375 3 C-9.92189044 2.72346306 -9.92189044 2.72346306 -12.375 4.25 Z " fill="#FFFFFF" transform="translate(38,49)"/>
<path d="M0 0 C1.875 1.125 1.875 1.125 3 3 C3.54793052 6.08210918 3.62022351 8.05028275 1.875 10.72265625 C0.64440381 12.20146928 -0.67319684 13.60685668 -2 15 C0.97 15.495 0.97 15.495 4 16 C3.67 17.32 3.34 18.64 3 20 C-0.63 20 -4.26 20 -8 20 C-8.33 18.68 -8.66 17.36 -9 16 C-7.6015625 14 -7.6015625 14 -5.625 12 C-3.05217921 9.3759278 -1.57458371 7.67733573 -1 4 C-3.31 4.33 -5.62 4.66 -8 5 C-8 3.68 -8 2.36 -8 1 C-5.20129973 -0.39935013 -3.09501208 -0.25265405 0 0 Z " fill="#FFFFFF" transform="translate(52,62)"/>
</svg>
