<svg version="1.1" xmlns="http://www.w3.org/2000/svg" width="60px" height="100px" transform="rotate(0) scale(1, 1)">
<path d="M0 0 C3.422372 2.50880336 5.66544544 5.36929683 6.525177 9.55984497 C6.70659745 12.5987608 6.70001132 15.58543295 6.62890625 18.62890625 C6.63075424 19.73676987 6.63260223 20.84463348 6.63450623 21.98606873 C6.63874537 25.51230556 6.60464495 29.03653289 6.5625 32.5625 C6.52567275 36.09189813 6.49798715 39.62004212 6.50120544 43.14964294 C6.50297006 45.34121062 6.48187064 47.53294819 6.43495178 49.72401428 C6.38133108 56.13500564 6.38133108 56.13500564 9.46850586 61.53100586 C10.30389893 62.34577393 11.13929199 63.16054199 12 64 C13.89666047 69.68998142 14.18887258 76.02562507 11.94140625 81.6484375 C8.71733571 86.90830326 5.03136839 90.40158082 -1 92 C-6.96257352 92.79377914 -11.96296662 92.54881897 -17 89 C-21.8895202 84.23977 -24.68558451 80.14415489 -25.375 73.25 C-25.24657106 67.62053166 -22.98286809 61.98286809 -19 58 C-18.69691196 55.81978012 -18.69691196 55.81978012 -18.74462891 53.27832031 C-18.73766998 52.29679993 -18.73071106 51.31527954 -18.72354126 50.30401611 C-18.72453827 49.23947205 -18.72553528 48.17492798 -18.7265625 47.078125 C-18.70626735 44.8333284 -18.68541645 42.58853677 -18.6640625 40.34375 C-18.64148107 36.79748353 -18.62500234 33.25141312 -18.61914062 29.70507812 C-18.60961 26.28739758 -18.57581535 22.87060616 -18.5390625 19.453125 C-18.54663071 17.86845428 -18.54663071 17.86845428 -18.55435181 16.25177002 C-18.47355828 10.19599782 -18.08010051 6.58976367 -14 2 C-9.32594362 -1.29308518 -5.31498265 -1.88619887 0 0 Z M-10.69767761 6.21466064 C-12.43284934 8.59338837 -12.36003047 10.07284308 -12.3371582 13.00292969 C-12.33758621 14.02118835 -12.33801422 15.03944702 -12.3384552 16.08856201 C-12.3260228 17.1885553 -12.31359039 18.28854858 -12.30078125 19.421875 C-12.30842527 21.75000283 -12.31691551 24.07812802 -12.32617188 26.40625 C-12.32396312 30.07768357 -12.31251061 33.74858807 -12.28491211 37.41992188 C-12.26416433 40.96278448 -12.28024615 44.50404435 -12.30078125 48.046875 C-12.28227615 49.13877136 -12.26377106 50.23066772 -12.2447052 51.35565186 C-12.29488729 56.58921199 -12.4368928 60.00523014 -15.97729492 64.03222656 C-16.51553391 64.53417542 -17.05377289 65.03612427 -17.60832214 65.55328369 C-20.09194829 68.13513296 -20.06064272 70.54336499 -20 74 C-19.0954683 78.18444231 -17.69374234 81.20423673 -14.875 84.4375 C-10.94523652 86.57324102 -7.46025338 87.19700766 -3 87 C2.37285867 85.17525555 5.47401035 82.05197929 8 77 C8.54528108 70.56568321 7.68456777 67.31011237 4 62 C3.34 61.67 2.68 61.34 2 61 C1.99120064 60.03613373 1.99120064 60.03613373 1.98222351 59.05279541 C1.91832604 52.36921548 1.83391559 45.6861187 1.73754883 39.00292969 C1.70427931 36.50820279 1.67625377 34.01340025 1.65356445 31.51855469 C1.6200565 27.93391665 1.56774089 24.34997308 1.51171875 20.765625 C1.50532883 19.64883362 1.4989389 18.53204224 1.49235535 17.38140869 C1.47256119 16.34063171 1.45276703 15.29985474 1.43237305 14.22753906 C1.42126999 13.31264709 1.41016693 12.39775513 1.39872742 11.45513916 C0.91914833 8.5021609 0.10238289 7.11343818 -2 5 C-6.60858217 4.37083876 -6.60858217 4.37083876 -10.69767761 6.21466064 Z " fill="#fefefe" transform="translate(32,5)"/>
<path d="M0 0 C2.31 0 4.62 0 7 0 C7.00410889 1.22106445 7.00821777 2.44212891 7.01245117 3.70019531 C7.03423216 8.23301334 7.08851094 12.76496202 7.15258789 17.29736328 C7.17577695 19.25854151 7.19016574 21.21984443 7.19555664 23.18115234 C7.20483968 26.00176783 7.24581459 28.82041972 7.29296875 31.640625 C7.2890361 32.51680481 7.28510345 33.39298462 7.28105164 34.29571533 C7.34818506 39.4511855 7.34818506 39.4511855 10.45825195 43.44042969 C11.29702881 43.95508789 12.13580566 44.46974609 13 45 C15.47601332 49.16420421 15.15783642 52.36865432 14 57 C12.16137708 59.95492969 10.67251431 61.60012663 7.6875 63.375 C3.95572881 64.24285376 1.69286057 64.10137947 -2 63 C-5.20262231 60.56994009 -7.55928219 57.91098132 -8.4765625 53.93359375 C-8.6600653 49.53786763 -7.84235638 46.33241783 -5 43 C-3.35 42.34 -1.7 41.68 0 41 C0 27.47 0 13.94 0 0 Z " fill="#fefefe" transform="translate(23,26)"/>
<path d="M0 0 C3.47998478 2.48115865 5.67742285 5.38603507 6.5199585 9.60153198 C6.69361196 12.69852737 6.67488957 15.739264 6.5859375 18.83984375 C6.57744781 19.96193741 6.56895813 21.08403107 6.56021118 22.24012756 C6.52675493 25.80691508 6.4514834 29.37140144 6.375 32.9375 C6.34489065 35.36259745 6.31751656 37.7877305 6.29296875 40.21289062 C6.22698905 46.14270575 6.12671655 52.07118845 6 58 C5.67 58 5.34 58 5 58 C4.67 42.49 4.34 26.98 4 11 C4 27.83 4 44.66 4 62 C2.515 61.505 2.515 61.505 1 61 C0.99191315 60.35520187 0.98382629 59.71040375 0.97549438 59.04606628 C0.88956429 52.3465065 0.79006586 45.64724656 0.68261719 38.94799805 C0.64428881 36.44642159 0.60944282 33.94478928 0.578125 31.44311523 C0.53255854 27.85119643 0.47454976 24.25966338 0.4140625 20.66796875 C0.40251129 19.54601608 0.39096008 18.42406342 0.37905884 17.26811218 C0.35918915 16.22725967 0.33931946 15.18640717 0.31884766 14.11401367 C0.30552399 13.19690109 0.29220032 12.27978851 0.2784729 11.33488464 C0.14622426 8.72938861 0.14622426 8.72938861 -2 6 C-5.5 5.58333333 -5.5 5.58333333 -9 6 C-11.53975988 8.53975988 -11.26778159 9.47693 -11.31884766 13.00048828 C-11.33871735 14.04141632 -11.35858704 15.08234436 -11.37905884 16.15481567 C-11.39061005 17.28192963 -11.40216125 18.40904358 -11.4140625 19.5703125 C-11.43342865 20.72167694 -11.4527948 21.87304138 -11.4727478 23.05929565 C-11.53267372 26.74778769 -11.57898126 30.43631072 -11.625 34.125 C-11.66316777 36.62110759 -11.70221878 39.11720185 -11.7421875 41.61328125 C-11.83838588 47.74206937 -11.92339506 53.87093738 -12 60 C-12.33 60 -12.66 60 -13 60 C-13 42.18 -13 24.36 -13 6 C-13.99 6.66 -14.98 7.32 -16 8 C-15.6655974 4.90677596 -15.4404882 3.41112232 -13.125 1.25 C-8.76626173 -1.31396369 -4.76370143 -1.56642772 0 0 Z " fill="#fefefe" transform="translate(32,5)"/>
<path d="M0 0 C0.33 0 0.66 0 1 0 C1 16.17 1 32.34 1 49 C2.32 49.66 3.64 50.32 5 51 C8.57231298 56.35846947 8.12223971 61.765775 8 68 C7.01 68 6.02 68 5 68 C4.67 64.04 4.34 60.08 4 56 C3.01 56 2.02 56 1 56 C-0.57364479 52.50797198 -1.24930521 49.78976757 -1.24291992 45.96606445 C-1.24599655 44.99188065 -1.24907318 44.01769684 -1.25224304 43.01399231 C-1.24505753 41.97425766 -1.23787201 40.93452301 -1.23046875 39.86328125 C-1.23001053 38.78749313 -1.22955231 37.71170502 -1.2290802 36.60331726 C-1.22606439 34.33473606 -1.2181982 32.06615681 -1.20581055 29.79760742 C-1.18751244 26.31486733 -1.18530125 22.8323926 -1.18554688 19.34960938 C-1.18063302 17.14583102 -1.17480528 14.94205448 -1.16796875 12.73828125 C-1.16685593 11.69247391 -1.1657431 10.64666656 -1.16459656 9.56916809 C-1.15821671 8.60444077 -1.15183685 7.63971344 -1.14526367 6.64575195 C-1.14145187 5.79479446 -1.13764008 4.94383698 -1.13371277 4.0670929 C-1 2 -1 2 0 0 Z " fill="#fefefe" transform="translate(36,14)"/>
<path d="M0 0 C2.31 0 4.62 0 7 0 C7.33 13.86 7.66 27.72 8 42 C7.34 42 6.68 42 6 42 C6 28.47 6 14.94 6 1 C4.35 1 2.7 1 1 1 C1 14.53 1 28.06 1 42 C0.34 42 -0.32 42 -1 42 C-1.4021875 42.86625 -1.4021875 42.86625 -1.8125 43.75 C-3 46 -3 46 -4.6875 47.6875 C-6.77736211 51.36963801 -5.71731112 54.95540235 -5 59 C-7.85276981 56.56986275 -7.98452213 56.15993802 -8.375 52.125 C-8.21545113 48.35132244 -7.50613233 45.93822411 -5 43 C-3.35 42.34 -1.7 41.68 0 41 C0 27.47 0 13.94 0 0 Z " fill="#fefefe" transform="translate(23,26)"/>
<path d="M0 0 C-2.05938485 0.51484621 -4.10539426 1.02107885 -6.1875 1.4375 C-7.0846875 1.7159375 -7.0846875 1.7159375 -8 2 C-8.33 2.66 -8.66 3.32 -9 4 C-7.02 4 -5.04 4 -3 4 C-3 4.33 -3 4.66 -3 5 C-4.134375 5.309375 -5.26875 5.61875 -6.4375 5.9375 C-9.78775099 6.62924531 -9.78775099 6.62924531 -11 8 C-11.12281952 9.62579218 -11.17782504 11.25677004 -11.20532227 12.88696289 C-11.22526749 13.92796646 -11.24521271 14.96897003 -11.26576233 16.04151917 C-11.28247482 17.1737944 -11.29918732 18.30606964 -11.31640625 19.47265625 C-11.33718735 20.62543564 -11.35796844 21.77821503 -11.37937927 22.96592712 C-11.44499964 26.66472157 -11.50381755 30.36358959 -11.5625 34.0625 C-11.60567335 36.56315879 -11.64928724 39.06381001 -11.69335938 41.56445312 C-11.80069368 47.70955662 -11.90243643 53.85473404 -12 60 C-12.33 60 -12.66 60 -13 60 C-13 42.18 -13 24.36 -13 6 C-13.99 6.66 -14.98 7.32 -16 8 C-15.6655974 4.90677596 -15.4404882 3.41112232 -13.125 1.25 C-8.37756435 -1.54260921 -5.22995914 -0.77163332 0 0 Z " fill="#fefefe" transform="translate(32,5)"/>
<path d="M0 0 C3.1441597 4.71623956 2.79119275 9.48893323 2 15 C-0.23818179 20.05770949 -2.82147268 23.81601239 -8 26 C-9.08904794 22.73285619 -9.1550317 22.10970072 -8 19 C-7.319375 18.0925 -6.63875 17.185 -5.9375 16.25 C-3.13007154 11.54076517 -3.42285915 7.88570424 -4.5 2.5 C-4.665 2.005 -4.83 1.51 -5 1 C-4.34 1 -3.68 1 -3 1 C-2.34 4.63 -1.68 8.26 -1 12 C-0.67 12 -0.34 12 0 12 C0 8.04 0 4.08 0 0 Z " fill="#fefefe" transform="translate(43,69)"/>
<path d="M0 0 C0.99773438 0.02320313 1.99546875 0.04640625 3.0234375 0.0703125 C4.52777344 0.09738281 4.52777344 0.09738281 6.0625 0.125 C6.83335938 0.14820313 7.60421875 0.17140625 8.3984375 0.1953125 C8.78062517 1.85145907 9.11238852 3.51988274 9.3984375 5.1953125 C8.3984375 6.1953125 8.3984375 6.1953125 5.89453125 6.29296875 C4.38052734 6.27556641 4.38052734 6.27556641 2.8359375 6.2578125 C1.82402344 6.24878906 0.81210937 6.23976563 -0.23046875 6.23046875 C-1.01292969 6.21886719 -1.79539063 6.20726562 -2.6015625 6.1953125 C-3.2615625 4.8753125 -3.9215625 3.5553125 -4.6015625 2.1953125 C-2.6015625 0.1953125 -2.6015625 0.1953125 0 0 Z " fill="#fefefe" transform="translate(43.6015625,55.8046875)"/>
<path d="M0 0 C1.79244141 0.01740234 1.79244141 0.01740234 3.62109375 0.03515625 C5.41740234 0.04869141 5.41740234 0.04869141 7.25 0.0625 C8.17683594 0.07410156 9.10367188 0.08570313 10.05859375 0.09765625 C9.72859375 1.74765625 9.39859375 3.39765625 9.05859375 5.09765625 C5.09859375 5.09765625 1.13859375 5.09765625 -2.94140625 5.09765625 C-3.27140625 3.77765625 -3.60140625 2.45765625 -3.94140625 1.09765625 C-2.94140625 0.09765625 -2.94140625 0.09765625 0 0 Z " fill="#fefefe" transform="translate(42.94140625,37.90234375)"/>
<path d="M0 0 C1.65322266 0.01740234 1.65322266 0.01740234 3.33984375 0.03515625 C4.99693359 0.04869141 4.99693359 0.04869141 6.6875 0.0625 C7.54214844 0.07410156 8.39679687 0.08570312 9.27734375 0.09765625 C9.83984375 2.03515625 9.83984375 2.03515625 10.27734375 4.09765625 C9.27734375 5.09765625 9.27734375 5.09765625 6.5546875 5.1953125 C4.90146484 5.17791016 4.90146484 5.17791016 3.21484375 5.16015625 C1.55775391 5.14662109 1.55775391 5.14662109 -0.1328125 5.1328125 C-0.98746094 5.12121094 -1.84210937 5.10960937 -2.72265625 5.09765625 C-3.28515625 3.16015625 -3.28515625 3.16015625 -3.72265625 1.09765625 C-2.72265625 0.09765625 -2.72265625 0.09765625 0 0 Z " fill="#fefefe" transform="translate(42.72265625,18.90234375)"/>
<path d="M0 0 C1.23556641 0.01740234 1.23556641 0.01740234 2.49609375 0.03515625 C3.32238281 0.04417969 4.14867187 0.05320313 5 0.0625 C5.63808594 0.07410156 6.27617188 0.08570313 6.93359375 0.09765625 C7.26359375 1.74765625 7.59359375 3.39765625 7.93359375 5.09765625 C4.63359375 5.09765625 1.33359375 5.09765625 -2.06640625 5.09765625 C-2.39640625 3.77765625 -2.72640625 2.45765625 -3.06640625 1.09765625 C-2.06640625 0.09765625 -2.06640625 0.09765625 0 0 Z " fill="#fefefe" transform="translate(42.06640625,46.90234375)"/>
<path d="M0 0 C2.97 0 5.94 0 9 0 C9.33 1.65 9.66 3.3 10 5 C6.7 5 3.4 5 0 5 C-0.33 4.01 -0.66 3.02 -1 2 C-0.67 1.34 -0.34 0.68 0 0 Z " fill="#fefefe" transform="translate(40,28)"/>
<path d="M0 0 C2.29000466 3.43500699 2.29748064 4.88728019 2.3125 8.9375 C2.32925781 9.97777344 2.34601562 11.01804687 2.36328125 12.08984375 C1.96272879 15.29857048 1.15199859 16.64358994 -1 19 C-3.16816982 15.74774526 -3.31995904 14.36574864 -3.5625 10.5625 C-3.78336104 7.24958441 -4.08553781 4.1968389 -5 1 C-4.34 1 -3.68 1 -3 1 C-2.34 4.63 -1.68 8.26 -1 12 C-0.67 12 -0.34 12 0 12 C0 8.04 0 4.08 0 0 Z " fill="#fefefe" transform="translate(43,69)"/>
<path d="M0 0 C3.3 0 6.6 0 10 0 C10 0.99 10 1.98 10 3 C6.37 3 2.74 3 -1 3 C-0.67 2.01 -0.34 1.02 0 0 Z " fill="#fefefe" transform="translate(42,57)"/>
<path d="M0 0 C2.64 0 5.28 0 8 0 C8 0.99 8 1.98 8 3 C5.36 3 2.72 3 0 3 C0 2.01 0 1.02 0 0 Z " fill="#fefefe" transform="translate(41,48)"/>
<path d="M0 0 C2.64 0 5.28 0 8 0 C8 0.99 8 1.98 8 3 C5.36 3 2.72 3 0 3 C0 2.01 0 1.02 0 0 Z " fill="#fefefe" transform="translate(41,29)"/>
<path d="M0 0 C3.3 0 6.6 0 10 0 C10 0.66 10 1.32 10 2 C6.7 2.33 3.4 2.66 0 3 C0 2.01 0 1.02 0 0 Z " fill="#fefefe" transform="translate(41,20)"/>
<path d="M0 0 C1.32 0.33 2.64 0.66 4 1 C0.535 3.97 0.535 3.97 -3 7 C-2.25 2.25 -2.25 2.25 0 0 Z " fill="#fefefe" transform="translate(19,6)"/>
</svg>