<?xml version="1.0" encoding="UTF-8"?>
<svg version="1.1" xmlns="http://www.w3.org/2000/svg" width="828" height="699">
<path d="M0 0 C0.33 0.66 0.66 1.32 1 2 C1.75539063 1.95359375 2.51078125 1.9071875 3.2890625 1.859375 C14.84804017 1.48039213 25.72952854 3.64313545 37 6 C38.65322266 6.3403125 38.65322266 6.3403125 40.33984375 6.6875 C53.99525649 9.8221715 67.44750271 14.66586483 80.25 20.3125 C81.40266357 20.81849731 81.40266357 20.81849731 82.57861328 21.3347168 C87.87053862 23.74107724 87.87053862 23.74107724 89 26 C90.66021812 26.68256723 92.32843628 27.34570881 94 28 C105.55926942 34.59014705 116.20945698 42.1621244 126.3359375 50.765625 C128.89614787 52.97323302 128.89614787 52.97323302 131.3515625 54.671875 C131.89554688 55.11015625 132.43953125 55.5484375 133 56 C133 56.66 133 57.32 133 58 C133.54527344 58.21140625 134.09054687 58.4228125 134.65234375 58.640625 C137.84951418 60.49189839 140.11132212 63.03615328 142.5625 65.75 C143.0877124 66.32709717 143.6129248 66.90419434 144.15405273 67.4987793 C175 101.80650729 175 101.80650729 175 112 C175.66 112.33 176.32 112.66 177 113 C177.95800781 114.69555664 177.95800781 114.69555664 178.953125 116.91015625 C179.32236084 117.72806641 179.69159668 118.54597656 180.07202148 119.38867188 C180.46075439 120.27103516 180.8494873 121.15339844 181.25 122.0625 C181.84953491 123.40731445 181.84953491 123.40731445 182.46118164 124.77929688 C185.51090865 131.69895888 188.25175385 138.69810242 190.80859375 145.8125 C192.22081633 149.59077419 193.76426187 152.6463928 196 156 C195.34 156 194.68 156 194 156 C194.24234375 156.8765625 194.4846875 157.753125 194.734375 158.65625 C199.53133148 176.81088528 202.59881936 195.2136789 203 214 C203.03996094 215.19882813 203.07992187 216.39765625 203.12109375 217.6328125 C204.18224905 274.43583164 181.59098888 343.39044533 143 386 C137.35861001 387.88046333 131.10947675 387.42578765 125.19140625 387.578125 C124.39017397 387.59945747 123.58894169 387.62078995 122.76342964 387.64276886 C94.84280576 388.35061111 66.89941157 387.99674024 38.97372687 387.79627085 C32.65340188 387.75216171 26.33307181 387.72410048 20.01264662 387.69905448 C13.84616499 387.67386991 7.67981766 387.63732835 1.51345164 387.59196877 C-2.13977123 387.56530668 -5.79287529 387.54323398 -9.44618416 387.53295135 C-13.48136455 387.52118671 -17.51600306 387.4858396 -21.55102539 387.44824219 C-22.74504974 387.44810623 -23.9390741 387.44797028 -25.16928101 387.4478302 C-26.2655632 387.43384689 -27.3618454 387.41986359 -28.49134827 387.40545654 C-29.44029496 387.39954876 -30.38924166 387.39364098 -31.36694431 387.38755417 C-36.10517741 386.69014317 -38.50753207 384.64927364 -41.35546875 380.89453125 C-45.44628551 373.89241923 -48.25896195 366.17944396 -51.3125 358.6875 C-51.98049927 357.06437468 -52.64928462 355.44157266 -53.31884766 353.8190918 C-54.627024 350.64728517 -55.93205052 347.47421872 -57.23388672 344.29980469 C-59.42458846 338.96104094 -61.64139039 333.63344731 -63.875 328.3125 C-64.18993408 327.55477295 -64.50486816 326.7970459 -64.8293457 326.01635742 C-66.03069041 322.77046172 -66.03069041 322.77046172 -68 320 C-78.25029331 354.84105956 -88.4121552 389.7067851 -98.48757172 424.59880447 C-102.89053917 439.84601572 -107.30093279 455.09108636 -111.76301765 470.32112122 C-112.18595621 471.76555475 -112.60818098 473.21019752 -113.02960014 474.65507507 C-120.80965262 501.31667058 -120.80965262 501.31667058 -125 506 C-129.28501794 508.14250897 -132.41983812 508.36430354 -137 507 C-141.51115293 504.05336823 -143.0005644 501.41812608 -144.75 496.375 C-144.98823486 495.70637939 -145.22646973 495.03775879 -145.47192383 494.34887695 C-146.33546544 491.90599512 -147.16983201 489.45442883 -148 487 C-149.15818327 483.57596285 -150.31729726 480.15230734 -151.48339844 476.73095703 C-152.27883407 474.39013126 -153.06483317 472.04607516 -153.84082031 469.69873047 C-154.38947754 468.07475342 -154.38947754 468.07475342 -154.94921875 466.41796875 C-155.27237061 465.44625732 -155.59552246 464.4745459 -155.9284668 463.47338867 C-156.79501437 460.97691799 -156.79501437 460.97691799 -158.56567383 459.66137695 C-160.53893663 457.37575084 -160.42803811 455.17343888 -160.69921875 452.25292969 C-161.23866149 448.21236345 -162.66282048 444.46116355 -164 440.625 C-164.30746658 439.72362305 -164.61493317 438.82224609 -164.93171692 437.89355469 C-165.94656751 434.92625529 -166.97296465 431.96310197 -168 429 C-168.71874308 426.90899161 -169.43707909 424.81784326 -170.1550293 422.7265625 C-176.99700907 402.84279286 -184.01505976 383.02078916 -191.08123779 363.21577454 C-193.21801398 357.21949607 -195.32454956 351.21346594 -197.41015625 345.19921875 C-198.1647311 343.03327212 -198.91993872 340.86754729 -199.67538452 338.7019043 C-200.13549217 337.37711538 -200.59263117 336.05129105 -201.04653931 334.72436523 C-201.65621022 332.94252133 -202.27699582 331.16449167 -202.8984375 329.38671875 C-203.23536621 328.40920654 -203.57229492 327.43169434 -203.91943359 326.42456055 C-205.00569876 323.98721319 -206.13595735 322.8399756 -208 321 C-208.1875 317.8125 -208.1875 317.8125 -208 315 C-208.99 314.67 -209.98 314.34 -211 314 C-211.12897675 314.72987122 -211.25795349 315.45974243 -211.39083862 316.21173096 C-211.96530183 318.84117867 -212.73454404 321.12384408 -213.74658203 323.61230469 C-214.10430695 324.49803162 -214.46203186 325.38375854 -214.83059692 326.29632568 C-215.21907806 327.24525696 -215.6075592 328.19418823 -216.0078125 329.171875 C-216.41152069 330.16769592 -216.81522888 331.16351685 -217.23117065 332.18951416 C-218.52500553 335.37802967 -219.82495166 338.56401357 -221.125 341.75 C-221.97695608 343.84749643 -222.82852248 345.94515119 -223.6796875 348.04296875 C-225.33734499 352.12768429 -227.00429716 356.20843552 -228.67675781 360.28710938 C-230.15525572 363.9002729 -231.59876165 367.52335217 -233.00292969 371.16601562 C-233.46371414 372.34118744 -233.46371414 372.34118744 -233.93380737 373.5401001 C-234.49264118 374.96819396 -235.0404712 376.40067109 -235.57424927 377.83831787 C-237.26982754 382.12537603 -239.13066442 384.49089575 -243 387 C-246.42571793 387.75276483 -249.80425169 387.44508409 -253.109375 386.21484375 C-256.43941143 384.07508894 -257.5790685 380.58321858 -259 377 C-259.35371498 375.33753959 -259.69595322 373.67225729 -260 372 C-260.66 371.67 -261.32 371.34 -262 371 C-262.68292236 368.79754639 -262.68292236 368.79754639 -263.32519531 365.86230469 C-265.06363903 358.49570034 -267.39996815 351.37666153 -269.796875 344.203125 C-270.26789435 342.7817986 -270.73842741 341.36031097 -271.20851135 339.93867493 C-272.20347964 336.93141868 -273.2006324 333.92490076 -274.19961548 330.91897583 C-276.82160062 323.02701617 -279.42613972 315.12929868 -282.02734375 307.23046875 C-282.41580255 306.05120221 -282.41580255 306.05120221 -282.81210899 304.84811211 C-287.43932063 290.79194098 -291.93329789 276.69813927 -296.3125 262.5625 C-296.60967926 261.60331665 -296.90685852 260.6441333 -297.21304321 259.65588379 C-298.35023456 255.98379583 -299.48722232 252.31164534 -300.62303162 248.63912964 C-303.32906066 239.90495676 -306.11971609 231.19867894 -308.9375 222.5 C-309.15217926 221.83727081 -309.36685852 221.17454163 -309.58804321 220.49172974 C-310.72210463 216.99342257 -311.85932576 213.49615629 -313 210 C-313.33 210 -313.66 210 -314 210 C-315.73917464 219.68632905 -317.47820248 229.37268445 -319.21705914 239.05907059 C-320.02509078 243.5602259 -320.83316702 248.06137319 -321.64135742 252.5625 C-328.33119498 289.74047762 -328.33119498 289.74047762 -334.92149353 326.93615723 C-335.77298672 331.78755173 -336.62864994 336.63820611 -337.48486328 341.48876953 C-337.91723163 343.94479327 -338.34751845 346.40118422 -338.77587891 348.85791016 C-339.4101078 352.49221801 -340.0519843 356.12510579 -340.6953125 359.7578125 C-340.88288116 360.84329376 -341.07044983 361.92877502 -341.26370239 363.04714966 C-344.65221533 382.03228879 -344.65221533 382.03228879 -350 386 C-352.73299643 387.36649822 -354.91245462 387.14045372 -357.97305298 387.15821838 C-359.24633957 387.1680072 -360.51962616 387.17779602 -361.83149719 387.18788147 C-363.25045739 387.19378605 -364.66941798 387.19959647 -366.08837891 387.20532227 C-367.57634251 387.21489812 -369.06430337 387.22490802 -370.55226135 387.23532104 C-374.59951703 387.26240794 -378.64678441 387.28339697 -382.69408083 387.30332303 C-386.92086208 387.32515928 -391.14760709 387.3525595 -395.37435913 387.37937927 C-403.38182293 387.42933815 -411.3893068 387.4742651 -419.39680994 387.51740164 C-428.51157982 387.56674674 -437.62631335 387.62167496 -446.7410481 387.67708123 C-465.49399833 387.79095031 -484.24698285 387.8977786 -503 388 C-500.65268653 391.15064403 -498.30128658 394.29821662 -495.94921875 397.4453125 C-495.29401245 398.32485596 -494.63880615 399.20439941 -493.96374512 400.1105957 C-487.58299753 408.64054425 -480.8700282 416.86181548 -474 425 C-473.47809082 425.62100586 -472.95618164 426.24201172 -472.41845703 426.88183594 C-464.52128707 436.26426495 -456.52526422 445.75749723 -447.65625 454.2421875 C-446 456 -446 456 -446 458 C-445.01 458.33 -444.02 458.66 -443 459 C-443 459.66 -443 460.32 -443 461 C-442.4225 461.2475 -441.845 461.495 -441.25 461.75 C-438.67060021 463.18299988 -436.93878408 464.78424676 -435 467 C-435 467.66 -435 468.32 -435 469 C-434.41444336 469.25885986 -433.82888672 469.51771973 -433.22558594 469.78442383 C-430.8311604 471.09221724 -429.28906671 472.49736101 -427.390625 474.44921875 C-426.38128906 475.47499023 -426.38128906 475.47499023 -425.3515625 476.52148438 C-424.65804687 477.23626953 -423.96453125 477.95105469 -423.25 478.6875 C-418.5906457 483.46643848 -413.88415245 488.0770326 -408.82177734 492.42993164 C-406.39256 494.52351201 -404.04294143 496.69905566 -401.6875 498.875 C-397.1362832 503.02963774 -392.44735865 506.9564247 -387.6484375 510.8203125 C-384.28361661 513.58958987 -381.07119525 516.5075691 -377.875 519.46875 C-375.97455039 521.20578677 -375.97455039 521.20578677 -373 522 C-372.40703125 522.7425 -371.8140625 523.485 -371.203125 524.25 C-368.71652584 527.35384008 -365.89811845 529.62151028 -362.75 532 C-361.49762708 532.9634534 -360.24636974 533.92835822 -358.99609375 534.89453125 C-358.34366699 535.39807129 -357.69124023 535.90161133 -357.01904297 536.42041016 C-353.57008019 539.1186918 -350.19666103 541.9087345 -346.8125 544.6875 C-341.55105657 548.99038339 -336.21810147 553.11822892 -330.6796875 557.0625 C-327.71314524 559.20740519 -324.82669251 561.43954971 -321.9375 563.6875 C-315.24849584 568.87848281 -308.38418438 573.81536139 -301.5078125 578.75390625 C-296.74350118 582.17691829 -292.01363059 585.6456739 -287.29736328 589.13452148 C-277.09306216 596.65591073 -266.55459964 603.6725201 -256 610.6875 C-254.51425433 611.67608509 -253.0285777 612.66477393 -251.54296875 613.65356445 C-249.34717105 615.1149703 -247.15129645 616.57625941 -244.95507812 618.03703308 C-241.11266919 620.59282144 -237.27270589 623.15215739 -233.4375 625.71875 C-224.33021439 631.81334476 -215.18728913 637.85102691 -205.95214844 643.75073242 C-204.5756885 644.63159104 -203.20439812 645.52055351 -201.83691406 646.4152832 C-201.13018555 646.8712085 -200.42345703 647.32713379 -199.6953125 647.796875 C-199.05867676 648.21163086 -198.42204102 648.62638672 -197.76611328 649.05371094 C-195.43911535 650.30052376 -193.58874236 650.40449099 -191 650 C-191 649.34 -191 648.68 -191 648 C-189.87851562 647.46375 -188.75703125 646.9275 -187.6015625 646.375 C-182.65219141 643.89489464 -178.02815338 640.99168404 -173.375 638 C-172.44349121 637.40405029 -171.51198242 636.80810059 -170.55224609 636.1940918 C-152.48498346 624.57732626 -134.58560321 612.64963589 -116.96386719 600.36767578 C-114.70039999 598.79135266 -112.4320054 597.22222002 -110.1640625 595.65234375 C-100.99751386 589.2899578 -91.95332708 582.80445976 -83.0625 576.0625 C-79.36641045 573.26309489 -75.62841973 570.52380285 -71.88452148 567.78881836 C-64.64850338 562.49915412 -57.5254863 557.11567228 -50.56445312 551.46875 C-45.92764225 547.71348104 -41.19832656 544.09622723 -36.4375 540.5 C-29.81990445 535.48592178 -23.4736965 530.23368063 -17.21484375 524.78125 C-13.40297183 521.46281322 -9.47537303 518.29211027 -5.546875 515.11328125 C-2.18993372 512.32784378 1.02516012 509.39980626 4.22265625 506.43359375 C6 505 6 505 8 505 C8.33 504.01 8.66 503.02 9 502 C10.65557029 500.52201683 12.37446586 499.11417647 14.125 497.75 C18.07933164 494.59673942 21.74366087 491.39938747 25.24291992 487.75512695 C26.8675259 486.13232685 28.53845493 484.66607452 30.296875 483.19140625 C36.34933669 477.92996623 41.95063794 472.19825522 47.60913086 466.52124023 C49.5579687 464.56704376 51.51209272 462.61824853 53.46679688 460.66992188 C61.773524 452.36918438 61.773524 452.36918438 69.61401367 443.63110352 C71.78706902 441.0737347 74.08771507 438.64306866 76.375 436.1875 C81.00043381 431.17523182 85.36484549 425.99867288 89.63964844 420.68261719 C92.550038 417.08275989 95.4964601 413.51231698 98.4375 409.9375 C99.36139526 408.81081909 99.36139526 408.81081909 100.30395508 407.66137695 C100.88298584 406.957146 101.4620166 406.25291504 102.05859375 405.52734375 C102.83674438 404.57976196 102.83674438 404.57976196 103.63061523 403.61303711 C106.53209633 400.19530033 108.44391524 399.43208212 112.96875 398.96484375 C116.00284932 399.01735701 117.66729597 400.13383678 120 402 C120.5775 402.4125 121.155 402.825 121.75 403.25 C123.8303721 406.16252094 123.94177158 408.44806668 124 412 C121.64537187 418.42171309 117.64580669 423.11298452 113.25390625 428.30078125 C110.74093962 431.31024389 108.44602407 434.43143587 106.19140625 437.63671875 C105.79824219 438.08660156 105.40507813 438.53648437 105 439 C104.34 439 103.68 439 103 439 C102.75636719 439.56203125 102.51273438 440.1240625 102.26171875 440.703125 C100.75819064 443.44019785 98.93300252 445.45795941 96.8125 447.75 C94.10707511 450.69942682 91.41822494 453.64970332 88.8125 456.6875 C79.80161427 466.98858073 70.28536377 476.81019207 60.625 486.5 C59.79331299 487.3362793 58.96162598 488.17255859 58.10473633 489.03417969 C53.82138863 493.3068158 49.46743165 497.42461215 44.88037109 501.36914062 C41.84661085 504.00034271 38.92911779 506.75356372 36 509.5 C28.57605934 516.42117082 20.9572856 523.06082517 13.19677734 529.60205078 C10.29734337 532.0473865 7.40932429 534.50421444 4.54296875 536.98828125 C-1.72765363 542.41905662 -8.06918051 547.7067283 -14.62231445 552.79394531 C-18.34713397 555.68822727 -22.01737201 558.63848154 -25.66040039 561.63500977 C-33.94096294 568.44200881 -42.44634264 574.90458355 -51.046875 581.30078125 C-54.92375095 584.18588075 -58.76425157 587.1138164 -62.58911133 590.06738281 C-71.54335134 596.98074369 -80.70459856 603.55436984 -90 610 C-91.07378906 610.74507812 -92.14757812 611.49015625 -93.25390625 612.2578125 C-95.30867868 613.68014539 -97.3646882 615.10069262 -99.421875 616.51953125 C-102.23275433 618.46282501 -105.03163605 620.42277645 -107.828125 622.38671875 C-108.69139404 622.99273926 -109.55466309 623.59875977 -110.4440918 624.22314453 C-112.12868617 625.406523 -113.8125066 626.5910044 -115.49536133 627.77685547 C-121.92612353 632.29288765 -128.44662281 636.66422444 -135 641 C-135.98009033 641.64976807 -136.96018066 642.29953613 -137.9699707 642.96899414 C-188.47905301 676.38613787 -188.47905301 676.38613787 -198 675 C-208.15297252 671.406704 -217.36139628 664.49124979 -226.35693359 658.69580078 C-229.07974328 656.94883643 -231.81351115 655.22030205 -234.55078125 653.49609375 C-244.95378652 646.93516894 -255.20006948 640.21110448 -265.29052734 633.18017578 C-267.8151664 631.43723017 -270.37594324 629.75056244 -272.9375 628.0625 C-279.99892717 623.37714765 -286.8941987 618.46139002 -293.80322266 613.55566406 C-295.93083425 612.04898023 -298.06382383 610.5503143 -300.19921875 609.0546875 C-301.59127603 608.0783106 -302.98320314 607.10174809 -304.375 606.125 C-305.06198975 605.64345459 -305.74897949 605.16190918 -306.45678711 604.66577148 C-310.39035457 601.89269048 -314.27153663 599.0619473 -318.1171875 596.16796875 C-319.40036865 595.20576416 -319.40036865 595.20576416 -320.70947266 594.22412109 C-322.36864511 592.97567594 -324.02225235 591.71979048 -325.66943359 590.45556641 C-326.42305176 589.8888623 -327.17666992 589.3221582 -327.953125 588.73828125 C-328.61473633 588.23337158 -329.27634766 587.72846191 -329.95800781 587.20825195 C-332.29477583 585.82558039 -334.32880179 585.39092829 -337 585 C-337 584.01 -337 583.02 -337 582 C-339.29103552 580.08064844 -341.56764875 578.34894013 -344 576.625 C-345.48116231 575.54570215 -346.96027321 574.46358439 -348.4375 573.37890625 C-349.19804687 572.82090332 -349.95859375 572.26290039 -350.7421875 571.68798828 C-354.23906462 569.07364914 -357.62413108 566.33041043 -361 563.5625 C-361.65726074 563.02391357 -362.31452148 562.48532715 -362.99169922 561.93041992 C-364.32542557 560.83612626 -365.65859643 559.7411552 -366.99121094 558.64550781 C-369.01035185 556.99152024 -371.03855202 555.34939121 -373.0703125 553.7109375 C-380.37047315 547.82017912 -387.58961325 541.85827335 -394.66064453 535.69311523 C-397.63530427 533.06693057 -397.63530427 533.06693057 -401 531 C-401 530.34 -401 529.68 -401 529 C-401.55300781 528.76667969 -402.10601562 528.53335938 -402.67578125 528.29296875 C-405.60462669 526.66364465 -407.74867688 524.6105541 -410.1875 522.3125 C-414.33697844 518.46772292 -418.58021243 514.92991392 -423.08203125 511.51171875 C-425.5951105 509.53094142 -427.767696 507.28954256 -430 505 C-432.12694434 503.1649108 -434.26804331 501.34956093 -436.42578125 499.55078125 C-436.94527344 499.03902344 -437.46476563 498.52726562 -438 498 C-438 497.34 -438 496.68 -438 496 C-438.89075226 495.59624146 -438.89075226 495.59624146 -439.79949951 495.18432617 C-442.00202434 493.99891049 -443.44449593 492.80893868 -445.20800781 491.05078125 C-445.80832825 490.45676514 -446.40864868 489.86274902 -447.02716064 489.25073242 C-447.66272888 488.61111572 -448.29829712 487.97149902 -448.953125 487.3125 C-449.61334656 486.65419189 -450.27356812 485.99588379 -450.95379639 485.31762695 C-452.34470501 483.92807708 -453.73310008 482.53600726 -455.11914062 481.14160156 C-457.24909741 479.00090714 -459.38954496 476.8711209 -461.53125 474.7421875 C-462.88085039 473.39126613 -464.22983059 472.03972482 -465.578125 470.6875 C-466.22179016 470.0478833 -466.86545532 469.4082666 -467.52862549 468.74926758 C-472 464.22992911 -472 464.22992911 -472 462 C-472.66 462 -473.32 462 -474 462 C-475.37212301 460.46804728 -476.6715446 458.87078919 -477.9375 457.25 C-481.33880175 452.99017032 -484.84280723 448.92057955 -488.5625 444.9375 C-493.31356058 439.8155932 -497.71544842 434.51608362 -502 429 C-503.037044 427.69213995 -504.0748719 426.38490127 -505.11328125 425.078125 C-511.46891354 417.04152296 -517.61306387 408.88710605 -523.5 400.5 C-524.06283691 399.70029785 -524.62567383 398.9005957 -525.20556641 398.07666016 C-528.02654602 394.01629934 -530.74979001 389.90175716 -533.3671875 385.70703125 C-533.85815918 384.92046143 -534.34913086 384.1338916 -534.85498047 383.32348633 C-536.71350835 379.55214094 -536.9415233 376.07188709 -536 372 C-533.63632844 367.88546061 -531.48719044 366.31746316 -527 365 C-523.4982154 364.7207918 -520.00909366 364.75793282 -516.49804688 364.78881836 C-515.43818573 364.7901326 -514.37832458 364.79144684 -513.28634644 364.7928009 C-509.76372497 364.7993121 -506.24131828 364.81980344 -502.71875 364.83984375 C-500.23295324 364.84612907 -497.74715363 364.85136417 -495.26135254 364.85560608 C-488.67634725 364.86894132 -482.09142532 364.8933051 -475.50646973 364.92095947 C-463.86893531 364.96969553 -452.23135794 365.00255511 -440.59375 365.02734375 C-439.33723633 365.0303587 -438.08072266 365.03337364 -436.78613281 365.03647995 C-413.17934041 365.08509498 -389.59603119 364.69050753 -366 364 C-360.72441231 335.81383797 -355.54569264 307.61435856 -350.5625 279.375 C-345.36469739 249.94969661 -340.09172601 220.54006932 -334.59240723 191.16937256 C-334.03207444 188.17159792 -333.47605996 185.17305225 -332.92089844 182.17431641 C-332.14992328 178.0232813 -331.35888257 173.87669766 -330.54675293 169.73352051 C-330.27079118 168.31297644 -330.00108501 166.89119926 -329.73840332 165.46813965 C-327.61765795 154.03233664 -327.61765795 154.03233664 -324.58203125 150.72265625 C-322.0753391 149.05026406 -320.53379041 148.20337791 -317.5625 147.875 C-316.84191406 147.76929688 -316.12132812 147.66359375 -315.37890625 147.5546875 C-311.77899298 148.22856289 -309.44857095 150.40063194 -307 153 C-305.35644531 156.21264648 -305.35644531 156.21264648 -304.078125 159.93359375 C-303.71560638 160.96775673 -303.71560638 160.96775673 -303.34576416 162.02281189 C-302.54153141 164.34157457 -301.76891645 166.66930253 -301 169 C-300.42773608 170.70459042 -299.8554704 172.40918024 -299.28320312 174.11376953 C-297.40465318 179.75237594 -295.57579615 185.40663674 -293.75 191.0625 C-293.0817293 193.12435436 -292.41318751 195.18612089 -291.74438477 197.24780273 C-290.42338056 201.32208565 -289.10453482 205.39705699 -287.78759766 209.47265625 C-286.29590646 214.08807686 -284.79643023 218.70090322 -283.29296875 223.3125 C-278.08903889 239.30855048 -273.07410599 255.35961031 -268.09277344 271.42611694 C-264.2673645 283.76194691 -260.41009715 296.08570438 -256.4375 308.375 C-255.86612305 310.14327148 -255.86612305 310.14327148 -255.28320312 311.94726562 C-254.19515951 315.30029523 -253.09907611 318.65057155 -252 322 C-251.78208801 322.66825806 -251.56417603 323.33651611 -251.33966064 324.02502441 C-250.65791279 326.11406322 -249.97199481 328.20169259 -249.28515625 330.2890625 C-249.07217392 330.9436142 -248.85919159 331.59816589 -248.63975525 332.27255249 C-247.76832937 335.38609858 -247.76832937 335.38609858 -246 338 C-242.49253849 331.54378766 -239.75570749 324.94621945 -237.24731445 318.05810547 C-235.29142143 312.69958154 -233.1070668 307.4696851 -230.78515625 302.2578125 C-230.52605469 301.51273437 -230.26695312 300.76765625 -230 300 C-230.33 299.34 -230.66 298.68 -231 298 C-230.01 298 -229.02 298 -228 298 C-227.91105469 297.3709375 -227.82210938 296.741875 -227.73046875 296.09375 C-226.69488071 291.70773006 -225.02364605 287.66155818 -223.3125 283.5 C-222.98572266 282.65824219 -222.65894531 281.81648438 -222.32226562 280.94921875 C-220.06846069 275.4763081 -217.98337492 272.27384631 -213 269 C-207.7956194 268.25651706 -204.41221498 269.19222683 -200 272 C-197.69144588 274.70716907 -196.32622385 277.2987614 -195.08984375 280.62109375 C-194.74550293 281.53995361 -194.40116211 282.45881348 -194.04638672 283.40551758 C-193.6804541 284.40607178 -193.31452148 285.40662598 -192.9375 286.4375 C-192.54320801 287.50315186 -192.14891602 288.56880371 -191.74267578 289.66674805 C-187.96561167 299.94908675 -184.4027609 310.30331358 -180.859375 320.66796875 C-177.81285378 329.57894442 -174.7016742 338.46717311 -171.59286499 347.35656738 C-166.65599872 361.47773279 -161.73066474 375.60299807 -156.86029053 389.74725342 C-156.33144472 391.28200271 -155.8015494 392.81639079 -155.27056885 394.35040283 C-154.54325111 396.45263094 -153.81987047 398.55617035 -153.09765625 400.66015625 C-152.69039307 401.84230713 -152.28312988 403.02445801 -151.86352539 404.24243164 C-151 407 -151 407 -151 409 C-150.01 409.33 -149.02 409.66 -148 410 C-148.66 410 -149.32 410 -150 410 C-147.90200569 416.0328708 -145.80221025 422.0651125 -143.70117188 428.09692383 C-142.9868912 430.14821219 -142.2730203 432.19964328 -141.55957031 434.2512207 C-140.53298362 437.20301489 -139.50491599 440.15428969 -138.4765625 443.10546875 C-138.15877838 444.02023483 -137.84099426 444.93500092 -137.51358032 445.87748718 C-136.09123974 449.95512599 -134.65938283 454.01095961 -133 458 C-132.87882812 457.36191406 -132.75765625 456.72382813 -132.6328125 456.06640625 C-132.46523438 455.24011719 -132.29765625 454.41382813 -132.125 453.5625 C-131.96257812 452.73878906 -131.80015625 451.91507812 -131.6328125 451.06640625 C-131.42398437 450.38449219 -131.21515625 449.70257813 -131 449 C-130.34 448.67 -129.68 448.34 -129 448 C-128.78011768 446.44806894 -128.56885634 444.89470663 -128.38519287 443.33807373 C-127.50957512 438.02318083 -125.73492877 432.87912327 -124.1953125 427.7265625 C-123.79980946 426.38972134 -123.40477152 425.0527425 -123.01016235 423.71563721 C-122.16347876 420.84993889 -121.31383371 417.98514247 -120.46179199 415.12103271 C-119.11081532 410.57962314 -117.76613278 406.03636672 -116.42285156 401.49267578 C-115.96325739 399.93820174 -115.50366266 398.38372786 -115.04406738 396.82925415 C-114.69980461 395.66478697 -114.69980461 395.66478697 -114.34858704 394.4767952 C-113.64363687 392.0931426 -112.93803269 389.70968439 -112.2322998 387.32626343 C-109.040116 376.54205859 -105.87370235 365.75055641 -102.7265625 354.953125 C-102.51516254 354.22810665 -102.30376259 353.5030883 -102.08595657 352.7560997 C-100.24992865 346.45914673 -98.41472633 340.16195424 -96.58355713 333.86358643 C-94.42150619 326.42858271 -92.24893608 318.99681206 -90.05493164 311.57116699 C-89.33761361 309.14289355 -88.62269518 306.71391024 -87.90991211 304.28430176 C-86.85179736 300.6888179 -85.77953375 297.09785623 -84.703125 293.5078125 C-84.38873474 292.43280487 -84.07434448 291.35779724 -83.75042725 290.25021362 C-79.99716992 277.8661624 -79.99716992 277.8661624 -73.6875 273.9375 C-68.96240397 272.7362044 -67.15643011 273.5688805 -63 276 C-59.57785378 278.94257068 -58.01328865 281.70742641 -56.328125 285.87109375 C-55.83642822 287.06734375 -55.34473145 288.26359375 -54.83813477 289.49609375 C-54.45106857 290.45684814 -54.45106857 290.45684814 -54.05618286 291.43701172 C-52.65540558 294.91294586 -51.22174369 298.37534708 -49.79296875 301.83984375 C-49.49120224 302.57411591 -49.18943573 303.30838806 -48.87852478 304.06491089 C-44.90445284 313.70873829 -40.72056814 323.26252275 -36.54919434 332.82223511 C-24 361.59168411 -24 361.59168411 -24 365 C27.15 365 78.3 365 131 365 C131.66 363.35 132.32 361.7 133 360 C134.4289866 357.68287831 135.88576421 355.40236467 137.375 353.125 C160.8173987 316.33960078 175.5525563 274.75020691 178.81054688 231.22607422 C179.10193705 227.8022397 179.54743056 224.40597516 180 221 C179.34 221 178.68 221 178 221 C178.33 220.34 178.66 219.68 179 219 C179.09715342 216.66831782 179.12978217 214.33370043 179.125 212 C179.12886719 210.1128125 179.12886719 210.1128125 179.1328125 208.1875 C179.22227358 205.10322182 179.22227358 205.10322182 178 203 C177.89146017 200.77191841 177.81416693 198.54230068 177.75 196.3125 C176.01982857 162.11107027 160.60933327 125.47143326 139 99 C138.34 98.67 137.68 98.34 137 98 C136.484375 97.01 135.96875 96.02 135.4375 95 C133.0225978 90.53104306 129.50559485 87.36411388 125.828125 83.91796875 C124 82 124 82 124 80 C123.01 79.67 122.02 79.34 121 79 C118.74482311 76.87011072 116.61199905 74.64609179 114.47924805 72.39453125 C110.32170534 68.10635621 105.96601181 64.52471476 101.0625 61.125 C100.32596191 60.61106689 99.58942383 60.09713379 98.83056641 59.56762695 C91.49192126 54.52612655 83.89933151 50.09775286 76 46 C74.84757813 45.39671875 73.69515625 44.7934375 72.5078125 44.171875 C58.85680679 37.42237997 40.81832026 29 25.375 29 C23 29 23 29 19.6875 28 C15.5273968 26.87183642 12.28429686 26.84967379 8 27 C8 26.34 8 25.68 8 25 C6.91203125 25.08378906 5.8240625 25.16757812 4.703125 25.25390625 C-3.98802137 25.87335733 -12.31860832 26.08726485 -21 25 C-21 25.66 -21 26.32 -21 27 C-21.71671875 26.83242188 -22.4334375 26.66484375 -23.171875 26.4921875 C-32.48228329 24.87186782 -42.43368176 27.52478434 -51.5625 29.3125 C-52.60245117 29.51311035 -53.64240234 29.7137207 -54.71386719 29.92041016 C-62.02507744 31.40589527 -68.97613183 33.49621536 -76 36 C-77.10472656 36.38542969 -78.20945312 36.77085938 -79.34765625 37.16796875 C-93.14855036 42.35075057 -106.94936755 48.44015168 -119 57 C-119.97066406 57.68707031 -120.94132812 58.37414062 -121.94140625 59.08203125 C-128.17120643 63.62509115 -133.90500112 68.47210512 -139.52734375 73.73828125 C-142 76 -142 76 -144.5546875 77.98046875 C-147.15203742 80.12556445 -149.09585556 82.3628798 -151.1875 85 C-153.55194293 87.96630113 -155.91491838 90.90309767 -158.41796875 93.75390625 C-166.73326726 103.2589931 -172.99375083 113.90188483 -179.19140625 124.8671875 C-185.51374412 135.77971587 -185.51374412 135.77971587 -190.91796875 138.59375 C-194.40382559 139.27391719 -196.84733069 138.02844621 -199.921875 136.44140625 C-205.519843 132.55860514 -207.9343963 127.66608707 -211 121.75 C-217.30937409 109.91844288 -224.92540451 99.42996098 -233.88745117 89.47387695 C-235 88 -235 88 -235 86 C-235.66 86 -236.32 86 -237 86 C-238.515625 84.42578125 -238.515625 84.42578125 -240.25 82.3125 C-242.50075728 79.64650867 -244.70049545 77.28989909 -247.4375 75.125 C-248.283125 74.42375 -249.12875 73.7225 -250 73 C-250 72.34 -250 71.68 -250 71 C-250.59047119 70.72397949 -251.18094238 70.44795898 -251.78930664 70.16357422 C-253.88851789 69.05867739 -255.54285821 67.88375663 -257.37109375 66.3828125 C-299.7287084 32.36035611 -351.06629569 21.85096159 -404.421875 26.47265625 C-436.51329021 30.07534443 -473.8990445 44.60184794 -496.94140625 67.96875 C-500.01674756 71.00324237 -503.44600696 73.54961008 -506.85546875 76.1953125 C-509.07623502 77.82213654 -509.07623502 77.82213654 -510 80 C-510.66 80 -511.32 80 -512 80 C-512.22945312 80.55300781 -512.45890625 81.10601562 -512.6953125 81.67578125 C-514.36424405 84.64887788 -516.49619322 86.74318984 -518.875 89.1875 C-554.34160197 126.9154152 -568.70330314 180.083043 -567.14794922 230.80615234 C-565.61991081 263.79261847 -556.31618509 299.6109348 -539.4375 328.25 C-537.53756182 331.5994823 -537.0050521 332.84591107 -536.875 336.8125 C-539.12820513 343.1965812 -539.12820513 343.1965812 -542 346 C-546.73947719 346.89093408 -551.04405457 346.77097849 -555.546875 344.99609375 C-559.12217893 342.08688944 -560.7727233 338.58077385 -562.8125 334.5 C-563.460979 333.22684937 -563.460979 333.22684937 -564.12255859 331.92797852 C-575.42702952 309.40849051 -583.22117429 285.9652629 -587.45385742 261.09936523 C-587.63150635 260.06626221 -587.80915527 259.03315918 -587.9921875 257.96875 C-588.14026855 257.05544922 -588.28834961 256.14214844 -588.44091797 255.20117188 C-588.84840119 252.81075034 -588.84840119 252.81075034 -591 251 C-590.71888831 249.32373477 -590.37641325 247.65746854 -590 246 C-589.98499993 244.16628372 -590.02911148 242.33146927 -590.12109375 240.5 C-590.16967529 239.45481201 -590.21825684 238.40962402 -590.26831055 237.33276367 C-590.32414307 236.23295166 -590.37997559 235.13313965 -590.4375 234 C-590.53797457 231.72532688 -590.63695116 229.45058707 -590.734375 227.17578125 C-590.78142578 226.09506348 -590.82847656 225.0143457 -590.87695312 223.90087891 C-591.99760515 197.4810626 -587.51747906 170.98082886 -579 146 C-578.61569824 144.87198975 -578.61569824 144.87198975 -578.22363281 143.72119141 C-569.14906418 117.68731288 -554.50678018 93.40139121 -536 73 C-535.13117188 72.01128906 -534.26234375 71.02257812 -533.3671875 70.00390625 C-497.97712663 30.04487365 -448.21820634 5.15781449 -394.88085938 1.37109375 C-391.25487393 1.17090577 -387.63029621 1.07858138 -384 1 C-383.27635254 0.97421875 -382.55270508 0.9484375 -381.80712891 0.921875 C-368.38209582 0.4505111 -355.34305206 1.93707963 -342.0390625 3.63623047 C-337.36854678 4.1952816 -332.68725562 4.60958931 -328 5 C-328 5.66 -328 6.32 -328 7 C-326.77667969 7.08507812 -325.55335938 7.17015625 -324.29296875 7.2578125 C-298.27508487 10.19212214 -272.92024008 25.05350512 -252 40 C-251.28602051 40.50660156 -250.57204102 41.01320312 -249.83642578 41.53515625 C-237.25638347 50.49267329 -237.25638347 50.49267329 -233 55 C-232.278125 55.721875 -231.55625 56.44375 -230.8125 57.1875 C-229.884375 58.115625 -228.95625 59.04375 -228 60 C-227.33871094 60.63808594 -226.67742187 61.27617188 -225.99609375 61.93359375 C-220.18422633 67.60395483 -215.01535245 73.61856107 -210 80 C-209.47792969 80.65484375 -208.95585937 81.3096875 -208.41796875 81.984375 C-204.61338907 86.88945293 -201.300054 92.10046929 -197.98242188 97.34106445 C-196.19548163 100.32666364 -196.19548163 100.32666364 -194 103 C-193.43345703 102.05253906 -193.43345703 102.05253906 -192.85546875 101.0859375 C-188.18889732 93.50139284 -182.91844551 86.59535308 -177.33691406 79.67041016 C-176.07074752 78.08839564 -174.82760783 76.48803146 -173.5859375 74.88671875 C-172.87695312 73.97535156 -172.16796875 73.06398438 -171.4375 72.125 C-170.81746094 71.32320313 -170.19742187 70.52140625 -169.55859375 69.6953125 C-169.04425781 69.13585937 -168.52992188 68.57640625 -168 68 C-167.34 68 -166.68 68 -166 68 C-165.62875 67.14148438 -165.62875 67.14148438 -165.25 66.265625 C-163.80683801 63.64989389 -162.11783778 61.85226544 -160 59.75 C-159.29875 59.04359375 -158.5975 58.3371875 -157.875 57.609375 C-156 56 -156 56 -154 56 C-153.67 55.01 -153.34 54.02 -153 53 C-151.4609375 51.5625 -151.4609375 51.5625 -149.375 50 C-148.14910156 49.08154297 -148.14910156 49.08154297 -146.8984375 48.14453125 C-145.46371094 47.08298828 -145.46371094 47.08298828 -144 46 C-142.88736333 45.15060016 -141.77542094 44.30029034 -140.6640625 43.44921875 C-99.42276979 12.17064724 -51.01433501 1.11503377 0 0 Z M-207 318 C-206 320 -206 320 -206 320 Z " fill="#FEFEFE" transform="translate(608,11)"/>
<path d="M0 0 C0.33 0 0.66 0 1 0 C1 1.98 1 3.96 1 6 C0.67 6 0.34 6 0 6 C0 4.02 0 2.04 0 0 Z " fill="#FAFEFE" transform="translate(784,200)"/>
<path d="M0 0 C1.32 0.33 2.64 0.66 4 1 C2.68 1.33 1.36 1.66 0 2 C0 1.34 0 0.68 0 0 Z " fill="#F9FEFE" transform="translate(238,37)"/>
<path d="M0 0 C0.66 0.33 1.32 0.66 2 1 C1.01 1 0.02 1 -1 1 C-0.67 0.67 -0.34 0.34 0 0 Z " fill="#FAFEFE" transform="translate(258,397)"/>
<path d="M0 0 C0.33 0.99 0.66 1.98 1 3 C0.34 2.67 -0.32 2.34 -1 2 C-0.67 1.34 -0.34 0.68 0 0 Z " fill="#FBFEFF" transform="translate(778,172)"/>
<path d="M0 0 C0.99 0.33 1.98 0.66 3 1 C2.01 1.33 1.02 1.66 0 2 C0 1.34 0 0.68 0 0 Z " fill="#F9FDFE" transform="translate(50,170)"/>
<path d="M0 0 C0.66 0 1.32 0 2 0 C1.67 0.66 1.34 1.32 1 2 C0.67 1.34 0.34 0.68 0 0 Z " fill="#F5FCFE" transform="translate(166,508)"/>
<path d="M0 0 C0.33 0.66 0.66 1.32 1 2 C0.34 1.67 -0.32 1.34 -1 1 C-0.67 0.67 -0.34 0.34 0 0 Z " fill="#FAFEFE" transform="translate(459,498)"/>
<path d="M0 0 C0.66 0.66 1.32 1.32 2 2 C1.34 2 0.68 2 0 2 C0 1.34 0 0.68 0 0 Z " fill="#F8FEFD" transform="translate(72,394)"/>
<path d="M0 0 C0.66 0.66 1.32 1.32 2 2 C1.34 2 0.68 2 0 2 C0 1.34 0 0.68 0 0 Z " fill="#FCFEFE" transform="translate(744,361)"/>
<path d="M0 0 C0.33 0.66 0.66 1.32 1 2 C0.34 1.67 -0.32 1.34 -1 1 C-0.67 0.67 -0.34 0.34 0 0 Z " fill="#FBFEFE" transform="translate(779,283)"/>
<path d="" fill="#FCFFFF" transform="translate(0,0)"/>
<path d="" fill="#FCFEFF" transform="translate(0,0)"/>
<path d="" fill="#F6FEFC" transform="translate(0,0)"/>
<path d="" fill="#FBFFFE" transform="translate(0,0)"/>
<path d="M0 0 C0.33 0.66 0.66 1.32 1 2 C0.34 1.67 -0.32 1.34 -1 1 C-0.67 0.67 -0.34 0.34 0 0 Z " fill="#FBFEFF" transform="translate(690,61)"/>
<path d="M0 0 C3 1 3 1 3 1 Z " fill="#F7FCFD" transform="translate(258,12)"/>
<path d="" fill="#F3FAFB" transform="translate(0,0)"/>
<path d="M0 0 C2 1 2 1 2 1 Z " fill="#FEFFFF" transform="translate(411,659)"/>
<path d="" fill="#FDFFFF" transform="translate(0,0)"/>
<path d="" fill="#FAFFFE" transform="translate(0,0)"/>
<path d="" fill="#F7FEFD" transform="translate(0,0)"/>
<path d="M0 0 C2 1 2 1 2 1 Z " fill="#FAFFFF" transform="translate(272,563)"/>
<path d="M0 0 C2 1 2 1 2 1 Z " fill="#FEFEFF" transform="translate(639,491)"/>
<path d="" fill="#FBFCFE" transform="translate(0,0)"/>
<path d="" fill="#F5FCFC" transform="translate(0,0)"/>
<path d="M0 0 C2 1 2 1 2 1 Z " fill="#FAFDFE" transform="translate(430,421)"/>
<path d="" fill="#FAFCFD" transform="translate(0,0)"/>
<path d="M0 0 C2 1 2 1 2 1 Z " fill="#FAFEFE" transform="translate(254,399)"/>
<path d="" fill="#FAFEFE" transform="translate(0,0)"/>
<path d="" fill="#FBFEFE" transform="translate(0,0)"/>
<path d="" fill="#FDFFFF" transform="translate(0,0)"/>
<path d="" fill="#FBFEFF" transform="translate(0,0)"/>
<path d="" fill="#FDFFFF" transform="translate(0,0)"/>
<path d="" fill="#FCFFFF" transform="translate(0,0)"/>
<path d="" fill="#FBFDFC" transform="translate(0,0)"/>
<path d="" fill="#FCFFFE" transform="translate(0,0)"/>
<path d="" fill="#FDFEFF" transform="translate(0,0)"/>
<path d="M0 0 C2 1 2 1 2 1 Z " fill="#FBFFFE" transform="translate(572,339)"/>
<path d="" fill="#FDFEFF" transform="translate(0,0)"/>
<path d="M0 0 C2 1 2 1 2 1 Z " fill="#F7FDFD" transform="translate(794,326)"/>
<path d="" fill="#FDFEFF" transform="translate(0,0)"/>
<path d="" fill="#FDFDFD" transform="translate(0,0)"/>
<path d="" fill="#FBFEFF" transform="translate(0,0)"/>
<path d="" fill="#FEFFFE" transform="translate(0,0)"/>
<path d="" fill="#FCFFFF" transform="translate(0,0)"/>
<path d="" fill="#FEFFFF" transform="translate(0,0)"/>
<path d="M0 0 C2 1 2 1 2 1 Z " fill="#F7FDFD" transform="translate(531,284)"/>
<path d="" fill="#FBFDFE" transform="translate(0,0)"/>
<path d="" fill="#FCFEFF" transform="translate(0,0)"/>
<path d="" fill="#FDFEFF" transform="translate(0,0)"/>
<path d="" fill="#FBFDFC" transform="translate(0,0)"/>
<path d="" fill="#FCFEFF" transform="translate(0,0)"/>
<path d="" fill="#F8FDFE" transform="translate(0,0)"/>
<path d="" fill="#F6FBFC" transform="translate(0,0)"/>
<path d="" fill="#FDFFFE" transform="translate(0,0)"/>
<path d="" fill="#FCFEFF" transform="translate(0,0)"/>
<path d="" fill="#F5FDFD" transform="translate(0,0)"/>
<path d="" fill="#FBFEFF" transform="translate(0,0)"/>
<path d="" fill="#FCFDFE" transform="translate(0,0)"/>
<path d="" fill="#FAFFFF" transform="translate(0,0)"/>
<path d="" fill="#F7FCFC" transform="translate(0,0)"/>
<path d="" fill="#F5FDFE" transform="translate(0,0)"/>
<path d="" fill="#FBFFFE" transform="translate(0,0)"/>
<path d="M0 0 C2 1 2 1 2 1 Z " fill="#FBFFFF" transform="translate(750,117)"/>
<path d="" fill="#FCFEFF" transform="translate(0,0)"/>
<path d="" fill="#F6FEFC" transform="translate(0,0)"/>
<path d="M0 0 C2 1 2 1 2 1 Z " fill="#F8FCFE" transform="translate(366,93)"/>
<path d="M0 0 C2 1 2 1 2 1 Z " fill="#FAFEFF" transform="translate(106,83)"/>
<path d="" fill="#FCFFFF" transform="translate(0,0)"/>
<path d="M0 0 C2 1 2 1 2 1 Z " fill="#F8FDFC" transform="translate(563,39)"/>
<path d="M0 0 C2 1 2 1 2 1 Z " fill="#F7FDFE" transform="translate(527,21)"/>
<path d="" fill="#F9FDFE" transform="translate(0,0)"/>
<path d="" fill="#F9FEFD" transform="translate(0,0)"/>
<path d="M0 0 C2 1 2 1 2 1 Z " fill="#F9FEFD" transform="translate(623,11)"/>
<path d="" fill="#F0FAF6" transform="translate(0,0)"/>
<path d="" fill="#F3FCFB" transform="translate(0,0)"/>
<path d="" fill="#CDDEDD" transform="translate(0,0)"/>
<path d="" fill="#F6FCFE" transform="translate(0,0)"/>
<path d="" fill="#F0FBFC" transform="translate(0,0)"/>
<path d="" fill="#F2FDFA" transform="translate(0,0)"/>
<path d="" fill="#F2FBFA" transform="translate(0,0)"/>
<path d="" fill="#F8FAFB" transform="translate(0,0)"/>
<path d="" fill="#F4FCFD" transform="translate(0,0)"/>
<path d="" fill="#F7FDFC" transform="translate(0,0)"/>
<path d="" fill="#F4FCFE" transform="translate(0,0)"/>
<path d="" fill="#F6FCFD" transform="translate(0,0)"/>
<path d="" fill="#FEFFFF" transform="translate(0,0)"/>
<path d="" fill="#F4FDFD" transform="translate(0,0)"/>
<path d="" fill="#FBFCFD" transform="translate(0,0)"/>
<path d="" fill="#FBFFFF" transform="translate(0,0)"/>
<path d="" fill="#FBFEFF" transform="translate(0,0)"/>
<path d="" fill="#FAFFFD" transform="translate(0,0)"/>
<path d="" fill="#FCFEFE" transform="translate(0,0)"/>
<path d="" fill="#F5FBFE" transform="translate(0,0)"/>
<path d="" fill="#FCFEFF" transform="translate(0,0)"/>
<path d="" fill="#FCFFFF" transform="translate(0,0)"/>
<path d="" fill="#FDFFFF" transform="translate(0,0)"/>
<path d="" fill="#F7FCFE" transform="translate(0,0)"/>
<path d="" fill="#FBFFFF" transform="translate(0,0)"/>
<path d="" fill="#F5FEFD" transform="translate(0,0)"/>
<path d="" fill="#F2FAFB" transform="translate(0,0)"/>
<path d="" fill="#FBFFFE" transform="translate(0,0)"/>
<path d="" fill="#F8FFFE" transform="translate(0,0)"/>
<path d="" fill="#F4FDFC" transform="translate(0,0)"/>
<path d="" fill="#FAFEFD" transform="translate(0,0)"/>
<path d="" fill="#FAFFFC" transform="translate(0,0)"/>
<path d="" fill="#F3FCFF" transform="translate(0,0)"/>
<path d="" fill="#F6FCFB" transform="translate(0,0)"/>
<path d="" fill="#FAFEFF" transform="translate(0,0)"/>
<path d="" fill="#FBFFFF" transform="translate(0,0)"/>
<path d="" fill="#FAFFFE" transform="translate(0,0)"/>
<path d="" fill="#FCFFFE" transform="translate(0,0)"/>
<path d="" fill="#FBFFFF" transform="translate(0,0)"/>
<path d="" fill="#F8F9FB" transform="translate(0,0)"/>
<path d="" fill="#F6FCFD" transform="translate(0,0)"/>
<path d="" fill="#F6FCFC" transform="translate(0,0)"/>
<path d="" fill="#F7FDFF" transform="translate(0,0)"/>
<path d="" fill="#FBFEFF" transform="translate(0,0)"/>
<path d="" fill="#F9FDFF" transform="translate(0,0)"/>
<path d="" fill="#F9FDFD" transform="translate(0,0)"/>
<path d="" fill="#F8FEFD" transform="translate(0,0)"/>
<path d="" fill="#F7FBFE" transform="translate(0,0)"/>
<path d="" fill="#F7FAFD" transform="translate(0,0)"/>
<path d="" fill="#FAFFFE" transform="translate(0,0)"/>
<path d="" fill="#FAFFFE" transform="translate(0,0)"/>
<path d="" fill="#FAFFFC" transform="translate(0,0)"/>
<path d="" fill="#F9FFFD" transform="translate(0,0)"/>
<path d="" fill="#F5FDFC" transform="translate(0,0)"/>
<path d="" fill="#FBFFFF" transform="translate(0,0)"/>
<path d="" fill="#FAFEFC" transform="translate(0,0)"/>
<path d="" fill="#FBFFFC" transform="translate(0,0)"/>
<path d="" fill="#F9FEFF" transform="translate(0,0)"/>
<path d="" fill="#F9FFFF" transform="translate(0,0)"/>
<path d="" fill="#F9FFFE" transform="translate(0,0)"/>
<path d="" fill="#F8FFFD" transform="translate(0,0)"/>
<path d="" fill="#F4FDFB" transform="translate(0,0)"/>
<path d="" fill="#799594" transform="translate(0,0)"/>
<path d="" fill="#FAFCFD" transform="translate(0,0)"/>
<path d="" fill="#F8FFFF" transform="translate(0,0)"/>
<path d="" fill="#FEFFFF" transform="translate(0,0)"/>
<path d="" fill="#FBFEFF" transform="translate(0,0)"/>
<path d="" fill="#FCFEFF" transform="translate(0,0)"/>
<path d="" fill="#FBFFFF" transform="translate(0,0)"/>
<path d="" fill="#F8FCFC" transform="translate(0,0)"/>
<path d="" fill="#FAFDFD" transform="translate(0,0)"/>
<path d="" fill="#F7FDFF" transform="translate(0,0)"/>
<path d="" fill="#F7FCFF" transform="translate(0,0)"/>
<path d="" fill="#FBFFFF" transform="translate(0,0)"/>
<path d="" fill="#E7F4F4" transform="translate(0,0)"/>
<path d="" fill="#F7FFFE" transform="translate(0,0)"/>
<path d="" fill="#F8FCFC" transform="translate(0,0)"/>
<path d="" fill="#FAFFFD" transform="translate(0,0)"/>
<path d="" fill="#FAFEFF" transform="translate(0,0)"/>
<path d="" fill="#F3FEFC" transform="translate(0,0)"/>
<path d="" fill="#FCFFFF" transform="translate(0,0)"/>
<path d="" fill="#FDFFFF" transform="translate(0,0)"/>
<path d="" fill="#F7FCFF" transform="translate(0,0)"/>
<path d="" fill="#FAFFFF" transform="translate(0,0)"/>
<path d="" fill="#FAFEFF" transform="translate(0,0)"/>
<path d="" fill="#F7FDFE" transform="translate(0,0)"/>
<path d="" fill="#F7FCFC" transform="translate(0,0)"/>
<path d="" fill="#F6FDFD" transform="translate(0,0)"/>
<path d="" fill="#F7FCFC" transform="translate(0,0)"/>
<path d="" fill="#FAFFFF" transform="translate(0,0)"/>
<path d="" fill="#FAFFFF" transform="translate(0,0)"/>
<path d="" fill="#FBFFFF" transform="translate(0,0)"/>
<path d="" fill="#FAFFFF" transform="translate(0,0)"/>
<path d="" fill="#FCFFFF" transform="translate(0,0)"/>
<path d="" fill="#F6FDFC" transform="translate(0,0)"/>
<path d="" fill="#F8FEFF" transform="translate(0,0)"/>
<path d="" fill="#FBFEFD" transform="translate(0,0)"/>
<path d="" fill="#F9FDFC" transform="translate(0,0)"/>
<path d="" fill="#F9FFFF" transform="translate(0,0)"/>
<path d="" fill="#FCFFFF" transform="translate(0,0)"/>
<path d="" fill="#FBFFFF" transform="translate(0,0)"/>
<path d="" fill="#F6FDFE" transform="translate(0,0)"/>
<path d="" fill="#FCFDFD" transform="translate(0,0)"/>
<path d="" fill="#FBFFFC" transform="translate(0,0)"/>
<path d="" fill="#FBFFFE" transform="translate(0,0)"/>
<path d="" fill="#FDFFFF" transform="translate(0,0)"/>
<path d="" fill="#FAFEFE" transform="translate(0,0)"/>
<path d="" fill="#F8FFFD" transform="translate(0,0)"/>
<path d="" fill="#F7FBFD" transform="translate(0,0)"/>
<path d="" fill="#FAFFFF" transform="translate(0,0)"/>
<path d="" fill="#F7FFFE" transform="translate(0,0)"/>
<path d="" fill="#F7FDFD" transform="translate(0,0)"/>
<path d="" fill="#F8FEFF" transform="translate(0,0)"/>
<path d="" fill="#F9FEFE" transform="translate(0,0)"/>
<path d="" fill="#F9FEFE" transform="translate(0,0)"/>
<path d="" fill="#FAFFFD" transform="translate(0,0)"/>
<path d="" fill="#F7FEFD" transform="translate(0,0)"/>
<path d="" fill="#FAFFFF" transform="translate(0,0)"/>
<path d="" fill="#F9FFFE" transform="translate(0,0)"/>
<path d="" fill="#F9FDFD" transform="translate(0,0)"/>
<path d="" fill="#F7FEFD" transform="translate(0,0)"/>
<path d="" fill="#F8FDFE" transform="translate(0,0)"/>
<path d="" fill="#FCFFFF" transform="translate(0,0)"/>
<path d="" fill="#F6FAFA" transform="translate(0,0)"/>
<path d="" fill="#F9FEFF" transform="translate(0,0)"/>
<path d="" fill="#FCFFFF" transform="translate(0,0)"/>
<path d="" fill="#FBFEFE" transform="translate(0,0)"/>
<path d="" fill="#FDFFFE" transform="translate(0,0)"/>
<path d="" fill="#BCD1CF" transform="translate(0,0)"/>
<path d="" fill="#FFFFFE" transform="translate(0,0)"/>
<path d="" fill="#FDFEFF" transform="translate(0,0)"/>
<path d="" fill="#FAFEFF" transform="translate(0,0)"/>
<path d="" fill="#FDFFFF" transform="translate(0,0)"/>
<path d="" fill="#FCFFFD" transform="translate(0,0)"/>
<path d="" fill="#FBFCFE" transform="translate(0,0)"/>
<path d="" fill="#F9FFFF" transform="translate(0,0)"/>
<path d="" fill="#FAFFFF" transform="translate(0,0)"/>
<path d="" fill="#F9FDFE" transform="translate(0,0)"/>
<path d="" fill="#FBFFFF" transform="translate(0,0)"/>
<path d="" fill="#F9FCFF" transform="translate(0,0)"/>
<path d="" fill="#FDFEFF" transform="translate(0,0)"/>
<path d="" fill="#FDFFFF" transform="translate(0,0)"/>
<path d="" fill="#F9FEFE" transform="translate(0,0)"/>
<path d="" fill="#FCFEFF" transform="translate(0,0)"/>
<path d="" fill="#FBFEFF" transform="translate(0,0)"/>
<path d="" fill="#F6FFFE" transform="translate(0,0)"/>
<path d="" fill="#F9FFFE" transform="translate(0,0)"/>
<path d="" fill="#FCFEFE" transform="translate(0,0)"/>
<path d="" fill="#FEFFFF" transform="translate(0,0)"/>
<path d="" fill="#F5FDFB" transform="translate(0,0)"/>
<path d="" fill="#F9FDFF" transform="translate(0,0)"/>
<path d="" fill="#FBFFFF" transform="translate(0,0)"/>
<path d="" fill="#F9FEFF" transform="translate(0,0)"/>
<path d="" fill="#FCFFFF" transform="translate(0,0)"/>
<path d="" fill="#F8FDFD" transform="translate(0,0)"/>
<path d="" fill="#FDFDFE" transform="translate(0,0)"/>
<path d="" fill="#FAFDFF" transform="translate(0,0)"/>
<path d="" fill="#FDFFFF" transform="translate(0,0)"/>
<path d="" fill="#F7FCFC" transform="translate(0,0)"/>
<path d="" fill="#FCFFFF" transform="translate(0,0)"/>
<path d="" fill="#FFFFFF" transform="translate(0,0)"/>
<path d="" fill="#FDFFFE" transform="translate(0,0)"/>
<path d="" fill="#FCFEFF" transform="translate(0,0)"/>
<path d="" fill="#FEFEFF" transform="translate(0,0)"/>
<path d="" fill="#F5FEFE" transform="translate(0,0)"/>
<path d="" fill="#FDFFFF" transform="translate(0,0)"/>
<path d="" fill="#FFFFFF" transform="translate(0,0)"/>
<path d="" fill="#FDFEFD" transform="translate(0,0)"/>
<path d="" fill="#FBFEFF" transform="translate(0,0)"/>
<path d="" fill="#FEFDFF" transform="translate(0,0)"/>
<path d="" fill="#FAFDFE" transform="translate(0,0)"/>
<path d="" fill="#F6FAFC" transform="translate(0,0)"/>
<path d="" fill="#FEFFFF" transform="translate(0,0)"/>
<path d="" fill="#F9FEFF" transform="translate(0,0)"/>
<path d="" fill="#EBF7F4" transform="translate(0,0)"/>
<path d="" fill="#FDFFFE" transform="translate(0,0)"/>
<path d="" fill="#FBFFFF" transform="translate(0,0)"/>
<path d="" fill="#FAFFFF" transform="translate(0,0)"/>
<path d="" fill="#FEFFFE" transform="translate(0,0)"/>
<path d="" fill="#FBFEFF" transform="translate(0,0)"/>
<path d="" fill="#FBFFFF" transform="translate(0,0)"/>
<path d="" fill="#FCFFFF" transform="translate(0,0)"/>
<path d="" fill="#FEFDFF" transform="translate(0,0)"/>
<path d="" fill="#F6FEFC" transform="translate(0,0)"/>
<path d="" fill="#F6FAFC" transform="translate(0,0)"/>
<path d="" fill="#FCFFFF" transform="translate(0,0)"/>
<path d="" fill="#FEFFFF" transform="translate(0,0)"/>
<path d="" fill="#FDFFFF" transform="translate(0,0)"/>
<path d="" fill="#FBFFFF" transform="translate(0,0)"/>
<path d="" fill="#F6FCFB" transform="translate(0,0)"/>
<path d="" fill="#FBFFFF" transform="translate(0,0)"/>
<path d="" fill="#FEFFFF" transform="translate(0,0)"/>
<path d="" fill="#FCFEFE" transform="translate(0,0)"/>
<path d="" fill="#FCFFFF" transform="translate(0,0)"/>
<path d="" fill="#F9FAF9" transform="translate(0,0)"/>
<path d="" fill="#FEFFFE" transform="translate(0,0)"/>
<path d="" fill="#FEFFFF" transform="translate(0,0)"/>
<path d="" fill="#FBFCFD" transform="translate(0,0)"/>
<path d="" fill="#FCFFFF" transform="translate(0,0)"/>
<path d="" fill="#FCFFFF" transform="translate(0,0)"/>
<path d="" fill="#FEFFFF" transform="translate(0,0)"/>
<path d="" fill="#F8FFFF" transform="translate(0,0)"/>
<path d="" fill="#FCFFFF" transform="translate(0,0)"/>
<path d="" fill="#FCFCFF" transform="translate(0,0)"/>
<path d="" fill="#FBFFFF" transform="translate(0,0)"/>
<path d="" fill="#E6F3F1" transform="translate(0,0)"/>
<path d="" fill="#FDFFFF" transform="translate(0,0)"/>
<path d="" fill="#FCFDFF" transform="translate(0,0)"/>
<path d="" fill="#FCFFFF" transform="translate(0,0)"/>
<path d="" fill="#FCFEFF" transform="translate(0,0)"/>
<path d="" fill="#FDFEFF" transform="translate(0,0)"/>
<path d="" fill="#FCFFFD" transform="translate(0,0)"/>
<path d="" fill="#FBFFFF" transform="translate(0,0)"/>
<path d="" fill="#FDFFFF" transform="translate(0,0)"/>
<path d="" fill="#FCFFFF" transform="translate(0,0)"/>
<path d="" fill="#FDFEFD" transform="translate(0,0)"/>
<path d="" fill="#FFFFFF" transform="translate(0,0)"/>
<path d="" fill="#FAFFFF" transform="translate(0,0)"/>
<path d="" fill="#FCFFFF" transform="translate(0,0)"/>
<path d="" fill="#FBFFFD" transform="translate(0,0)"/>
<path d="" fill="#FBFFFE" transform="translate(0,0)"/>
<path d="" fill="#FCFFFF" transform="translate(0,0)"/>
<path d="" fill="#F7FEFE" transform="translate(0,0)"/>
<path d="" fill="#F6FEFE" transform="translate(0,0)"/>
<path d="" fill="#FCFEFF" transform="translate(0,0)"/>
<path d="" fill="#FFFFFF" transform="translate(0,0)"/>
<path d="" fill="#F7FDFF" transform="translate(0,0)"/>
<path d="" fill="#FCFEFD" transform="translate(0,0)"/>
<path d="" fill="#FCFEFF" transform="translate(0,0)"/>
<path d="" fill="#FDFEFF" transform="translate(0,0)"/>
<path d="" fill="#FCFFFF" transform="translate(0,0)"/>
<path d="" fill="#FFFFFF" transform="translate(0,0)"/>
<path d="" fill="#FEFFFF" transform="translate(0,0)"/>
<path d="" fill="#F8FBFB" transform="translate(0,0)"/>
<path d="" fill="#FCFFFF" transform="translate(0,0)"/>
<path d="" fill="#FBFFFD" transform="translate(0,0)"/>
<path d="" fill="#FDFEFF" transform="translate(0,0)"/>
<path d="" fill="#FDFFFF" transform="translate(0,0)"/>
<path d="" fill="#FFFEFF" transform="translate(0,0)"/>
<path d="" fill="#FFFFFF" transform="translate(0,0)"/>
<path d="" fill="#FAFFFE" transform="translate(0,0)"/>
<path d="" fill="#FCFFFF" transform="translate(0,0)"/>
<path d="" fill="#F9FCFF" transform="translate(0,0)"/>
<path d="" fill="#F9FDFF" transform="translate(0,0)"/>
<path d="" fill="#F9FBFE" transform="translate(0,0)"/>
<path d="" fill="#F8FDFE" transform="translate(0,0)"/>
<path d="" fill="#FBFFFD" transform="translate(0,0)"/>
<path d="" fill="#FEFFFF" transform="translate(0,0)"/>
<path d="" fill="#FFFFFF" transform="translate(0,0)"/>
<path d="" fill="#FAFFFF" transform="translate(0,0)"/>
<path d="" fill="#F8FEFF" transform="translate(0,0)"/>
<path d="" fill="#FEFFFF" transform="translate(0,0)"/>
<path d="" fill="#FFFFFF" transform="translate(0,0)"/>
<path d="" fill="#FDFFFF" transform="translate(0,0)"/>
<path d="" fill="#FEFDFE" transform="translate(0,0)"/>
<path d="" fill="#FCFFFF" transform="translate(0,0)"/>
<path d="" fill="#FCFFFF" transform="translate(0,0)"/>
<path d="" fill="#FDFEFF" transform="translate(0,0)"/>
<path d="" fill="#FDFEFF" transform="translate(0,0)"/>
<path d="" fill="#FBFFFF" transform="translate(0,0)"/>
<path d="" fill="#FEFFFF" transform="translate(0,0)"/>
<path d="" fill="#F6FCFD" transform="translate(0,0)"/>
<path d="" fill="#FEFFFF" transform="translate(0,0)"/>
<path d="" fill="#FCFFFE" transform="translate(0,0)"/>
<path d="" fill="#FEFFFF" transform="translate(0,0)"/>
<path d="" fill="#FCFCFF" transform="translate(0,0)"/>
<path d="" fill="#FAFCFE" transform="translate(0,0)"/>
<path d="" fill="#FEFFFF" transform="translate(0,0)"/>
<path d="" fill="#FCFEFF" transform="translate(0,0)"/>
<path d="" fill="#FDFFFF" transform="translate(0,0)"/>
<path d="" fill="#FAFFFF" transform="translate(0,0)"/>
<path d="" fill="#FDFEFE" transform="translate(0,0)"/>
<path d="" fill="#FEFFFF" transform="translate(0,0)"/>
<path d="" fill="#FDFEFF" transform="translate(0,0)"/>
<path d="" fill="#FEFFFF" transform="translate(0,0)"/>
<path d="" fill="#FDFFFF" transform="translate(0,0)"/>
<path d="" fill="#FCFEFF" transform="translate(0,0)"/>
<path d="" fill="#F7FCFD" transform="translate(0,0)"/>
<path d="" fill="#F7FCFD" transform="translate(0,0)"/>
<path d="" fill="#F2FBFD" transform="translate(0,0)"/>
<path d="" fill="#F5FBFB" transform="translate(0,0)"/>
<path d="" fill="#FCFFFF" transform="translate(0,0)"/>
<path d="" fill="#FAFFFF" transform="translate(0,0)"/>
<path d="" fill="#FEFFFF" transform="translate(0,0)"/>
<path d="" fill="#FBFFFF" transform="translate(0,0)"/>
<path d="" fill="#FBFEFF" transform="translate(0,0)"/>
<path d="" fill="#FCFFFF" transform="translate(0,0)"/>
<path d="" fill="#FEFEFF" transform="translate(0,0)"/>
<path d="" fill="#FAFFFE" transform="translate(0,0)"/>
<path d="" fill="#FCFFFF" transform="translate(0,0)"/>
<path d="" fill="#F9FEFD" transform="translate(0,0)"/>
<path d="" fill="#FBFDFD" transform="translate(0,0)"/>
<path d="" fill="#FAFEFE" transform="translate(0,0)"/>
<path d="" fill="#FCFFFF" transform="translate(0,0)"/>
<path d="" fill="#FAFDFF" transform="translate(0,0)"/>
<path d="" fill="#FDFFFF" transform="translate(0,0)"/>
<path d="" fill="#FBFFFE" transform="translate(0,0)"/>
<path d="" fill="#F1FDFC" transform="translate(0,0)"/>
<path d="" fill="#FBFFFF" transform="translate(0,0)"/>
<path d="" fill="#FEFFFF" transform="translate(0,0)"/>
<path d="" fill="#FAFFFE" transform="translate(0,0)"/>
<path d="" fill="#F7FEFE" transform="translate(0,0)"/>
<path d="" fill="#FEFFFE" transform="translate(0,0)"/>
<path d="" fill="#FDFDFD" transform="translate(0,0)"/>
<path d="" fill="#FBFFFF" transform="translate(0,0)"/>
<path d="" fill="#FAFEFC" transform="translate(0,0)"/>
<path d="" fill="#FAFDFE" transform="translate(0,0)"/>
<path d="" fill="#F9FFFF" transform="translate(0,0)"/>
<path d="" fill="#FCFFFF" transform="translate(0,0)"/>
<path d="" fill="#FDFFFF" transform="translate(0,0)"/>
<path d="" fill="#FBFFFE" transform="translate(0,0)"/>
<path d="" fill="#FEFFFF" transform="translate(0,0)"/>
<path d="" fill="#FCFFFF" transform="translate(0,0)"/>
<path d="" fill="#FDFFFF" transform="translate(0,0)"/>
<path d="" fill="#F8FAFE" transform="translate(0,0)"/>
<path d="" fill="#FCFFFF" transform="translate(0,0)"/>
<path d="" fill="#FAFDFF" transform="translate(0,0)"/>
<path d="" fill="#F8FDFD" transform="translate(0,0)"/>
<path d="" fill="#FCFEFF" transform="translate(0,0)"/>
<path d="" fill="#F7FFFF" transform="translate(0,0)"/>
<path d="" fill="#F0FCFA" transform="translate(0,0)"/>
<path d="" fill="#FBFFFF" transform="translate(0,0)"/>
<path d="" fill="#FAFFFF" transform="translate(0,0)"/>
<path d="" fill="#F7FEFC" transform="translate(0,0)"/>
<path d="" fill="#FBFFFE" transform="translate(0,0)"/>
<path d="" fill="#F4FCFB" transform="translate(0,0)"/>
<path d="" fill="#FBFFFF" transform="translate(0,0)"/>
<path d="" fill="#FFFEFF" transform="translate(0,0)"/>
<path d="" fill="#F9FEFF" transform="translate(0,0)"/>
<path d="" fill="#FAFFFF" transform="translate(0,0)"/>
<path d="" fill="#FBFFFF" transform="translate(0,0)"/>
<path d="" fill="#FCFFFF" transform="translate(0,0)"/>
<path d="" fill="#FBFFFF" transform="translate(0,0)"/>
<path d="" fill="#FEFFFF" transform="translate(0,0)"/>
<path d="" fill="#FDFFFE" transform="translate(0,0)"/>
<path d="" fill="#FAFEFE" transform="translate(0,0)"/>
<path d="" fill="#F7FEFD" transform="translate(0,0)"/>
<path d="" fill="#FEFFFF" transform="translate(0,0)"/>
<path d="" fill="#FDFFFF" transform="translate(0,0)"/>
<path d="" fill="#F7FDFC" transform="translate(0,0)"/>
<path d="" fill="#FAFDFE" transform="translate(0,0)"/>
<path d="" fill="#FCFFFF" transform="translate(0,0)"/>
<path d="" fill="#F6FAFA" transform="translate(0,0)"/>
<path d="" fill="#FCFFFF" transform="translate(0,0)"/>
<path d="" fill="#FAFCFF" transform="translate(0,0)"/>
<path d="" fill="#FDFFFF" transform="translate(0,0)"/>
<path d="" fill="#FBFFFF" transform="translate(0,0)"/>
<path d="" fill="#F8FDFC" transform="translate(0,0)"/>
<path d="" fill="#FBFDFD" transform="translate(0,0)"/>
<path d="" fill="#F9FEFF" transform="translate(0,0)"/>
<path d="" fill="#FCFEFF" transform="translate(0,0)"/>
<path d="" fill="#FAFFFD" transform="translate(0,0)"/>
<path d="" fill="#FBFFFF" transform="translate(0,0)"/>
<path d="" fill="#FCFEFF" transform="translate(0,0)"/>
<path d="" fill="#FBFFFF" transform="translate(0,0)"/>
<path d="" fill="#F9FEFE" transform="translate(0,0)"/>
<path d="" fill="#FAFFFF" transform="translate(0,0)"/>
<path d="" fill="#FCFEFF" transform="translate(0,0)"/>
<path d="" fill="#FBFFFE" transform="translate(0,0)"/>
<path d="" fill="#F1FDFC" transform="translate(0,0)"/>
<path d="" fill="#F7FDFD" transform="translate(0,0)"/>
<path d="" fill="#FCFFFF" transform="translate(0,0)"/>
<path d="" fill="#F7FCFE" transform="translate(0,0)"/>
<path d="" fill="#FFFFFF" transform="translate(0,0)"/>
<path d="" fill="#F9FDFE" transform="translate(0,0)"/>
<path d="" fill="#FCFFFF" transform="translate(0,0)"/>
<path d="" fill="#FBFFFF" transform="translate(0,0)"/>
<path d="" fill="#EEFAF9" transform="translate(0,0)"/>
<path d="" fill="#F7FBFC" transform="translate(0,0)"/>
<path d="" fill="#FBFFFF" transform="translate(0,0)"/>
<path d="" fill="#F7FBFD" transform="translate(0,0)"/>
<path d="" fill="#FCFFFF" transform="translate(0,0)"/>
<path d="" fill="#FAFFFF" transform="translate(0,0)"/>
<path d="" fill="#FBFCFD" transform="translate(0,0)"/>
<path d="" fill="#F7FEFC" transform="translate(0,0)"/>
<path d="" fill="#F8FAFF" transform="translate(0,0)"/>
<path d="" fill="#F9FEFE" transform="translate(0,0)"/>
<path d="" fill="#FBFFFF" transform="translate(0,0)"/>
<path d="" fill="#E8F4F4" transform="translate(0,0)"/>
<path d="" fill="#F6FCFD" transform="translate(0,0)"/>
<path d="" fill="#F9FCFF" transform="translate(0,0)"/>
<path d="" fill="#F8FFFE" transform="translate(0,0)"/>
<path d="" fill="#FAFFFE" transform="translate(0,0)"/>
<path d="" fill="#F8FFFE" transform="translate(0,0)"/>
<path d="" fill="#FAFFFE" transform="translate(0,0)"/>
<path d="" fill="#F8FFFD" transform="translate(0,0)"/>
<path d="" fill="#FCFFFE" transform="translate(0,0)"/>
<path d="" fill="#F9FFFA" transform="translate(0,0)"/>
<path d="" fill="#F6FDFC" transform="translate(0,0)"/>
<path d="" fill="#F1FAFB" transform="translate(0,0)"/>
<path d="" fill="#FBFEFE" transform="translate(0,0)"/>
<path d="" fill="#FBFFFF" transform="translate(0,0)"/>
<path d="" fill="#FDFEFF" transform="translate(0,0)"/>
<path d="" fill="#F6FCFB" transform="translate(0,0)"/>
<path d="" fill="#FDFFFF" transform="translate(0,0)"/>
<path d="" fill="#FBFEFF" transform="translate(0,0)"/>
<path d="" fill="#F4FCFC" transform="translate(0,0)"/>
<path d="" fill="#FDFFFF" transform="translate(0,0)"/>
<path d="" fill="#F9FFFF" transform="translate(0,0)"/>
<path d="" fill="#FCFFFF" transform="translate(0,0)"/>
<path d="" fill="#F8FEFC" transform="translate(0,0)"/>
<path d="" fill="#F6FEFD" transform="translate(0,0)"/>
<path d="" fill="#FAFEFF" transform="translate(0,0)"/>
<path d="" fill="#FFFFFF" transform="translate(0,0)"/>
<path d="" fill="#F6FCFC" transform="translate(0,0)"/>
<path d="" fill="#F9FFFF" transform="translate(0,0)"/>
<path d="" fill="#FCFFFF" transform="translate(0,0)"/>
<path d="" fill="#FEFFFF" transform="translate(0,0)"/>
<path d="" fill="#F4FDFD" transform="translate(0,0)"/>
<path d="" fill="#FCFFFF" transform="translate(0,0)"/>
<path d="" fill="#F6FCFC" transform="translate(0,0)"/>
<path d="" fill="#FBFFFF" transform="translate(0,0)"/>
<path d="" fill="#F3F9FB" transform="translate(0,0)"/>
<path d="" fill="#FCFFFF" transform="translate(0,0)"/>
<path d="" fill="#FCFFFF" transform="translate(0,0)"/>
<path d="" fill="#FCFEFF" transform="translate(0,0)"/>
<path d="" fill="#F9FFFF" transform="translate(0,0)"/>
<path d="" fill="#F9FEFE" transform="translate(0,0)"/>
<path d="" fill="#FBFFFF" transform="translate(0,0)"/>
<path d="" fill="#FCFCFF" transform="translate(0,0)"/>
<path d="" fill="#FBFFFF" transform="translate(0,0)"/>
<path d="" fill="#F4FEFC" transform="translate(0,0)"/>
<path d="" fill="#FBFEFF" transform="translate(0,0)"/>
<path d="" fill="#F2FBF9" transform="translate(0,0)"/>
<path d="" fill="#FCFFFF" transform="translate(0,0)"/>
<path d="" fill="#FAFFFF" transform="translate(0,0)"/>
<path d="" fill="#F9FFFF" transform="translate(0,0)"/>
<path d="" fill="#F7FEFF" transform="translate(0,0)"/>
<path d="" fill="#FEFFFF" transform="translate(0,0)"/>
<path d="" fill="#FBFFFF" transform="translate(0,0)"/>
<path d="" fill="#F4FEFB" transform="translate(0,0)"/>
<path d="" fill="#FAFCFE" transform="translate(0,0)"/>
<path d="" fill="#FAFFFE" transform="translate(0,0)"/>
<path d="" fill="#FBFFFF" transform="translate(0,0)"/>
<path d="" fill="#F8FEFF" transform="translate(0,0)"/>
<path d="" fill="#FAFFFF" transform="translate(0,0)"/>
<path d="" fill="#FAFFFF" transform="translate(0,0)"/>
<path d="" fill="#F9FEFF" transform="translate(0,0)"/>
<path d="" fill="#FBFFFF" transform="translate(0,0)"/>
<path d="" fill="#FBFEFF" transform="translate(0,0)"/>
<path d="" fill="#FCFEFF" transform="translate(0,0)"/>
<path d="" fill="#FCFFFF" transform="translate(0,0)"/>
<path d="" fill="#FCFFFF" transform="translate(0,0)"/>
<path d="" fill="#FBFFFF" transform="translate(0,0)"/>
<path d="" fill="#FCFFFF" transform="translate(0,0)"/>
<path d="" fill="#F5FCFD" transform="translate(0,0)"/>
<path d="" fill="#FCFFFE" transform="translate(0,0)"/>
<path d="" fill="#FCFFFF" transform="translate(0,0)"/>
<path d="" fill="#FBFFFF" transform="translate(0,0)"/>
<path d="" fill="#FAFEFE" transform="translate(0,0)"/>
<path d="" fill="#FBFFFF" transform="translate(0,0)"/>
<path d="" fill="#FCFFFF" transform="translate(0,0)"/>
<path d="" fill="#FCFEFF" transform="translate(0,0)"/>
<path d="" fill="#F9FEFF" transform="translate(0,0)"/>
<path d="" fill="#FBFFFF" transform="translate(0,0)"/>
<path d="" fill="#FBFEFF" transform="translate(0,0)"/>
<path d="" fill="#FCFFFF" transform="translate(0,0)"/>
<path d="" fill="#F7FFFE" transform="translate(0,0)"/>
<path d="" fill="#F6FEFD" transform="translate(0,0)"/>
<path d="" fill="#FCFFFF" transform="translate(0,0)"/>
<path d="" fill="#F8FFFE" transform="translate(0,0)"/>
<path d="" fill="#FDFFFD" transform="translate(0,0)"/>
<path d="" fill="#FAFCFC" transform="translate(0,0)"/>
<path d="" fill="#FBFFFE" transform="translate(0,0)"/>
<path d="" fill="#FBFEFF" transform="translate(0,0)"/>
<path d="" fill="#FAFFFF" transform="translate(0,0)"/>
<path d="" fill="#FAFFFD" transform="translate(0,0)"/>
<path d="" fill="#FBFEFF" transform="translate(0,0)"/>
<path d="" fill="#FBFFFF" transform="translate(0,0)"/>
<path d="" fill="#FDFFFF" transform="translate(0,0)"/>
<path d="" fill="#F8FEFB" transform="translate(0,0)"/>
<path d="" fill="#F2FCFC" transform="translate(0,0)"/>
<path d="" fill="#FCFDFD" transform="translate(0,0)"/>
<path d="" fill="#FAFFFF" transform="translate(0,0)"/>
<path d="" fill="#F7FDFE" transform="translate(0,0)"/>
<path d="" fill="#F7FDFC" transform="translate(0,0)"/>
<path d="" fill="#FDFFFF" transform="translate(0,0)"/>
<path d="" fill="#FCFFFF" transform="translate(0,0)"/>
<path d="" fill="#F9FDFF" transform="translate(0,0)"/>
<path d="" fill="#F9FFFF" transform="translate(0,0)"/>
<path d="" fill="#FDFEFF" transform="translate(0,0)"/>
<path d="" fill="#FAFDFF" transform="translate(0,0)"/>
<path d="" fill="#FAFDFF" transform="translate(0,0)"/>
<path d="" fill="#F6FBFD" transform="translate(0,0)"/>
<path d="" fill="#F7FDFF" transform="translate(0,0)"/>
<path d="" fill="#F8FDFE" transform="translate(0,0)"/>
<path d="" fill="#F9FDFE" transform="translate(0,0)"/>
<path d="" fill="#F9FCFE" transform="translate(0,0)"/>
<path d="" fill="#F9FDFF" transform="translate(0,0)"/>
<path d="" fill="#F9FFFD" transform="translate(0,0)"/>
<path d="" fill="#F6FCFA" transform="translate(0,0)"/>
<path d="" fill="#FAFEFD" transform="translate(0,0)"/>
<path d="" fill="#FCFFFF" transform="translate(0,0)"/>
<path d="" fill="#FAFFFF" transform="translate(0,0)"/>
<path d="" fill="#FBFEFF" transform="translate(0,0)"/>
<path d="" fill="#FAFDFE" transform="translate(0,0)"/>
<path d="" fill="#F8FDFD" transform="translate(0,0)"/>
<path d="" fill="#FAFEFF" transform="translate(0,0)"/>
<path d="" fill="#F7FDFD" transform="translate(0,0)"/>
<path d="" fill="#FBFFFE" transform="translate(0,0)"/>
<path d="" fill="#FAFEFF" transform="translate(0,0)"/>
<path d="" fill="#FAFDFE" transform="translate(0,0)"/>
<path d="" fill="#F7FEFE" transform="translate(0,0)"/>
<path d="" fill="#FCFFFF" transform="translate(0,0)"/>
<path d="" fill="#FBFFFF" transform="translate(0,0)"/>
<path d="" fill="#F7FBFC" transform="translate(0,0)"/>
<path d="" fill="#FBFEFE" transform="translate(0,0)"/>
<path d="" fill="#FAFCFD" transform="translate(0,0)"/>
<path d="" fill="#F6FCFB" transform="translate(0,0)"/>
<path d="" fill="#F8FEFE" transform="translate(0,0)"/>
<path d="" fill="#FBFEFF" transform="translate(0,0)"/>
<path d="" fill="#F8FFFE" transform="translate(0,0)"/>
<path d="" fill="#F9FFFF" transform="translate(0,0)"/>
<path d="" fill="#F9FEFD" transform="translate(0,0)"/>
<path d="" fill="#F8FFFE" transform="translate(0,0)"/>
<path d="" fill="#FAFDFF" transform="translate(0,0)"/>
<path d="" fill="#FAFDFF" transform="translate(0,0)"/>
<path d="" fill="#FBFDFE" transform="translate(0,0)"/>
<path d="" fill="#F6FDFD" transform="translate(0,0)"/>
<path d="" fill="#F9FDFE" transform="translate(0,0)"/>
<path d="" fill="#FAFEFE" transform="translate(0,0)"/>
<path d="" fill="#FAFCFF" transform="translate(0,0)"/>
<path d="" fill="#F9FEFE" transform="translate(0,0)"/>
<path d="" fill="#F7FEFE" transform="translate(0,0)"/>
<path d="" fill="#F6FCFB" transform="translate(0,0)"/>
<path d="" fill="#F7FFFD" transform="translate(0,0)"/>
<path d="" fill="#F4FCFD" transform="translate(0,0)"/>
<path d="" fill="#FAFFFF" transform="translate(0,0)"/>
<path d="" fill="#F6FDFD" transform="translate(0,0)"/>
<path d="" fill="#F8FDFE" transform="translate(0,0)"/>
<path d="" fill="#F6FEFC" transform="translate(0,0)"/>
<path d="" fill="#F8FDFE" transform="translate(0,0)"/>
<path d="" fill="#F8FCFD" transform="translate(0,0)"/>
<path d="" fill="#FAFFFD" transform="translate(0,0)"/>
<path d="" fill="#F7FFFD" transform="translate(0,0)"/>
<path d="" fill="#F6FFFD" transform="translate(0,0)"/>
<path d="" fill="#F9FEFE" transform="translate(0,0)"/>
<path d="" fill="#F6FEFE" transform="translate(0,0)"/>
<path d="" fill="#FAFFFF" transform="translate(0,0)"/>
<path d="" fill="#F7FEFE" transform="translate(0,0)"/>
<path d="" fill="#FAFFFF" transform="translate(0,0)"/>
<path d="" fill="#F8FFFD" transform="translate(0,0)"/>
<path d="" fill="#F5FEFD" transform="translate(0,0)"/>
<path d="" fill="#F8FEFC" transform="translate(0,0)"/>
<path d="" fill="#F7FDFD" transform="translate(0,0)"/>
<path d="" fill="#F9FFFE" transform="translate(0,0)"/>
<path d="" fill="#F6FDFC" transform="translate(0,0)"/>
<path d="" fill="#F9FEFE" transform="translate(0,0)"/>
<path d="" fill="#F6FDFE" transform="translate(0,0)"/>
<path d="" fill="#FBFEFF" transform="translate(0,0)"/>
<path d="" fill="#F9FEFE" transform="translate(0,0)"/>
<path d="" fill="#F6FCFE" transform="translate(0,0)"/>
<path d="" fill="#F8FFFE" transform="translate(0,0)"/>
<path d="" fill="#F8FDFD" transform="translate(0,0)"/>
<path d="" fill="#F8FFFE" transform="translate(0,0)"/>
<path d="" fill="#F4FCFC" transform="translate(0,0)"/>
<path d="" fill="#F4FCFB" transform="translate(0,0)"/>
</svg>
