<?xml version="1.0" encoding="UTF-8"?>
<svg version="1.1" xmlns="http://www.w3.org/2000/svg" width="673" height="913">
<path d="M0 0 C0 0.66 0 1.32 0 2 C1.03125 2.28875 2.0625 2.5775 3.125 2.875 C3.76179688 3.06191406 4.39859375 3.24882812 5.0546875 3.44140625 C6.77618402 3.93573156 8.51241336 4.37810334 10.25 4.8125 C13.63661484 6.27490186 14.50696902 7.68215339 16 11 C16 11.66 16 12.32 16 13 C16.66 13 17.32 13 18 13 C25.6365955 26.21718453 31.99540373 40.0669421 38.35668945 53.92700195 C43.44854382 65.01096782 48.67814565 76.02475884 54 87 C54.33386719 87.69109863 54.66773438 88.38219727 55.01171875 89.09423828 C60.32830331 100.061096 66.11885143 110.77853736 71.89746094 121.5065918 C72.37891068 122.40056923 72.37891068 122.40056923 72.87008667 123.31260681 C73.75356254 124.95200626 74.63821969 126.59076896 75.52294922 128.22949219 C76.7179943 130.47104122 77.87944483 132.72060346 79 135 C80.32 135 81.64 135 83 135 C82.78867432 135.72960937 82.57734863 136.45921875 82.35961914 137.2109375 C81.92350088 140.59329663 82.52716246 141.72587526 84.24609375 144.625 C84.74947266 145.48939697 85.25285156 146.35379395 85.77148438 147.24438477 C86.32126953 148.15373779 86.87105469 149.06309082 87.4375 150 C87.99373047 150.94480225 88.54996094 151.88960449 89.12304688 152.86303711 C90.73223443 155.58565006 92.3609522 158.29528155 94 161 C94.38430176 161.63566895 94.76860352 162.27133789 95.16455078 162.92626953 C96.71871256 165.4865586 98.29359266 168.03310279 99.87890625 170.57421875 C102.61899327 174.97520772 105.27358462 179.42765813 107.9375 183.875 C108.70610352 185.15624756 108.70610352 185.15624756 109.49023438 186.46337891 C111.88020963 190.44996088 114.26333578 194.44029031 116.62890625 198.44140625 C117.03181885 199.12025879 117.43473145 199.79911133 117.84985352 200.49853516 C118.58923068 201.74500798 119.32564857 202.9932435 120.05834961 204.24365234 C121.59703816 206.83319821 123.18426724 209.22981254 125.0703125 211.58203125 C127.03242538 214.04063019 128.43129425 216.46046686 129.875 219.25 C132.18475261 223.58006253 134.6764399 227.65262884 137.44140625 231.703125 C141.72420555 238.0146187 145.71291745 244.51985234 149.67578125 251.03515625 C153.5108852 257.29786014 157.55703419 263.40574142 161.66772461 269.49133301 C167.75461858 278.51003547 173.70080057 287.58466762 179.30004883 296.91674805 C182.45429932 302.16081912 185.79634015 307.24708262 189.22802734 312.31274414 C192.9669779 317.86786216 196.45594 323.56350129 199.89453125 329.30859375 C202.43051661 333.52223096 205.07702586 337.63522031 207.82421875 341.71484375 C212.14211456 348.15153754 216.18721941 354.73784969 220.1875 361.375 C220.93397149 362.61053194 221.68047266 363.84604595 222.42700195 365.08154297 C224.28095463 368.15253881 226.13025173 371.22630993 227.97802734 374.30102539 C228.92361598 375.87301567 229.87184866 377.44341468 230.8203125 379.01367188 C238.05153165 390.99563384 244.88431211 403.15153204 251.4206543 415.52392578 C251.975354 416.5704834 252.53005371 417.61704102 253.1015625 418.6953125 C253.58963379 419.62359863 254.07770508 420.55188477 254.58056641 421.50830078 C255.933652 424.00759918 255.933652 424.00759918 257.61865234 426.14404297 C259 428 259 428 260 431 C261.05356075 433.25823054 262.12407715 435.50399728 263.2109375 437.74609375 C271.93457278 455.90258751 280.07812127 474.06609242 287 493 C287.33290039 493.90363281 287.66580078 494.80726563 288.00878906 495.73828125 C295.60519841 516.61850547 301.74304044 539.01005828 305 561 C305.12713379 561.85432617 305.25426758 562.70865234 305.38525391 563.58886719 C308.71466568 586.35093261 310.08778437 608.85724465 307.8125 631.8125 C307.74720093 632.4750882 307.68190186 633.13767639 307.61462402 633.82034302 C304.6025885 663.86150478 297.20558465 691.97620694 285.05249023 719.59619141 C284.18255592 721.583056 283.34646218 723.5846999 282.51953125 725.58984375 C280.54488338 730.02137996 278.27651009 734.25164402 275.9375 738.5 C275.45506836 739.37640137 274.97263672 740.25280273 274.47558594 741.15576172 C270.38492939 748.48875119 265.92880748 755.49233726 261.12695312 762.37646484 C260.03161607 763.95445258 258.96071029 765.54931151 257.890625 767.14453125 C257.26671875 768.06621094 256.6428125 768.98789062 256 769.9375 C255.46375 770.73027344 254.9275 771.52304687 254.375 772.33984375 C253.694375 773.16162109 253.694375 773.16162109 253 774 C252.34 774 251.68 774 251 774 C250.74992188 774.55816406 250.49984375 775.11632812 250.2421875 775.69140625 C229.73686339 813.80035767 176.58310506 848.53322619 137.08203125 863 C134.67185016 863.93986919 134.67185016 863.93986919 133 867 C133 866.34 133 865.68 133 865 C132.00226563 865.4125 131.00453125 865.825 129.9765625 866.25 C111.98067999 873.54724795 93.50604779 879.17962475 74.5625 883.4375 C73.4681665 883.68443604 72.37383301 883.93137207 71.24633789 884.18579102 C65.1723835 885.49478065 59.27089046 886.35389769 53.06225586 886.67602539 C52.38171143 886.78293701 51.70116699 886.88984863 51 887 C50.67 887.66 50.34 888.32 50 889 C48.68 888.67 47.36 888.34 46 888 C45.67 888.66 45.34 889.32 45 890 C44.67 889.67 44.34 889.34 44 889 C42.18567196 889.10211582 40.37563847 889.28088789 38.5703125 889.48828125 C37.39815186 889.61686523 36.22599121 889.74544922 35.01831055 889.87792969 C33.09112183 890.09304199 33.09112183 890.09304199 31.125 890.3125 C18.99518211 891.61479429 6.86650491 892.55065686 -5.3125 893.25 C-6.0922821 893.2966983 -6.87206421 893.34339661 -7.67547607 893.39151001 C-9.8836127 893.52250018 -12.09202029 893.64567671 -14.30078125 893.765625 C-16.20597534 893.87052246 -16.20597534 893.87052246 -18.1496582 893.97753906 C-19.090271 893.98495117 -20.03088379 893.99236328 -21 894 C-21.33 893.67 -21.66 893.34 -22 893 C-24.05921226 892.82918977 -26.12330602 892.71792192 -28.1875 892.625 C-69.57746691 890.28835305 -111.34836926 883.30333842 -149.5546875 866.59375 C-150.50996338 866.17601318 -151.46523926 865.75827637 -152.44946289 865.32788086 C-154.32159303 864.50045266 -156.18829006 863.66059152 -158.04858398 862.80688477 C-158.89493408 862.42846436 -159.74128418 862.05004395 -160.61328125 861.66015625 C-161.36391846 861.31605713 -162.11455566 860.97195801 -162.88793945 860.61743164 C-165.32983965 859.90357595 -166.62833768 860.17030401 -169 861 C-169.67869141 859.92878906 -169.67869141 859.92878906 -170.37109375 858.8359375 C-174.03461441 854.88390778 -178.26980397 852.98587438 -183.0625 850.625 C-184.97694884 849.65044512 -186.88973168 848.67261015 -188.80078125 847.69140625 C-189.71037598 847.22492676 -190.6199707 846.75844727 -191.55712891 846.27783203 C-203.14149922 840.21820838 -213.97266276 832.08970411 -224.37890625 824.1953125 C-225.98529614 822.91862523 -225.98529614 822.91862523 -228 822.125 C-230 821 -230 821 -231.84375 818.65234375 C-233.91603302 816.10328547 -235.87839494 814.39059577 -238.5 812.4375 C-242.81175278 809.07175865 -246.75159971 805.47589394 -250.625 801.625 C-251.15802734 801.10091553 -251.69105469 800.57683105 -252.24023438 800.03686523 C-256 796.24807382 -256 796.24807382 -256 794 C-256.99 794 -257.98 794 -259 794 C-260.40234375 792.5234375 -260.40234375 792.5234375 -261.9375 790.375 C-264.57805641 786.80969177 -267.33255066 783.43972462 -270.27050781 780.12182617 C-280.84345407 768.14439893 -288.91429684 754.72419964 -297 741 C-297.86818359 739.61167969 -297.86818359 739.61167969 -298.75390625 738.1953125 C-300 736 -300 736 -300 734 C-300.66 733.67 -301.32 733.34 -302 733 C-303.10211168 730.60128633 -303.92717923 728.32769346 -304.5 725.75 C-304.665 725.1725 -304.83 724.595 -305 724 C-305.66 723.67 -306.32 723.34 -307 723 C-307.72693904 721.02111039 -308.39816251 719.02045442 -309 717 C-309.66 717 -310.32 717 -311 717 C-311.10828125 716.00613281 -311.2165625 715.01226563 -311.328125 713.98828125 C-311.92111723 709.85495957 -313.27712188 706.078399 -314.75 702.1875 C-317.00546209 696.01983641 -319.00546226 689.83160664 -320.75 683.5 C-320.94819336 682.78352295 -321.14638672 682.0670459 -321.35058594 681.32885742 C-322.56668744 676.83707739 -323.57644274 672.33969553 -324.44628906 667.76757812 C-324.62901367 667.18427734 -324.81173828 666.60097656 -325 666 C-325.66 665.67 -326.32 665.34 -327 665 C-326.01 662.525 -326.01 662.525 -325 660 C-325.66 659.67 -326.32 659.34 -327 659 C-327.37890625 657.3125 -327.37890625 657.3125 -327.5625 655 C-327.67078125 653.67355469 -327.67078125 653.67355469 -327.78125 652.3203125 C-328.22736165 645.54897498 -328.63054625 638.77593906 -329 632 C-329.66 631.67 -330.32 631.34 -331 631 C-330.34 631 -329.68 631 -329 631 C-329.32758301 629.86457764 -329.65516602 628.72915527 -329.99267578 627.55932617 C-331.12856094 622.98991015 -331.2334591 618.73733795 -331.1171875 614.05078125 C-331.10309845 613.20739197 -331.0890094 612.36400269 -331.07449341 611.49505615 C-331.02222439 608.7670071 -330.95053724 606.03999787 -330.875 603.3125 C-330.84116211 601.91945145 -330.84116211 601.91945145 -330.80664062 600.4982605 C-329.86583613 563.59750838 -329.86583613 563.59750838 -325 549 C-325.66 549 -326.32 549 -327 549 C-326.67 548.34 -326.34 547.68 -326 547 C-325.67 547 -325.34 547 -325 547 C-323.73167384 542.1448979 -322.46842018 537.28851396 -321.2097168 532.4309082 C-320.78139954 530.78081234 -320.35173211 529.13106629 -319.9206543 527.48168945 C-319.29895865 525.10199662 -318.68223372 522.72106101 -318.06640625 520.33984375 C-317.87470352 519.61039047 -317.68300079 518.88093719 -317.48548889 518.12937927 C-316.62770379 514.79466746 -315.96048215 511.66255816 -315.55834961 508.22875977 C-314.96402159 504.79194822 -314.16293385 503.62796296 -312 501 C-311.13530613 499.06423152 -310.33504831 497.09907054 -309.58203125 495.1171875 C-309.13674072 493.95936768 -308.6914502 492.80154785 -308.23266602 491.60864258 C-307.52968384 489.7604895 -307.52968384 489.7604895 -306.8125 487.875 C-305.82308511 485.31169969 -304.82672311 482.75114152 -303.828125 480.19140625 C-303.45984337 479.24677773 -303.45984337 479.24677773 -303.0841217 478.2830658 C-299.99562453 470.39162315 -296.59007406 462.67399616 -293 455 C-292.33315186 453.56793213 -292.33315186 453.56793213 -291.65283203 452.10693359 C-286.12851579 440.28862524 -280.47403582 428.60628197 -273.94580078 417.3046875 C-271.76360746 413.87622084 -271.76360746 413.87622084 -271 410 C-270.34 410 -269.68 410 -269 410 C-268.73429199 409.12456543 -268.46858398 408.24913086 -268.19482422 407.34716797 C-267.0330138 404.0924845 -265.64960121 401.40754034 -263.8828125 398.4453125 C-263.27566406 397.41792969 -262.66851562 396.39054687 -262.04296875 395.33203125 C-261.41003906 394.27371094 -260.77710938 393.21539062 -260.125 392.125 C-255.20825405 383.95048524 -255.20825405 383.95048524 -250.7421875 375.52734375 C-249.31320052 372.63412571 -247.84080209 370.07364864 -246 367.4375 C-244.20749564 364.82044364 -242.51879748 362.22196204 -241 359.4375 C-239.51650485 356.88774271 -238.1114429 354.79180397 -236.3125 352.5 C-233.01174414 348.20404137 -230.29186644 343.59710366 -227.54614258 338.93847656 C-224.44584015 333.6923131 -221.18934816 328.56442351 -217.83081055 323.47998047 C-216.20023852 320.98789771 -214.9475517 318.8426551 -214 316 C-213.34 316 -212.68 316 -212 316 C-211.75894531 315.31550781 -211.51789063 314.63101562 -211.26953125 313.92578125 C-209.75421567 310.43356165 -207.77914846 307.35137046 -205.6875 304.1875 C-204.87708256 302.94825762 -204.06718368 301.70867596 -203.2578125 300.46875 C-202.86883789 299.87449219 -202.47986328 299.28023438 -202.07910156 298.66796875 C-200.69793849 296.53310312 -199.37874132 294.36284494 -198.0625 292.1875 C-196 289 -196 289 -194 288 C-193.31805276 286.33952712 -192.65439854 284.67152169 -192 283 C-190.89086555 281.11869199 -189.73695935 279.26339428 -188.55078125 277.4296875 C-187.86693359 276.3675 -187.18308594 275.3053125 -186.47851562 274.2109375 C-185.76373047 273.11007812 -185.04894531 272.00921875 -184.3125 270.875 C-182.91264276 268.70580509 -181.51290231 266.53653481 -180.11328125 264.3671875 C-179.42459961 263.30234131 -178.73591797 262.23749512 -178.02636719 261.14038086 C-173.32987155 253.86194431 -168.69840237 246.54379272 -164.125 239.1875 C-160.87593505 233.97176429 -157.58735117 228.78465987 -154.25 223.625 C-151.29664707 219.05531495 -148.43493879 214.44434488 -145.6640625 209.76171875 C-143.47115555 206.12231683 -141.2011635 202.53316772 -138.9375 198.9375 C-135.95150572 194.18315962 -133.04851983 189.42296023 -130.375 184.484375 C-128.47817804 181.0571626 -126.48902822 177.68683426 -124.5 174.3125 C-124.07807373 173.59545898 -123.65614746 172.87841797 -123.22143555 172.13964844 C-120.73259228 167.91676384 -118.22647831 163.70469837 -115.70703125 159.5 C-110.32243798 150.49077344 -105.09601838 141.53603074 -100.53515625 132.078125 C-99.00160732 129.00322282 -97.32477927 126.0739595 -95.5625 123.125 C-91.68985123 116.60719381 -88.35427515 109.86553807 -85.01611328 103.06445312 C-83.36077539 99.70127744 -81.67915606 96.35132762 -80 93 C-79.33326837 91.66539703 -78.66660175 90.33076159 -78 88.99609375 C-76.67211334 86.33967205 -75.33833014 83.68633074 -74 81.03515625 C-70.42982702 73.95309528 -66.91965239 66.84358063 -63.5 59.6875 C-63.149375 58.96377197 -62.79875 58.24004395 -62.4375 57.49438477 C-60.50742771 53.42836035 -60.50742771 53.42836035 -60 49 C-59.34 49 -58.68 49 -58 49 C-57.87471924 48.43249023 -57.74943848 47.86498047 -57.62036133 47.28027344 C-56.96991225 44.88940593 -56.09472229 42.77264935 -55.07421875 40.515625 C-54.68943359 39.66226563 -54.30464844 38.80890625 -53.90820312 37.9296875 C-53.50537109 37.04539063 -53.10253906 36.16109375 -52.6875 35.25 C-52.29626953 34.38117187 -51.90503906 33.51234375 -51.50195312 32.6171875 C-44.29193383 16.69057771 -44.29193383 16.69057771 -39 12 C-38.45859375 11.44441406 -37.9171875 10.88882812 -37.359375 10.31640625 C-26.94790801 0.14554039 -13.85481336 -1.62850428 0 0 Z M-13 36 C-15.42713759 38.61851243 -15.42713759 38.61851243 -16 42 C-16.33 42.33 -16.66 42.66 -17 43 C-17.97101761 45.02222872 -18.91436478 47.05774173 -19.84765625 49.09765625 C-24.38153985 58.91837238 -29.15285282 68.62188506 -33.9152832 78.33325195 C-35.43273219 81.42777703 -36.94798151 84.5233715 -38.46289062 87.61914062 C-45.80074077 102.60509358 -53.14891403 117.58426227 -60.875 132.375 C-61.37821777 133.33962158 -61.88143555 134.30424316 -62.39990234 135.2980957 C-66.80335569 143.70009511 -71.37318396 152.00337185 -76.04541016 160.25854492 C-76.3604248 160.8332251 -76.67543945 161.40790527 -77 162 C-77.37044434 162.67071533 -77.74088867 163.34143066 -78.12255859 164.0324707 C-79.20364739 166.09759581 -79.20364739 166.09759581 -79 169 C-79.66 169 -80.32 169 -81 169 C-82.51421115 171.24406092 -83.89685018 173.47340785 -85.25 175.8125 C-85.65404053 176.49884521 -86.05808105 177.18519043 -86.47436523 177.89233398 C-89.24003934 182.61608552 -91.89652469 187.39346648 -94.48828125 192.21484375 C-97.55645756 197.86758202 -100.77950152 203.43311832 -104 209 C-104.3923584 209.67901367 -104.7847168 210.35802734 -105.18896484 211.05761719 C-110.87628027 220.87766996 -116.79935625 230.49696499 -123 240 C-127.96174452 247.65443661 -127.96174452 247.65443661 -132.5 255.5625 C-134.73888016 259.68291462 -137.36388187 263.42401949 -140.08984375 267.234375 C-144.00835069 272.90779609 -147.91713685 278.83427371 -151 285 C-151.515625 285.639375 -152.03125 286.27875 -152.5625 286.9375 C-154.28589633 288.99119522 -154.28589633 288.99119522 -154 292 C-154.66 292 -155.32 292 -156 292 C-157.45704519 293.77793767 -157.45704519 293.77793767 -158.875 296.0625 C-159.40996094 296.89136719 -159.94492188 297.72023438 -160.49609375 298.57421875 C-162.01951373 301.03147539 -163.46401527 303.52510481 -164.87109375 306.05078125 C-168.62847387 312.53843758 -172.84306343 318.76459514 -177 325 C-180.15044221 329.88744278 -183.25979251 334.80037579 -186.32421875 339.7421875 C-190.49306391 346.46022514 -194.7105342 353.12759871 -199.125 359.6875 C-202.35659798 364.50157172 -205.5457799 369.33672029 -208.625 374.25 C-209.27726562 375.28640625 -209.92953125 376.3228125 -210.6015625 377.390625 C-212.23618393 379.94728675 -212.23618393 379.94728675 -212 383 C-212.99 383.33 -213.98 383.66 -215 384 C-216.67717281 386.36766513 -216.67717281 386.36766513 -218.25 389.3125 C-218.86488281 390.40433594 -219.47976562 391.49617188 -220.11328125 392.62109375 C-221.04720703 394.29365234 -221.04720703 394.29365234 -222 396 C-223.14148089 397.96087349 -224.28722631 399.91927151 -225.4375 401.875 C-226.62628318 403.91591979 -227.81375862 405.9576018 -229 408 C-229.59296875 409.0209375 -230.1859375 410.041875 -230.796875 411.09375 C-246.05805046 437.58008757 -260.57477201 464.61440929 -272 493 C-272.34224609 493.84014648 -272.68449219 494.68029297 -273.03710938 495.54589844 C-278.65790058 509.42914727 -283.10290587 523.5429538 -287 538 C-287.20608887 538.75700195 -287.41217773 539.51400391 -287.62451172 540.29394531 C-292.53449973 558.63886123 -295.53373829 577.89392271 -295.953125 596.88427734 C-295.98440979 598.29632941 -296.02610233 599.70818872 -296.078125 601.11962891 C-297.32969629 635.56130634 -290.67719349 670.06536889 -278 702 C-277.7009375 702.78117188 -277.401875 703.56234375 -277.09375 704.3671875 C-275.4154742 708.4070371 -273.55066983 712.35518888 -271.6875 716.3125 C-271.11999023 717.53743164 -271.11999023 717.53743164 -270.54101562 718.78710938 C-266.23485862 728.03151122 -266.23485862 728.03151122 -260 736 C-259.05574104 737.67381886 -258.11216351 739.34802885 -257.17333984 741.02490234 C-255.12972023 744.46495283 -252.72523952 747.62525796 -250.3125 750.8125 C-249.78865723 751.50883545 -249.26481445 752.2051709 -248.72509766 752.92260742 C-244.95679119 757.87646784 -241.00623169 762.54465089 -236.7421875 767.08203125 C-235 769 -235 769 -233 772 C-232.34 772 -231.68 772 -231 772 C-231 772.66 -231 773.32 -231 774 C-229.16666667 776.16666667 -229.16666667 776.16666667 -227 778 C-226.34 778 -225.68 778 -225 778 C-225 778.66 -225 779.32 -225 780 C-222.57989427 782.58247704 -219.72336227 784.74700074 -217 787 C-216.50612793 787.41540039 -216.01225586 787.83080078 -215.50341797 788.25878906 C-207.56293613 794.91823556 -199.29820708 801.01684893 -190.75 806.875 C-189.85200684 807.49310547 -188.95401367 808.11121094 -188.02880859 808.74804688 C-181.88321657 812.90730982 -175.57324984 816.56098134 -169 820 C-168.33097656 820.35384766 -167.66195312 820.70769531 -166.97265625 821.07226562 C-145.01898708 832.57067766 -121.92896263 841.58352326 -98 848 C-97.22720703 848.21011719 -96.45441406 848.42023437 -95.65820312 848.63671875 C-69.16385461 855.68195244 -40.58769461 858.23045565 -13.25 858.1875 C-12.53145844 858.18689575 -11.81291687 858.1862915 -11.07260132 858.18566895 C2.36359552 858.15527492 15.63866571 857.47512377 29 856 C30.16031738 855.87641113 31.32063477 855.75282227 32.51611328 855.62548828 C65.7985322 851.97755476 104.37743561 845.20869062 133.4765625 827.4921875 C135.94128346 826.03472093 138.44635021 824.94392226 141.08544922 823.84423828 C153.27828055 818.46770031 164.39331443 810.97946965 175 803 C175.72058594 802.48050781 176.44117188 801.96101562 177.18359375 801.42578125 C181.60372784 798.21865693 185.80389536 794.74196572 190 791.25 C190.58918213 790.76539307 191.17836426 790.28078613 191.78540039 789.78149414 C193.22930014 788.56590424 194.6198826 787.28754855 196 786 C196 785.34 196 784.68 196 784 C196.53109375 783.79375 197.0621875 783.5875 197.609375 783.375 C201.00773436 781.42038808 203.51055928 778.77876283 206.25 776 C206.80429687 775.4534375 207.35859375 774.906875 207.9296875 774.34375 C210.99215775 771.67399232 210.99215775 771.67399232 212 768 C212.66 768 213.32 768 214 768 C214 767.34 214 766.68 214 766 C214.66 766 215.32 766 216 766 C216.33 765.01 216.66 764.02 217 763 C218.64674279 761.31364484 220.31653597 759.64969828 222 758 C248.95603215 725.79996159 264.76837873 686.35595446 271 645 C271.17660156 643.84709473 271.35320313 642.69418945 271.53515625 641.50634766 C273.03736968 630.78027551 273.39892387 620.19770131 273.375 609.375 C273.37468277 608.04088074 273.37468277 608.04088074 273.37435913 606.67980957 C273.31831077 582.88661594 270.19607895 559.99486906 264 537 C263.60446445 535.4611953 263.20991986 533.92213551 262.81640625 532.3828125 C259.92523214 521.3154456 256.10484384 510.67022807 252 500 C251.01 500 250.02 500 249 500 C249.66 499.67 250.32 499.34 251 499 C248.83356288 492.18803954 246.31839881 485.55725553 243.625 478.9375 C243.25117187 477.99583984 242.87734375 477.05417969 242.4921875 476.08398438 C240.41010714 470.96078321 238.10406196 466.37861541 235.06640625 461.76196289 C233.58339388 459.31166521 232.86334656 456.72340214 232 454 C230.64168679 451.11339806 229.13399533 448.31017725 227.625 445.5 C227.18438232 444.67322754 226.74376465 443.84645508 226.28979492 442.99462891 C225.34628648 441.22846035 224.40016899 439.46368349 223.45166016 437.70019531 C222.49745547 435.92530399 221.5465087 434.14865662 220.59912109 432.37011719 C207.53271723 407.4196542 207.53271723 407.4196542 192 384 C190.72635276 381.8015741 189.47942119 379.59763484 188.25 377.375 C185.89912531 373.19064743 183.5033065 369.14463357 180.6875 365.25 C176.87971464 359.97634738 173.55659777 354.44062083 170.19042969 348.88037109 C167.33490235 344.16962931 164.43386744 339.49741223 161.4375 334.875 C158.20207424 329.88330389 155.02101769 324.86106418 151.875 319.8125 C144.8286954 308.51338041 137.62215275 297.3250357 130.359375 286.1640625 C127.23494998 281.36237135 124.11477233 276.55795825 121 271.75 C120.5678418 271.08403809 120.13568359 270.41807617 119.69042969 269.73193359 C117.55205474 266.42936933 115.44496709 263.11155688 113.375 259.765625 C112.13457473 257.76918379 110.90319381 255.87258414 109.48046875 254 C107.14083534 250.83933429 105.27290664 247.40479819 103.3125 244 C100.27075066 238.7621745 97.15993487 233.63149397 93.75 228.625 C90.7209627 224.17515678 88.12775336 219.63523618 85.609375 214.8828125 C83.81136833 211.66211122 81.83529659 208.5815182 79.8125 205.5 C75.58910165 199.05638901 71.71136559 192.43892536 67.89379883 185.74804688 C65.39504037 181.37463998 62.81364007 177.07650996 60.125 172.81738281 C58.60839307 170.36737804 57.2326477 167.85345266 55.875 165.3125 C52.50519191 158.93577087 52.50519191 158.93577087 48.4375 153 C47 151 47 151 46.13525391 148.83081055 C44.74281892 145.35870654 43.08355456 142.04314242 41.3984375 138.70703125 C41.04703705 138.008022 40.6956366 137.30901276 40.33358765 136.58882141 C36.82877854 129.63126349 33.27467841 122.69910906 29.70239258 115.77600098 C28.59116719 113.62191587 27.4820407 111.46675815 26.37304688 109.31152344 C22.86758055 102.50610722 19.33191108 95.72170571 15.70092773 88.98217773 C11.30788924 80.81678823 7.49071027 72.50956238 3.953125 63.93652344 C2.2181244 59.74035625 0.44076012 55.84692939 -2 52 C-2.33 51.13375 -2.66 50.2675 -3 49.375 C-3.82743892 46.95161892 -3.82743892 46.95161892 -5.625 45.5 C-7.55897533 43.39020873 -7 41.78668563 -7 39 C-8.20918882 37.12359581 -8.20918882 37.12359581 -10 36 C-10.99 36 -11.98 36 -13 36 Z " fill="#F7F7F7" transform="translate(348,9)"/>
<path d="M0 0 C0.76828125 0.69609375 1.5365625 1.3921875 2.328125 2.109375 C3.15828125 2.84671875 3.9884375 3.5840625 4.84375 4.34375 C27.73231664 25.8281101 35.10199119 58.59163365 36.50097656 88.84765625 C37.70571369 129.14054508 31.94387453 170.60737832 3.328125 201.109375 C-21.37867675 224.72513565 -52.28087352 229.97143068 -85.33007812 229.24121094 C-106.65055958 228.40010486 -128.10467256 221.83557355 -144.671875 208.109375 C-145.47496094 207.45195313 -146.27804688 206.79453125 -147.10546875 206.1171875 C-170.37933633 186.20864324 -178.74559467 155.10853848 -181.3203125 125.6484375 C-184.26093717 84.82653509 -179.27919431 42.03196267 -151.671875 10.109375 C-133.40483939 -10.85988481 -106.79860218 -19.67104448 -79.80761719 -21.75 C-51.85855075 -23.59026775 -21.85200176 -18.66826641 0 0 Z M-125.921875 29.421875 C-130.02321368 34.24115425 -132.9463961 39.41770539 -135.671875 45.109375 C-136.11402344 46.02332031 -136.55617188 46.93726563 -137.01171875 47.87890625 C-151.33121156 79.69516534 -150.96409617 124.63394092 -139.45361328 157.09521484 C-135.40312066 167.53136853 -129.74597736 176.28574661 -121.671875 184.109375 C-121.10984375 184.68042969 -120.5478125 185.25148438 -119.96875 185.83984375 C-105.86616181 199.15515153 -85.97210288 200.62715138 -67.625 200.3828125 C-48.37494236 199.76243732 -32.8154483 192.06475724 -19.671875 178.109375 C1.61024002 152.6184835 3.50802341 115.25661409 0.81445312 83.5847168 C-1.57087471 59.8620401 -8.17271716 36.03477259 -27.05078125 20.1015625 C-56.76402194 -1.93297554 -100.9840717 3.02544547 -125.921875 29.421875 Z " fill="#FFFFFF" transform="translate(349.671875,461.890625)"/>
<path d="M0 0 C8.65133471 8.81321 12 20.5585925 12 32.6796875 C11.04551574 52.12730436 4.06606351 67.88858203 -8 83 C-8.66386719 83.85464844 -9.32773437 84.70929688 -10.01171875 85.58984375 C-17.61720499 95.163478 -26.04712919 104.09882108 -34.71875 112.7109375 C-37.04356744 115.02216708 -39.26508013 117.36319063 -41.375 119.875 C-44.0344072 122.97333849 -46.82899003 125.88142886 -49.7265625 128.7578125 C-50.93046631 129.95494873 -50.93046631 129.95494873 -52.15869141 131.17626953 C-53.07013916 132.07901611 -53.07013916 132.07901611 -54 133 C-53.15919388 133.00142502 -52.31838776 133.00285004 -51.45210266 133.00431824 C-43.52138143 133.02216085 -35.59121747 133.06381129 -27.66076374 133.13209057 C-23.58374514 133.16635603 -19.50710105 133.19146976 -15.42993164 133.19555664 C-11.49383916 133.1998407 -7.55859144 133.22831076 -3.62276268 133.27343178 C-2.12254955 133.28640361 -0.62223531 133.29071551 0.87802696 133.28615379 C2.98300315 133.28124482 5.08551298 133.30734475 7.19018555 133.34057617 C8.38709518 133.34723801 9.58400482 133.35389984 10.81718445 133.36076355 C14.90547956 134.18185645 16.40778374 135.80638822 19 139 C20.10663127 143.25179384 19.43328802 147.05464432 17.625 151 C16 153 16 153 14 154 C11.18881899 154.10373375 8.40222097 154.14680531 5.59057617 154.14526367 C4.72049423 154.14862228 3.85041229 154.1519809 2.95396423 154.15544128 C0.06695136 154.16496875 -2.82000361 154.16689543 -5.70703125 154.16796875 C-7.71001713 154.17118056 -9.71300278 154.17454457 -11.71598816 154.17805481 C-15.92012068 154.18405091 -20.12423264 154.18589426 -24.32836914 154.18530273 C-29.71541349 154.18520119 -35.1023258 154.19884293 -40.48933887 154.21607494 C-44.62860215 154.22719545 -48.76783353 154.22922191 -52.90711021 154.22869301 C-54.89302716 154.22987345 -56.87894492 154.23429881 -58.86484718 154.24202538 C-61.64412282 154.25182429 -64.42311232 154.24894734 -67.20239258 154.24291992 C-68.02284058 154.24853943 -68.84328857 154.25415894 -69.68859863 154.25994873 C-73.86158044 154.2369558 -77.27173551 154.10621435 -81 152 C-83.21690984 148.67463524 -83.37862943 147.28920098 -83.5 143.375 C-83.57734375 141.90160156 -83.57734375 141.90160156 -83.65625 140.3984375 C-81.84038924 130.99487284 -73.66431784 124.31486579 -67.0625 117.9375 C-61.70230963 112.71260768 -56.46103536 107.50135606 -51.59350586 101.81176758 C-49.12865437 99.00930658 -46.43747036 96.46098546 -43.75 93.875 C-27.98912279 78.3582829 -12.85108792 58.87830137 -11.93359375 35.96875 C-12.10468534 28.3199493 -13.9760841 21.89988073 -19 16 C-24.86752672 10.52178785 -32.198247 9.36245078 -40 9 C-52.03262176 9.61001885 -62.47545675 14.82892179 -72.625 20.9609375 C-75 22 -75 22 -77.25 21.7890625 C-79 21 -79 21 -80 19 C-80.1229938 16.87764193 -80.17555682 14.75088537 -80.1875 12.625 C-80.20167969 11.48289062 -80.21585937 10.34078125 -80.23046875 9.1640625 C-80.00364941 6.05010203 -79.78830521 4.51344116 -78 2 C-56.86193831 -15.79418753 -21.59690234 -17.15151077 0 0 Z " fill="#FFFFFF" transform="translate(483,585)"/>
<path d="M0 0 C4.02318012 3.54601224 6.43200391 7.74796987 9.125 12.3125 C12.56665706 18.04649012 16.06247009 23.71239909 19.8125 29.25 C25.78225068 38.08820747 31.46582722 47.10571799 37.17236328 56.11523438 C40.17253987 60.85075222 43.17919113 65.58214516 46.1875 70.3125 C46.77241211 71.23232666 47.35732422 72.15215332 47.95996094 73.09985352 C51.44980374 78.58200271 54.96217618 84.04871014 58.5 89.5 C69.54818564 106.53253449 80.38445836 123.69462069 91 141 C91.99652588 142.62131836 91.99652588 142.62131836 93.01318359 144.27539062 C102.11146075 159.08761966 111.03228399 173.97672671 119.44384766 189.19335938 C121.01522042 192.02745119 122.60673397 194.84960316 124.19921875 197.671875 C140.60806227 227.02541778 153.2448642 257.95720029 163.1875 290.0625 C163.47939209 291.00222656 163.77128418 291.94195313 164.07202148 292.91015625 C164.45982788 294.20953125 164.45982788 294.20953125 164.85546875 295.53515625 C165.07871826 296.281604 165.30196777 297.02805176 165.53198242 297.79711914 C166.05308025 300.24983989 166.08053285 302.49963365 166 305 C164.20974257 302.31461386 163.51420414 300.73539875 162.703125 297.7109375 C162.46932129 296.85927002 162.23551758 296.00760254 161.99462891 295.13012695 C161.6260376 293.76633911 161.6260376 293.76633911 161.25 292.375 C159.07541275 284.51203566 156.65349742 276.80935467 153.82910156 269.15576172 C152 264.17790478 152 264.17790478 152 262 C151.01 262 150.02 262 149 262 C149.33 261.01 149.66 260.02 150 259 C149.09466783 255.98992118 149.09466783 255.98992118 147.6484375 252.64453125 C147.26457382 251.71383064 147.26457382 251.71383064 146.87295532 250.764328 C146.32763497 249.4486284 145.77756423 248.13488925 145.22314453 246.82299805 C144.38746775 244.84205439 143.56958874 242.85448067 142.75390625 240.86523438 C139.98677748 234.19645667 136.95281181 228.06241811 133 222 C132.60235737 220.01178687 132.24544834 218.01267638 132 216 C131.34 215.67 130.68 215.34 130 215 C128.82738399 212.83019872 127.74562017 210.66279978 126.6875 208.4375 C118.92816363 192.57837773 110.42601508 177.12020377 101.3125 162 C100.71228027 160.99638428 100.11206055 159.99276855 99.49365234 158.95874023 C98.93500488 158.04423096 98.37635742 157.12972168 97.80078125 156.1875 C97.30747314 155.37667969 96.81416504 154.56585938 96.3059082 153.73046875 C95.8749585 153.15941406 95.44400879 152.58835937 95 152 C94.34 152 93.68 152 93 152 C92.74992188 151.154375 92.49984375 150.30875 92.2421875 149.4375 C90.89544888 145.71067614 89.12327666 142.40227031 87.125 139 C86.78597656 138.40960938 86.44695312 137.81921875 86.09765625 137.2109375 C82.10810935 130.19045824 82.10810935 130.19045824 77 124 C75.78301488 121.93375189 74.60107674 119.84678878 73.4375 117.75 C69.58715418 110.90178999 65.42525351 104.30223672 61.12792969 97.72802734 C55.73869908 89.47153941 50.45064587 81.14970318 45.1875 72.8125 C44.68839111 72.02214355 44.18928223 71.23178711 43.67504883 70.41748047 C40.98851574 66.16033903 38.30901456 61.89890601 35.63671875 57.6328125 C34.81747925 56.32799927 34.81747925 56.32799927 33.98168945 54.99682617 C32.92982838 53.32129668 31.88010171 51.64442491 30.83276367 49.96606445 C30.35943604 49.21284912 29.8861084 48.45963379 29.3984375 47.68359375 C28.98255371 47.01900146 28.56666992 46.35440918 28.13818359 45.66967773 C26.97262103 43.84863084 26.97262103 43.84863084 25 42 C23.91135558 40.37134198 22.85312041 38.72225383 21.8125 37.0625 C21.19632812 36.08796875 20.58015625 35.1134375 19.9453125 34.109375 C18.63905694 32.0214645 17.34229034 29.92758987 16.0546875 27.828125 C15.43851562 26.83296875 14.82234375 25.8378125 14.1875 24.8125 C13.62417969 23.89082031 13.06085938 22.96914063 12.48046875 22.01953125 C11.99191406 21.35308594 11.50335938 20.68664062 11 20 C10.34 20 9.68 20 9 20 C8.74476563 19.13890625 8.48953125 18.2778125 8.2265625 17.390625 C6.949821 13.86128861 5.32826341 10.94917216 3.375 7.75 C0 2.2122449 0 2.2122449 0 0 Z " fill="#828484" transform="translate(448,247)"/>
<path d="M0 0 C2.30859375 0.16015625 2.30859375 0.16015625 5 1 C6.59765625 3.24609375 6.59765625 3.24609375 8.0625 6.4375 C8.34794678 7.04456787 8.63339355 7.65163574 8.92749023 8.27709961 C9.97078779 10.50966499 10.98462704 12.75460068 12 15 C12.87350354 16.89912651 13.74861094 18.79751584 14.625 20.6953125 C16.12142863 23.93787118 17.6168874 27.18084477 19.1081543 30.42578125 C33.80263374 62.35363593 49.61772095 93.73834743 67.00390625 124.29296875 C67.47731445 125.12948975 67.95072266 125.96601074 68.43847656 126.82788086 C69.33285325 128.40448198 70.23420429 129.9771537 71.14355469 131.54516602 C72.15613578 133.33049541 73.08723178 135.16163777 74 137 C73.67 137.66 73.34 138.32 73 139 C71 137.6875 71 137.6875 69 136 C69 135.01 69 134.02 69 133 C68.01604044 131.10690973 68.01604044 131.10690973 66.6875 129.1875 C64.53676298 125.88848813 62.7619102 122.5238204 61 119 C60.34 118.34 59.68 117.68 59 117 C58.31203219 115.34201251 57.65010941 113.67319454 57 112 C55.82161476 109.56075652 54.62704289 107.13648581 53.40625 104.71875 C53.05526245 104.02036011 52.7042749 103.32197021 52.34265137 102.60241699 C48.44919142 94.87380181 44.47764219 87.18552166 40.5 79.5 C37.65623188 74.00532742 34.81895541 68.507451 32 63 C31.62037109 62.2584668 31.24074219 61.51693359 30.84960938 60.75292969 C29.71768364 58.53568692 28.59216561 56.31531475 27.46875 54.09375 C27.12001831 53.41115112 26.77128662 52.72855225 26.4119873 52.02526855 C24 47.23040572 24 47.23040572 24 45 C23.01 44.505 23.01 44.505 22 44 C20.96264648 42.0222168 20.96264648 42.0222168 19.87109375 39.44921875 C19.47599609 38.52302734 19.08089844 37.59683594 18.67382812 36.64257812 C18.0618457 35.17981445 18.0618457 35.17981445 17.4375 33.6875 C16.8197168 32.24213867 16.8197168 32.24213867 16.18945312 30.76757812 C13.11013302 23.49514129 13.11013302 23.49514129 12.50024414 20.75317383 C12.33516357 20.17462646 12.17008301 19.5960791 12 19 C11.34 18.67 10.68 18.34 10 18 C9.31867549 16.33927151 8.65257873 14.672233 8 13 C7.34 12.34 6.68 11.68 6 11 C5 8 5 8 5 5 C4.34 5.33 3.68 5.66 3 6 C3 4.68 3 3.36 3 2 C-0.73639216 3.24546405 -1.18756513 4.63404953 -3 8 C-2.34 8 -1.68 8 -1 8 C-1.33 8.66 -1.66 9.32 -2 10 C-2.66 9.67 -3.32 9.34 -4 9 C-4.19335938 9.58007812 -4.38671875 10.16015625 -4.5859375 10.7578125 C-6.05729167 15.171875 -7.52864583 19.5859375 -9 24 C-9.66 24 -10.32 24 -11 24 C-11.36472412 25.21055054 -11.36472412 25.21055054 -11.73681641 26.44555664 C-13.26793703 30.75394186 -15.19826434 34.77047283 -17.2109375 38.87109375 C-17.62034576 39.7116481 -18.02975403 40.55220245 -18.4515686 41.41822815 C-19.31553469 43.18992898 -20.1813246 44.96074146 -21.04882812 46.73071289 C-22.36792234 49.42305412 -23.68049595 52.11849895 -24.9921875 54.81445312 C-25.8355512 56.54185532 -26.67928897 58.26907495 -27.5234375 59.99609375 C-27.91212006 60.79421982 -28.30080261 61.59234589 -28.70126343 62.41465759 C-30.97615414 67.04749175 -33.39153155 71.54605679 -36 76 C-36.33 75.34 -36.66 74.68 -37 74 C-35.94008682 71.58460622 -34.81892933 69.29150775 -33.59375 66.9609375 C-32.84424421 65.50008868 -32.09557383 64.03881101 -31.34765625 62.57714844 C-30.95787598 61.82026733 -30.5680957 61.06338623 -30.16650391 60.28356934 C-28.3268005 56.68213237 -26.55235246 53.04960724 -24.78125 49.4140625 C-24.43213058 48.69862274 -24.08301117 47.98318298 -23.72331238 47.24606323 C-22.64752948 45.0396946 -21.57362208 42.83242078 -20.5 40.625 C-20.12904205 39.86362732 -19.75808411 39.10225464 -19.37588501 38.31781006 C-14.83214868 28.98496167 -10.30819352 19.65420749 -6.33203125 10.06103516 C-4.69686496 6.19471684 -2.7673942 3.15759078 0 0 Z " fill="#838485" transform="translate(335,43)"/>
<path d="M0 0 C0.33 0 0.66 0 1 0 C1.1521293 5.83382777 0.59735457 11.1446053 -0.4375 16.875 C-2.0131545 26.25734805 -2.73142962 35.4980215 -3 45 C-3.02723145 45.70962891 -3.05446289 46.41925781 -3.08251953 47.15039062 C-4.25160146 79.47293255 1.25822001 112.93348368 13.12060547 143.05175781 C15 147.82376418 15 147.82376418 15 150 C15.66 150.33 16.32 150.66 17 151 C17.68896484 152.75439453 17.68896484 152.75439453 18.3359375 155.0078125 C19.89874714 159.97145317 22.11118085 164.33390734 24.625 168.875 C25.43166538 170.35048289 26.23643575 171.82700381 27.0390625 173.3046875 C27.56814209 174.2635083 27.56814209 174.2635083 28.10791016 175.24169922 C29 177 29 177 30 180 C32.01508358 180.73323796 32.01508358 180.73323796 34 181 C34 182.32 34 183.64 34 185 C35.08163645 186.99069591 35.08163645 186.99069591 36.625 188.890625 C37.16640625 189.59960938 37.7078125 190.30859375 38.265625 191.0390625 C38.83796875 191.76867187 39.4103125 192.49828125 40 193.25 C40.57234375 193.99507812 41.1446875 194.74015625 41.734375 195.5078125 C43.14783804 197.34531445 44.56981658 199.17550183 46 201 C45.67 201.66 45.34 202.32 45 203 C4.41570075 157.08039406 -8.18425572 92.57050491 -5 33 C-4.14600327 21.98406297 -2.82373232 10.68905899 0 0 Z " fill="#808282" transform="translate(56,563)"/>
<path d="M0 0 C0.66 0 1.32 0 2 0 C9.6365955 13.21718453 15.99540373 27.0669421 22.35668945 40.92700195 C27.44854382 52.01096782 32.67814565 63.02475884 38 74 C38.33386719 74.69109863 38.66773438 75.38219727 39.01171875 76.09423828 C44.32830331 87.061096 50.11885143 97.77853736 55.89746094 108.5065918 C56.21842743 109.10257675 56.53939392 109.69856171 56.87008667 110.31260681 C57.75356254 111.95200626 58.63821969 113.59076896 59.52294922 115.22949219 C60.7179943 117.47104122 61.87944483 119.72060346 63 122 C64.32 122 65.64 122 67 122 C66.7834375 122.72832031 66.566875 123.45664063 66.34375 124.20703125 C65.91984574 127.65125334 66.6596421 128.80459893 68.5 131.6875 C69.96875 134.01171875 69.96875 134.01171875 71 136 C70.67 136.66 70.34 137.32 70 138 C63.37920038 127.19849889 57.31286333 116.12417795 51.375 104.9375 C51.02027618 104.27057129 50.66555237 103.60364258 50.30007935 102.91650391 C45.67457545 94.21030111 41.18614016 85.44399529 36.79980469 76.61499023 C35.33251854 73.66161517 33.84378127 70.7200791 32.33984375 67.78515625 C25.9930478 55.33982117 20.1485789 42.70032329 14.47827148 29.93579102 C11.10845959 22.390104 7.53795693 15.02626173 3.56037903 7.77955627 C2.1470741 5.20006409 0.93301935 2.79905806 0 0 Z " fill="#8A8A8A" transform="translate(364,22)"/>
<path d="M0 0 C1.17690973 3.53072918 0.85639148 3.91656409 -0.703125 7.12109375 C-1.10112305 7.95995117 -1.49912109 8.79880859 -1.90917969 9.66308594 C-2.35165039 10.57864258 -2.79412109 11.49419922 -3.25 12.4375 C-9.47196249 25.71428611 -14.83322938 39.28267951 -20 53 C-20.30389648 53.79728516 -20.60779297 54.59457031 -20.92089844 55.41601562 C-27.19115037 72.07984957 -30.81747629 89.72508743 -35 107 C-35.33 107 -35.66 107 -36 107 C-36 105.35 -36 103.7 -36 102 C-36.66 102 -37.32 102 -38 102 C-37.505 101.01 -37.505 101.01 -37 100 C-36.67 100 -36.34 100 -36 100 C-34.73167384 95.1448979 -33.46842018 90.28851396 -32.2097168 85.4309082 C-31.78139954 83.78081234 -31.35173211 82.13106629 -30.9206543 80.48168945 C-30.29895865 78.10199662 -29.68223372 75.72106101 -29.06640625 73.33984375 C-28.77885216 72.24566383 -28.77885216 72.24566383 -28.48548889 71.12937927 C-27.62770379 67.79466746 -26.96048215 64.66255816 -26.55834961 61.22875977 C-25.96402159 57.79194822 -25.16293385 56.62796296 -23 54 C-22.13530613 52.06423152 -21.33504831 50.09907054 -20.58203125 48.1171875 C-20.13609619 46.95799805 -19.69016113 45.79880859 -19.23071289 44.60449219 C-18.76270264 43.37375977 -18.29469238 42.14302734 -17.8125 40.875 C-16.83355933 38.33381396 -15.84791988 35.79527654 -14.859375 33.2578125 C-14.61550552 32.63156982 -14.37163605 32.00532715 -14.12037659 31.36010742 C-12.06067762 26.09869219 -9.87221664 20.90602845 -7.5625 15.75 C-7.25739502 15.0679248 -6.95229004 14.38584961 -6.63793945 13.68310547 C-4.54161434 9.06204305 -2.28931549 4.52831635 0 0 Z " fill="#8A8B8C" transform="translate(59,456)"/>
<path d="M0 0 C4.05202856 1.26625892 7.88408232 2.79305895 11.75561523 4.51196289 C42.04093107 17.84435419 74.32026962 26.24138851 107 31 C107 31.33 107 31.66 107 32 C99.46899219 32.29916279 92.50532605 31.46312026 85.125 30 C84.00875244 29.78142334 82.89250488 29.56284668 81.74243164 29.33764648 C60.90527179 25.08619955 39.96246331 19.12960407 20.4453125 10.59375 C19.49003662 10.17601318 18.53476074 9.75827637 17.55053711 9.32788086 C15.67840697 8.50045266 13.81170994 7.66059152 11.95141602 6.80688477 C11.10506592 6.42846436 10.25871582 6.05004395 9.38671875 5.66015625 C8.63608154 5.31605713 7.88544434 4.97195801 7.11206055 4.61743164 C4.67016035 3.90357595 3.37166232 4.17030401 1 5 C0.67 3.35 0.34 1.7 0 0 Z " fill="#848585" transform="translate(178,865)"/>
<path d="M0 0 C2.265625 0.08203125 2.265625 0.08203125 5 1 C6.52573319 3.2675759 7.63404814 5.23290634 8.75 7.6875 C9.05292969 8.30044922 9.35585938 8.91339844 9.66796875 9.54492188 C11.47783364 13.33759431 12.51345702 16.83237522 13 21 C12.505 20.01 12.505 20.01 12 19 C11.34 18.67 10.68 18.34 10 18 C9.31867549 16.33927151 8.65257873 14.672233 8 13 C7.34 12.34 6.68 11.68 6 11 C5 8 5 8 5 5 C4.34 5.33 3.68 5.66 3 6 C3 4.68 3 3.36 3 2 C-0.73639216 3.24546405 -1.18756513 4.63404953 -3 8 C-2.34 8 -1.68 8 -1 8 C-1.33 8.66 -1.66 9.32 -2 10 C-2.66 9.67 -3.32 9.34 -4 9 C-4.19335938 9.58007812 -4.38671875 10.16015625 -4.5859375 10.7578125 C-6.05729167 15.171875 -7.52864583 19.5859375 -9 24 C-9.66 24 -10.32 24 -11 24 C-11.36472412 25.21055054 -11.36472412 25.21055054 -11.73681641 26.44555664 C-13.26793703 30.75394186 -15.19826434 34.77047283 -17.2109375 38.87109375 C-17.62034576 39.7116481 -18.02975403 40.55220245 -18.4515686 41.41822815 C-19.31553469 43.18992898 -20.1813246 44.96074146 -21.04882812 46.73071289 C-22.36792234 49.42305412 -23.68049595 52.11849895 -24.9921875 54.81445312 C-25.8355512 56.54185532 -26.67928897 58.26907495 -27.5234375 59.99609375 C-27.91212006 60.79421982 -28.30080261 61.59234589 -28.70126343 62.41465759 C-30.97615414 67.04749175 -33.39153155 71.54605679 -36 76 C-36.33 75.34 -36.66 74.68 -37 74 C-35.94008682 71.58460622 -34.81892933 69.29150775 -33.59375 66.9609375 C-32.84424421 65.50008868 -32.09557383 64.03881101 -31.34765625 62.57714844 C-30.95787598 61.82026733 -30.5680957 61.06338623 -30.16650391 60.28356934 C-28.3268005 56.68213237 -26.55235246 53.04960724 -24.78125 49.4140625 C-24.43213058 48.69862274 -24.08301117 47.98318298 -23.72331238 47.24606323 C-22.64752948 45.0396946 -21.57362208 42.83242078 -20.5 40.625 C-20.12904205 39.86362732 -19.75808411 39.10225464 -19.37588501 38.31781006 C-14.83214868 28.98496167 -10.30819352 19.65420749 -6.33203125 10.06103516 C-4.69686496 6.19471684 -2.7673942 3.15759078 0 0 Z " fill="#9A9A99" transform="translate(335,43)"/>
<path d="M0 0 C0.33 0 0.66 0 1 0 C0.96970703 0.56581787 0.93941406 1.13163574 0.90820312 1.71459961 C-0.54397084 29.59913233 -1.02124455 57.62768621 3.6328125 85.265625 C4.02768216 88.20614372 4.06137205 91.03660689 4 94 C3.67 93.01 3.34 92.02 3 91 C2.34 90.67 1.68 90.34 1 90 C0.62109375 88.3125 0.62109375 88.3125 0.4375 86 C0.32921875 84.67355469 0.32921875 84.67355469 0.21875 83.3203125 C-0.22736165 76.54897498 -0.63054625 69.77593906 -1 63 C-1.66 62.67 -2.32 62.34 -3 62 C-2.34 62 -1.68 62 -1 62 C-1.3290332 60.8769043 -1.65806641 59.75380859 -1.99707031 58.59667969 C-3.1845628 53.82129902 -3.19796276 49.34768753 -3.046875 44.453125 C-3.02659241 43.56067078 -3.00630981 42.66821655 -2.9854126 41.74871826 C-2.94007521 39.86945284 -2.889349 37.99031042 -2.83349609 36.11132812 C-2.75065055 33.27229379 -2.68847499 30.43335747 -2.62890625 27.59375 C-2.40096606 18.23588116 -2.00841023 9.17380729 0 0 Z " fill="#7C7D7E" transform="translate(20,578)"/>
<path d="M0 0 C22.11 0 44.22 0 67 0 C67 0.33 67 0.66 67 1 C43.08349686 2.99643228 43.08349686 2.99643228 31.5 3.6875 C30.37198975 3.75988892 30.37198975 3.75988892 29.22119141 3.83374023 C27.48262861 3.93096655 25.74105396 3.97198799 24 4 C23.67 3.67 23.34 3.34 23 3 C20.45393164 2.78634391 17.92573361 2.62276258 15.375 2.5 C10.18990486 2.24217759 5.1307466 1.80799159 0 1 C0 0.67 0 0.34 0 0 Z " fill="#8C8D8E" transform="translate(303,899)"/>
<path d="M0 0 C0.33 0.66 0.66 1.32 1 2 C0.03125 4.29980469 0.03125 4.29980469 -1.5 7.171875 C-2.33204956 8.74884155 -2.33204956 8.74884155 -3.1809082 10.35766602 C-4.08135864 12.03687134 -4.08135864 12.03687134 -5 13.75 C-6.20263413 16.0243108 -7.40446205 18.29904812 -8.60546875 20.57421875 C-9.18989746 21.67685059 -9.77432617 22.77948242 -10.37646484 23.91552734 C-12.4067775 27.77281608 -14.37757331 31.65665784 -16.3125 35.5625 C-16.84488281 36.63628906 -17.37726563 37.71007812 -17.92578125 38.81640625 C-18.28027344 39.53699219 -18.63476562 40.25757813 -19 41 C-19.66 41 -20.32 41 -21 41 C-21.268125 41.721875 -21.53625 42.44375 -21.8125 43.1875 C-22.98982498 45.97590126 -24.39145884 48.44095724 -26 51 C-26.33 50.34 -26.66 49.68 -27 49 C-26.12646484 46.95068359 -26.12646484 46.95068359 -24.7109375 44.3984375 C-24.18725586 43.44396729 -23.66357422 42.48949707 -23.12402344 41.50610352 C-22.5468457 40.47283936 -21.96966797 39.4395752 -21.375 38.375 C-20.17938311 36.20459474 -18.9840802 34.03401648 -17.7890625 31.86328125 C-17.16676758 30.73873535 -16.54447266 29.61418945 -15.90332031 28.45556641 C-12.23696792 21.79913339 -8.6517374 15.09851734 -5.05224609 8.40576172 C-4.53484863 7.44814941 -4.01745117 6.49053711 -3.484375 5.50390625 C-2.79939941 4.23268921 -2.79939941 4.23268921 -2.10058594 2.93579102 C-1 1 -1 1 0 0 Z " fill="#898989" transform="translate(288,137)"/>
<path d="M0 0 C2.25562394 2.86079133 4.02384557 5.75189028 5.69921875 8.984375 C6.18583984 9.91894531 6.67246094 10.85351562 7.17382812 11.81640625 C7.67333984 12.78449219 8.17285156 13.75257813 8.6875 14.75 C9.19861328 15.73355469 9.70972656 16.71710938 10.23632812 17.73046875 C11.4941117 20.15199601 12.74854136 22.57519965 14 25 C15.32 25 16.64 25 18 25 C17.7834375 25.72832031 17.566875 26.45664063 17.34375 27.20703125 C16.91984574 30.65125334 17.6596421 31.80459893 19.5 34.6875 C20.96875 37.01171875 20.96875 37.01171875 22 39 C21.67 39.66 21.34 40.32 21 41 C15.27273 31.4461027 9.70444927 21.8099781 4.3125 12.0625 C3.77141602 11.09747559 3.23033203 10.13245117 2.67285156 9.13818359 C2.17881836 8.23793457 1.68478516 7.33768555 1.17578125 6.41015625 C0.73145752 5.60715088 0.28713379 4.80414551 -0.1706543 3.97680664 C-0.44433838 3.32446045 -0.71802246 2.67211426 -1 2 C-0.67 1.34 -0.34 0.68 0 0 Z " fill="#929393" transform="translate(413,119)"/>
<path d="M0 0 C1.77110135 2.65665202 3.46308514 5.33679906 5.125 8.0625 C5.66382812 8.94035156 6.20265625 9.81820312 6.7578125 10.72265625 C8 13 8 13 8 15 C9.32 15.33 10.64 15.66 12 16 C12 17.32 12 18.64 12 20 C13.08163645 21.99069591 13.08163645 21.99069591 14.625 23.890625 C15.43710938 24.95410156 15.43710938 24.95410156 16.265625 26.0390625 C16.83796875 26.76867187 17.4103125 27.49828125 18 28.25 C18.57234375 28.99507812 19.1446875 29.74015625 19.734375 30.5078125 C21.14783804 32.34531445 22.56981658 34.17550183 24 36 C23.67 36.66 23.34 37.32 23 38 C18.5140453 32.95915075 14.64380795 27.75858809 10.9375 22.125 C10.43412109 21.37347656 9.93074219 20.62195313 9.41210938 19.84765625 C0 5.65034767 0 5.65034767 0 0 Z " fill="#838485" transform="translate(78,728)"/>
<path d="M0 0 C0.33 0.66 0.66 1.32 1 2 C-0.35549523 4.5525955 -1.76104225 6.94431751 -3.3125 9.375 C-3.76455811 10.09091309 -4.21661621 10.80682617 -4.68237305 11.54443359 C-8.95551953 18.1747958 -13.80236716 24.07731922 -19 30 C-20.67711766 31.99154076 -22.33895576 33.9949873 -24 36 C-24.495 34.515 -24.495 34.515 -25 33 C-24.27167969 32.29617188 -23.54335938 31.59234375 -22.79296875 30.8671875 C-13.79368114 21.85208391 -6.91139654 10.63178659 0 0 Z " fill="#909192" transform="translate(589,739)"/>
<path d="M0 0 C3.8122567 3.52913574 6.33191927 6.94617601 8.8125 11.5 C12.19328427 17.64270199 15.82822152 23.56170443 19.62890625 29.453125 C20.08136719 30.29359375 20.53382813 31.1340625 21 32 C20.67 32.66 20.34 33.32 20 34 C17.78942941 30.54309211 15.5819668 27.08420953 13.375 23.625 C12.75753906 22.65949219 12.14007812 21.69398438 11.50390625 20.69921875 C8.47898973 15.95487601 5.47652904 11.19750835 2.5390625 6.3984375 C2.04873535 5.59841309 1.5584082 4.79838867 1.05322266 3.97412109 C0 2 0 2 0 0 Z " fill="#888989" transform="translate(556,353)"/>
<path d="M0 0 C4.2700961 1.42336537 5.38760203 4.58617421 7.5 8.3125 C8.27922581 9.66392958 9.06042587 11.01422303 9.84375 12.36328125 C10.21113281 13.00088379 10.57851563 13.63848633 10.95703125 14.29541016 C12.04045813 16.14555267 12.04045813 16.14555267 13.78125 18.23046875 C15 20 15 20 15 24 C11.87423566 22.43711783 10.81026209 19.34601957 9.1875 16.375 C6.95589871 12.36096307 4.74332965 8.4444554 2 4.75 C0 2 0 2 0 0 Z " fill="#989999" transform="translate(512,348)"/>
<path d="M0 0 C3.66893756 1.22297919 3.91606233 2.10024382 5.734375 5.40234375 C6.22550781 6.29244141 6.71664063 7.18253906 7.22265625 8.09960938 C7.72667969 9.03611328 8.23070312 9.97261719 8.75 10.9375 C9.26949219 11.87013672 9.78898437 12.80277344 10.32421875 13.76367188 C13.1451326 18.93784145 13.1451326 18.93784145 14 21 C13.67 21.66 13.34 22.32 13 23 C11 21.6875 11 21.6875 9 20 C9 19.01 9 18.02 9 17 C8.01604044 15.10690973 8.01604044 15.10690973 6.6875 13.1875 C4.53676298 9.88848813 2.7619102 6.5238204 1 3 C0.34 2.34 -0.32 1.68 -1 1 C-0.67 0.67 -0.34 0.34 0 0 Z " fill="#9E9E9E" transform="translate(395,159)"/>
<path d="M0 0 C0 0.66 0 1.32 0 2 C1.134375 2.28875 2.26875 2.5775 3.4375 2.875 C4.613125 3.24625 5.78875 3.6175 7 4 C7.33 4.66 7.66 5.32 8 6 C7.47535156 5.79503906 6.95070313 5.59007812 6.41015625 5.37890625 C-1.93015761 2.47853088 -10.25908128 2.29406803 -19 2 C-18.67 1.34 -18.34 0.68 -18 0 C-11.9260886 -1.45245707 -6.15065277 -0.72295195 0 0 Z " fill="#969696" transform="translate(348,9)"/>
<path d="M0 0 C1.28253196 3.63828056 0.70925239 6.16299043 -0.21484375 9.859375 C-0.48876953 10.97441406 -0.76269531 12.08945312 -1.04492188 13.23828125 C-1.33947266 14.39714844 -1.63402344 15.55601562 -1.9375 16.75 C-2.22818359 17.92433594 -2.51886719 19.09867188 -2.81835938 20.30859375 C-3.53729359 23.20790223 -4.26479233 26.10478324 -5 29 C-5.33 29 -5.66 29 -6 29 C-6 27.35 -6 25.7 -6 24 C-6.66 24 -7.32 24 -8 24 C-7.67 23.34 -7.34 22.68 -7 22 C-6.67 22 -6.34 22 -6 22 C-5.85377197 21.40461426 -5.70754395 20.80922852 -5.55688477 20.19580078 C-4.89454315 17.50492304 -4.22856732 14.81495783 -3.5625 12.125 C-3.21735352 10.71927734 -3.21735352 10.71927734 -2.86523438 9.28515625 C-2.64287109 8.38925781 -2.42050781 7.49335937 -2.19140625 6.5703125 C-1.88505249 5.32918701 -1.88505249 5.32918701 -1.57250977 4.06298828 C-1 2 -1 2 0 0 Z " fill="#878888" transform="translate(29,534)"/>
<path d="M0 0 C5.11494048 4.32342173 10.05842499 8.78799916 14.9375 13.375 C15.62134766 14.01566406 16.30519531 14.65632812 17.00976562 15.31640625 C18.67441797 16.87629027 20.3378019 18.43750173 22 20 C17.81768348 20 16.11464555 17.67900669 13.25 14.9375 C12.71793945 14.43742432 12.18587891 13.93734863 11.63769531 13.42211914 C10.0840007 11.95602645 8.54110956 10.47930035 7 9 C6.2265625 8.2678125 5.453125 7.535625 4.65625 6.78125 C1.15436765 3.39418347 1.15436765 3.39418347 0 2 C0 1.34 0 0.68 0 0 Z " fill="#888A8A" transform="translate(92,803)"/>
<path d="M0 0 C0.33 0 0.66 0 1 0 C1.22531972 3.29073662 1.42735982 6.58249419 1.625 9.875 C1.68945312 10.81214844 1.75390625 11.74929688 1.8203125 12.71484375 C1.871875 13.61074219 1.9234375 14.50664063 1.9765625 15.4296875 C2.02893066 16.25710449 2.08129883 17.08452148 2.13525391 17.93701172 C2 20 2 20 0 22 C0 19.69 0 17.38 0 15 C-0.66 14.67 -1.32 14.34 -2 14 C-1.34 14 -0.68 14 0 14 C-0.37125 12.80375 -0.7425 11.6075 -1.125 10.375 C-2.15732434 6.34606752 -1.73101363 3.84669696 0 0 Z " fill="#9A9A9B" transform="translate(19,626)"/>
<path d="M0 0 C3 1 3 1 3.9831543 2.58227539 C4.26070557 3.24735107 4.53825684 3.91242676 4.82421875 4.59765625 C5.13037109 5.31630859 5.43652344 6.03496094 5.75195312 6.77539062 C6.06068359 7.53013672 6.36941406 8.28488281 6.6875 9.0625 C7.00783203 9.82111328 7.32816406 10.57972656 7.65820312 11.36132812 C8.44850702 13.23682542 9.22552197 15.1179123 10 17 C9.34 17.33 8.68 17.66 8 18 C5.20324781 13.48910937 3.7577482 10.30423742 3 5 C2.34 4.67 1.68 4.34 1 4 C0.375 1.9375 0.375 1.9375 0 0 Z " fill="#9E9FA0" transform="translate(577,458)"/>
<path d="M0 0 C0.33 0.66 0.66 1.32 1 2 C-0.328125 4.75 -0.328125 4.75 -2.25 8 C-3.18585938 9.60875 -3.18585938 9.60875 -4.140625 11.25 C-6 14 -6 14 -9 16 C-7.56691865 12.04093183 -5.66858051 8.71281819 -3.375 5.1875 C-2.74335938 4.21167969 -2.11171875 3.23585938 -1.4609375 2.23046875 C-0.73777344 1.12638672 -0.73777344 1.12638672 0 0 Z " fill="#878686" transform="translate(220,255)"/>
<path d="M0 0 C4.47238653 1.41807378 8.71146306 3.11304374 13 5 C13 5.66 13 6.32 13 7 C12.0925 6.690625 11.185 6.38125 10.25 6.0625 C6.64224773 4.88304253 3.79460454 4 0 4 C0 2.68 0 1.36 0 0 Z " fill="#9E9FA0" transform="translate(178,865)"/>
<path d="M0 0 C1.32 0.33 2.64 0.66 4 1 C4 2.32 4 3.64 4 5 C4.2981424 6.34164079 4.62243192 7.67851173 5 9 C0.57142857 3.85714286 0.57142857 3.85714286 0 0 Z " fill="#A8A9AA" transform="translate(86,743)"/>
<path d="M0 0 C2.3125 -0.3125 2.3125 -0.3125 5 0 C6.875 2.375 6.875 2.375 8 5 C7.67 5.66 7.34 6.32 7 7 C5.83040013 6.02433888 4.66438823 5.044375 3.5 4.0625 C2.8503125 3.51722656 2.200625 2.97195312 1.53125 2.41015625 C1.0259375 1.94480469 0.520625 1.47945312 0 1 C0 0.67 0 0.34 0 0 Z " fill="#A9A9A9" transform="translate(356,15)"/>
<path d="M0 0 C0 0.99 0 1.98 0 3 C-0.66 2.67 -1.32 2.34 -2 2 C-1.34 1.34 -0.68 0.68 0 0 Z " fill="#F9F8FA" transform="translate(27,698)"/>
<path d="M0 0 C0.66 0 1.32 0 2 0 C1.67 0.99 1.34 1.98 1 3 C0.67 2.01 0.34 1.02 0 0 Z " fill="#FAF9F9" transform="translate(613,563)"/>
<path d="M0 0 C0.66 1.32 1.32 2.64 2 4 C1.34 3.67 0.68 3.34 0 3 C0 2.01 0 1.02 0 0 Z " fill="#FAFBF9" transform="translate(553,418)"/>
<path d="M0 0 C0.66 0 1.32 0 2 0 C1.67 0.99 1.34 1.98 1 3 C0.67 2.01 0.34 1.02 0 0 Z " fill="#F5F5F5" transform="translate(161,279)"/>
<path d="M0 0 C0.66 0.33 1.32 0.66 2 1 C1.01 1.66 0.02 2.32 -1 3 C-0.67 2.01 -0.34 1.02 0 0 Z " fill="#F7F7F6" transform="translate(180,248)"/>
<path d="M0 0 C0.66 0.33 1.32 0.66 2 1 C1.67 1.66 1.34 2.32 1 3 C0.34 2.34 -0.32 1.68 -1 1 C-0.67 0.67 -0.34 0.34 0 0 Z " fill="#F9FAFA" transform="translate(371,117)"/>
<path d="M0 0 C1 4 1 4 1 4 Z " fill="#F8F7F7" transform="translate(17,586)"/>
<path d="M0 0 C0.66 0.66 1.32 1.32 2 2 C1.01 1.67 0.02 1.34 -1 1 C-0.67 0.67 -0.34 0.34 0 0 Z " fill="#FBFBFB" transform="translate(86,485)"/>
<path d="M0 0 C0.66 0 1.32 0 2 0 C2 0.66 2 1.32 2 2 C1.34 2 0.68 2 0 2 C0 1.34 0 0.68 0 0 Z " fill="#F8F8FA" transform="translate(81,407)"/>
<path d="M0 0 C1.485 0.99 1.485 0.99 3 2 C2.01 2 1.02 2 0 2 C0 1.34 0 0.68 0 0 Z " fill="#F6F6F6" transform="translate(153,289)"/>
<path d="M0 0 C0.99 0.495 0.99 0.495 2 1 C1.34 1.66 0.68 2.32 0 3 C0 2.01 0 1.02 0 0 Z " fill="#F3F5F5" transform="translate(177,248)"/>
<path d="M0 0 C0.99 1.485 0.99 1.485 2 3 C1.34 3 0.68 3 0 3 C0 2.01 0 1.02 0 0 Z " fill="#F6F8F7" transform="translate(433,226)"/>
<path d="M0 0 C0 3 0 3 0 3 Z " fill="#F8F8F7" transform="translate(463,199)"/>
<path d="M0 0 C3 1 3 1 3 1 Z " fill="#F7F9F8" transform="translate(357,902)"/>
<path d="M0 0 C0.66 0 1.32 0 2 0 C1.67 0.66 1.34 1.32 1 2 C0.67 1.34 0.34 0.68 0 0 Z " fill="#FAFCFD" transform="translate(428,893)"/>
<path d="M0 0 C3 1 3 1 3 1 Z " fill="#FBFCFA" transform="translate(261,855)"/>
<path d="M0 0 C0.66 0.66 1.32 1.32 2 2 C1.34 2 0.68 2 0 2 C0 1.34 0 0.68 0 0 Z " fill="#F5F5F4" transform="translate(547,836)"/>
<path d="M0 0 C0.33 0.66 0.66 1.32 1 2 C0.34 1.67 -0.32 1.34 -1 1 C-0.67 0.67 -0.34 0.34 0 0 Z " fill="#FAFAFB" transform="translate(163,816)"/>
<path d="M0 0 C0.33 0.66 0.66 1.32 1 2 C0.34 1.67 -0.32 1.34 -1 1 C-0.67 0.67 -0.34 0.34 0 0 Z " fill="#F6F7F6" transform="translate(599,789)"/>
<path d="M0 0 C0.33 0.66 0.66 1.32 1 2 C0.34 1.67 -0.32 1.34 -1 1 C-0.67 0.67 -0.34 0.34 0 0 Z " fill="#F2F2F5" transform="translate(74,786)"/>
<path d="M0 0 C0.66 0 1.32 0 2 0 C1.67 0.66 1.34 1.32 1 2 C0.67 1.34 0.34 0.68 0 0 Z " fill="#FAFAFB" transform="translate(610,679)"/>
<path d="M0 0 C0.66 0.66 1.32 1.32 2 2 C1.34 2 0.68 2 0 2 C0 1.34 0 0.68 0 0 Z " fill="#F5F7F7" transform="translate(18,658)"/>
<path d="M0 0 C0.33 0.66 0.66 1.32 1 2 C0.34 1.67 -0.32 1.34 -1 1 C-0.67 0.67 -0.34 0.34 0 0 Z " fill="#F5F5F6" transform="translate(18,651)"/>
<path d="" fill="#F7F8F7" transform="translate(0,0)"/>
<path d="" fill="#F2F1F3" transform="translate(0,0)"/>
<path d="M0 0 C0.99 0.495 0.99 0.495 2 1 C1.01 1.495 1.01 1.495 0 2 C0 1.34 0 0.68 0 0 Z " fill="#FAFCFC" transform="translate(69,525)"/>
<path d="M0 0 C0.66 0 1.32 0 2 0 C1.67 0.66 1.34 1.32 1 2 C0.67 1.34 0.34 0.68 0 0 Z " fill="#F8F8F7" transform="translate(630,486)"/>
<path d="" fill="#FDFBFA" transform="translate(0,0)"/>
<path d="M0 0 C0.66 0.66 1.32 1.32 2 2 C1.34 2 0.68 2 0 2 C0 1.34 0 0.68 0 0 Z " fill="#F6F6F5" transform="translate(622,468)"/>
<path d="" fill="#F5F6F5" transform="translate(0,0)"/>
<path d="M0 0 C3 1 3 1 3 1 Z " fill="#FBFBF9" transform="translate(546,410)"/>
<path d="M0 0 C0.33 0.66 0.66 1.32 1 2 C0.34 1.67 -0.32 1.34 -1 1 C-0.67 0.67 -0.34 0.34 0 0 Z " fill="#F5F6F8" transform="translate(122,336)"/>
<path d="M0 0 C0.66 0.66 1.32 1.32 2 2 C1.34 2 0.68 2 0 2 C0 1.34 0 0.68 0 0 Z " fill="#F9FAF9" transform="translate(451,260)"/>
<path d="M0 0 C3 1 3 1 3 1 Z " fill="#F9F7F8" transform="translate(494,253)"/>
<path d="M0 0 C0.33 0.66 0.66 1.32 1 2 C0.34 1.67 -0.32 1.34 -1 1 C-0.67 0.67 -0.34 0.34 0 0 Z " fill="#F3F2F3" transform="translate(202,207)"/>
<path d="M0 0 C0.33 0.66 0.66 1.32 1 2 C0.34 1.67 -0.32 1.34 -1 1 C-0.67 0.67 -0.34 0.34 0 0 Z " fill="#FBFBFA" transform="translate(382,137)"/>
<path d="M0 0 C0.66 0 1.32 0 2 0 C1.67 0.66 1.34 1.32 1 2 C0.67 1.34 0.34 0.68 0 0 Z " fill="#F8F8F8" transform="translate(419,128)"/>
<path d="M0 0 C0.99 0.495 0.99 0.495 2 1 C1.01 1.495 1.01 1.495 0 2 C0 1.34 0 0.68 0 0 Z " fill="#FAFBFA" transform="translate(365,106)"/>
<path d="" fill="#FBFCFA" transform="translate(0,0)"/>
<path d="" fill="#F6F4F4" transform="translate(0,0)"/>
<path d="M0 0 C2 1 2 1 2 1 Z " fill="#FCFCFD" transform="translate(395,900)"/>
<path d="M0 0 C2 1 2 1 2 1 Z " fill="#F9FAFB" transform="translate(288,900)"/>
<path d="" fill="#FAF8FA" transform="translate(0,0)"/>
<path d="" fill="#F6F6F8" transform="translate(0,0)"/>
<path d="M0 0 C2 1 2 1 2 1 Z " fill="#F7F8F7" transform="translate(162,860)"/>
<path d="M0 0 C2 1 2 1 2 1 Z " fill="#FBFBFA" transform="translate(434,852)"/>
<path d="" fill="#F4F6F6" transform="translate(0,0)"/>
<path d="" fill="#F5F4F4" transform="translate(0,0)"/>
<path d="" fill="#F7F4F6" transform="translate(0,0)"/>
<path d="" fill="#F9FAF9" transform="translate(0,0)"/>
<path d="M0 0 C2 1 2 1 2 1 Z " fill="#FAF9F7" transform="translate(131,792)"/>
<path d="M0 0 C2 1 2 1 2 1 Z " fill="#F6F5F5" transform="translate(596,789)"/>
<path d="" fill="#F5F3F6" transform="translate(0,0)"/>
<path d="M0 0 C2 1 2 1 2 1 Z " fill="#F7F6F6" transform="translate(65,779)"/>
<path d="" fill="#F9FAF8" transform="translate(0,0)"/>
<path d="" fill="#FDFDFB" transform="translate(0,0)"/>
<path d="M0 0 C2 1 2 1 2 1 Z " fill="#F5F3F6" transform="translate(629,742)"/>
<path d="" fill="#F7F7F6" transform="translate(0,0)"/>
<path d="" fill="#F6F9F6" transform="translate(0,0)"/>
<path d="M0 0 C2 1 2 1 2 1 Z " fill="#F7F6F5" transform="translate(636,724)"/>
<path d="" fill="#F8F6F8" transform="translate(0,0)"/>
<path d="M0 0 C2 1 2 1 2 1 Z " fill="#FDFDFD" transform="translate(593,722)"/>
<path d="M0 0 C2 1 2 1 2 1 Z " fill="#F9F7FA" transform="translate(75,719)"/>
<path d="" fill="#F8F8F8" transform="translate(0,0)"/>
<path d="M0 0 C2 1 2 1 2 1 Z " fill="#F4F5F6" transform="translate(647,693)"/>
<path d="" fill="#FBFCFD" transform="translate(0,0)"/>
<path d="" fill="#FAFAFA" transform="translate(0,0)"/>
<path d="M0 0 C2 1 2 1 2 1 Z " fill="#F4F5F5" transform="translate(652,670)"/>
<path d="" fill="#F4F4F3" transform="translate(0,0)"/>
<path d="" fill="#F8F9FA" transform="translate(0,0)"/>
<path d="" fill="#F9FAFA" transform="translate(0,0)"/>
<path d="" fill="#F8F8F8" transform="translate(0,0)"/>
<path d="" fill="#F5F4F4" transform="translate(0,0)"/>
<path d="" fill="#F6F7F6" transform="translate(0,0)"/>
<path d="" fill="#F8F8F8" transform="translate(0,0)"/>
<path d="" fill="#FBF9F9" transform="translate(0,0)"/>
<path d="" fill="#F8FAF7" transform="translate(0,0)"/>
<path d="M0 0 C2 1 2 1 2 1 Z " fill="#FEFEFB" transform="translate(69,523)"/>
<path d="M0 0 C2 1 2 1 2 1 Z " fill="#FAFBFB" transform="translate(33,506)"/>
<path d="" fill="#F8FAF7" transform="translate(0,0)"/>
<path d="M0 0 C2 1 2 1 2 1 Z " fill="#FBFBFA" transform="translate(86,483)"/>
<path d="" fill="#FEFEFB" transform="translate(0,0)"/>
<path d="M0 0 C2 1 2 1 2 1 Z " fill="#F9F8FC" transform="translate(571,453)"/>
<path d="" fill="#F5F4F5" transform="translate(0,0)"/>
<path d="M0 0 C2 1 2 1 2 1 Z " fill="#F9F9FA" transform="translate(563,437)"/>
<path d="" fill="#F7F6F4" transform="translate(0,0)"/>
<path d="" fill="#FCFDFB" transform="translate(0,0)"/>
<path d="" fill="#FCFBFD" transform="translate(0,0)"/>
<path d="M0 0 C2 1 2 1 2 1 Z " fill="#F3F4F2" transform="translate(81,401)"/>
<path d="" fill="#F0F0EF" transform="translate(0,0)"/>
<path d="" fill="#F6F8F6" transform="translate(0,0)"/>
<path d="" fill="#F6F9F8" transform="translate(0,0)"/>
<path d="" fill="#FBFBFA" transform="translate(0,0)"/>
<path d="" fill="#F2F1F0" transform="translate(0,0)"/>
<path d="M0 0 C2 1 2 1 2 1 Z " fill="#F8F7F7" transform="translate(567,366)"/>
<path d="" fill="#FAF9F8" transform="translate(0,0)"/>
<path d="" fill="#F6F6F5" transform="translate(0,0)"/>
<path d="M0 0 C2 1 2 1 2 1 Z " fill="#F7F8F9" transform="translate(129,329)"/>
<path d="" fill="#F1F3F2" transform="translate(0,0)"/>
<path d="" fill="#F6F8F8" transform="translate(0,0)"/>
<path d="M0 0 C2 1 2 1 2 1 Z " fill="#F7F9F7" transform="translate(483,307)"/>
<path d="" fill="#F7F7F5" transform="translate(0,0)"/>
<path d="" fill="#F4F7F6" transform="translate(0,0)"/>
<path d="" fill="#F3F4F6" transform="translate(0,0)"/>
<path d="M0 0 C2 1 2 1 2 1 Z " fill="#F9F7FA" transform="translate(485,239)"/>
<path d="M0 0 C2 1 2 1 2 1 Z " fill="#FAF7FA" transform="translate(437,236)"/>
<path d="" fill="#F3F3F7" transform="translate(0,0)"/>
<path d="M0 0 C2 1 2 1 2 1 Z " fill="#F5F7F5" transform="translate(194,224)"/>
<path d="" fill="#FCFCFC" transform="translate(0,0)"/>
<path d="" fill="#FDFBFC" transform="translate(0,0)"/>
<path d="M0 0 C2 1 2 1 2 1 Z " fill="#FBFBFA" transform="translate(267,180)"/>
<path d="M0 0 C2 1 2 1 2 1 Z " fill="#F4F2F2" transform="translate(225,174)"/>
<path d="" fill="#FBFAF9" transform="translate(0,0)"/>
<path d="M0 0 C2 1 2 1 2 1 Z " fill="#F6F7F7" transform="translate(431,150)"/>
<path d="" fill="#F6F6F7" transform="translate(0,0)"/>
<path d="" fill="#FAFBFB" transform="translate(0,0)"/>
<path d="M0 0 C2 1 2 1 2 1 Z " fill="#F8F8F8" transform="translate(427,143)"/>
<path d="" fill="#F5F7F4" transform="translate(0,0)"/>
<path d="" fill="#F9FAFA" transform="translate(0,0)"/>
<path d="" fill="#FAFBFC" transform="translate(0,0)"/>
<path d="" fill="#FCF9F9" transform="translate(0,0)"/>
<path d="" fill="#FAF9FA" transform="translate(0,0)"/>
<path d="" fill="#F5F5F5" transform="translate(0,0)"/>
<path d="M0 0 C2 1 2 1 2 1 Z " fill="#FBFCF9" transform="translate(345,70)"/>
<path d="" fill="#FAF8F8" transform="translate(0,0)"/>
<path d="" fill="#F3F4F5" transform="translate(0,0)"/>
<path d="" fill="#F8F6F5" transform="translate(0,0)"/>
<path d="" fill="#F3F3F4" transform="translate(0,0)"/>
<path d="" fill="#FCFAFD" transform="translate(0,0)"/>
<path d="" fill="#FCFCFC" transform="translate(0,0)"/>
<path d="" fill="#FFFFFE" transform="translate(0,0)"/>
<path d="" fill="#F6F6F6" transform="translate(0,0)"/>
<path d="" fill="#FFFEFF" transform="translate(0,0)"/>
<path d="" fill="#FBFDF9" transform="translate(0,0)"/>
<path d="" fill="#F9F9FA" transform="translate(0,0)"/>
<path d="" fill="#FBFBFB" transform="translate(0,0)"/>
<path d="" fill="#FAFAFB" transform="translate(0,0)"/>
<path d="" fill="#F9F9F9" transform="translate(0,0)"/>
<path d="" fill="#FBFCFB" transform="translate(0,0)"/>
<path d="" fill="#F6F8F7" transform="translate(0,0)"/>
<path d="" fill="#FAFBFC" transform="translate(0,0)"/>
<path d="" fill="#FBFAF8" transform="translate(0,0)"/>
<path d="" fill="#F3F6F5" transform="translate(0,0)"/>
<path d="" fill="#F9F8F9" transform="translate(0,0)"/>
<path d="" fill="#F8FAFA" transform="translate(0,0)"/>
<path d="" fill="#F7F9FA" transform="translate(0,0)"/>
<path d="" fill="#F6F8F7" transform="translate(0,0)"/>
<path d="" fill="#F7F6F5" transform="translate(0,0)"/>
<path d="" fill="#F8F8F7" transform="translate(0,0)"/>
<path d="" fill="#F7F8FA" transform="translate(0,0)"/>
<path d="" fill="#FAFAF9" transform="translate(0,0)"/>
<path d="" fill="#F6F9F8" transform="translate(0,0)"/>
<path d="" fill="#F8F5F7" transform="translate(0,0)"/>
<path d="" fill="#F2F5F3" transform="translate(0,0)"/>
<path d="" fill="#F9F8F9" transform="translate(0,0)"/>
<path d="" fill="#F6F6F8" transform="translate(0,0)"/>
<path d="" fill="#F7F8F4" transform="translate(0,0)"/>
<path d="" fill="#F9FBFC" transform="translate(0,0)"/>
<path d="" fill="#F4F6F4" transform="translate(0,0)"/>
<path d="" fill="#FAF9F8" transform="translate(0,0)"/>
<path d="" fill="#FAFBFA" transform="translate(0,0)"/>
<path d="" fill="#F8F6FA" transform="translate(0,0)"/>
<path d="" fill="#F3F4F4" transform="translate(0,0)"/>
<path d="" fill="#FAF9F8" transform="translate(0,0)"/>
<path d="" fill="#FBFCFE" transform="translate(0,0)"/>
<path d="" fill="#FFFFFE" transform="translate(0,0)"/>
<path d="" fill="#FCFCFA" transform="translate(0,0)"/>
<path d="" fill="#F9F8F9" transform="translate(0,0)"/>
<path d="" fill="#F9F9F7" transform="translate(0,0)"/>
<path d="" fill="#FBFCFC" transform="translate(0,0)"/>
<path d="" fill="#FBFDFB" transform="translate(0,0)"/>
<path d="" fill="#FAF9FB" transform="translate(0,0)"/>
<path d="" fill="#F9FCF7" transform="translate(0,0)"/>
<path d="" fill="#FAFBFA" transform="translate(0,0)"/>
<path d="" fill="#F7F5F7" transform="translate(0,0)"/>
<path d="" fill="#F8F8F9" transform="translate(0,0)"/>
<path d="" fill="#F8F8F8" transform="translate(0,0)"/>
<path d="" fill="#FDFAF9" transform="translate(0,0)"/>
<path d="" fill="#F5F7F4" transform="translate(0,0)"/>
<path d="" fill="#F9FBF9" transform="translate(0,0)"/>
<path d="" fill="#FAFBF9" transform="translate(0,0)"/>
<path d="" fill="#FBFDFB" transform="translate(0,0)"/>
<path d="" fill="#FCFBFA" transform="translate(0,0)"/>
<path d="" fill="#F1EFED" transform="translate(0,0)"/>
<path d="" fill="#EDECEA" transform="translate(0,0)"/>
<path d="" fill="#F8FAF8" transform="translate(0,0)"/>
<path d="" fill="#F0F1ED" transform="translate(0,0)"/>
<path d="" fill="#F6F8F7" transform="translate(0,0)"/>
<path d="" fill="#F6F7F6" transform="translate(0,0)"/>
<path d="" fill="#FCF9F9" transform="translate(0,0)"/>
<path d="" fill="#FBFDFB" transform="translate(0,0)"/>
<path d="" fill="#F6F4F3" transform="translate(0,0)"/>
<path d="" fill="#F7F8F8" transform="translate(0,0)"/>
<path d="" fill="#FFFBFC" transform="translate(0,0)"/>
<path d="" fill="#F9FBF8" transform="translate(0,0)"/>
<path d="" fill="#FAFDFA" transform="translate(0,0)"/>
<path d="" fill="#FEFEFC" transform="translate(0,0)"/>
<path d="" fill="#F5F9F8" transform="translate(0,0)"/>
<path d="" fill="#F9FAF8" transform="translate(0,0)"/>
<path d="" fill="#F5F7F6" transform="translate(0,0)"/>
<path d="" fill="#FAFCFA" transform="translate(0,0)"/>
<path d="" fill="#F7F9F7" transform="translate(0,0)"/>
<path d="" fill="#F6F7F7" transform="translate(0,0)"/>
<path d="" fill="#F8F8F9" transform="translate(0,0)"/>
<path d="" fill="#F7F5F7" transform="translate(0,0)"/>
<path d="" fill="#FFFFFC" transform="translate(0,0)"/>
<path d="" fill="#FDF9FD" transform="translate(0,0)"/>
<path d="" fill="#FCFCFA" transform="translate(0,0)"/>
<path d="" fill="#FDFCFA" transform="translate(0,0)"/>
<path d="" fill="#FBFCFA" transform="translate(0,0)"/>
<path d="" fill="#F6F1F3" transform="translate(0,0)"/>
<path d="" fill="#F8F8F8" transform="translate(0,0)"/>
<path d="" fill="#F8FAF8" transform="translate(0,0)"/>
<path d="" fill="#F6F6F4" transform="translate(0,0)"/>
<path d="" fill="#F3F2F0" transform="translate(0,0)"/>
<path d="" fill="#F7F3F6" transform="translate(0,0)"/>
<path d="" fill="#F9F9FB" transform="translate(0,0)"/>
<path d="" fill="#FAFBF8" transform="translate(0,0)"/>
<path d="" fill="#FAFBFB" transform="translate(0,0)"/>
<path d="" fill="#FCF8FA" transform="translate(0,0)"/>
<path d="" fill="#FAFBFC" transform="translate(0,0)"/>
<path d="" fill="#FBFAFB" transform="translate(0,0)"/>
<path d="" fill="#FCFAFC" transform="translate(0,0)"/>
<path d="" fill="#F3F5F4" transform="translate(0,0)"/>
<path d="" fill="#F6F5F3" transform="translate(0,0)"/>
<path d="" fill="#F5FAF7" transform="translate(0,0)"/>
<path d="" fill="#F7F9F8" transform="translate(0,0)"/>
<path d="" fill="#F1EFF2" transform="translate(0,0)"/>
<path d="" fill="#FAF8F9" transform="translate(0,0)"/>
<path d="" fill="#F8F9FA" transform="translate(0,0)"/>
<path d="" fill="#EFEBEF" transform="translate(0,0)"/>
<path d="" fill="#EEEFF2" transform="translate(0,0)"/>
<path d="" fill="#F6F5F3" transform="translate(0,0)"/>
<path d="" fill="#F8F6F9" transform="translate(0,0)"/>
<path d="" fill="#FAFBF9" transform="translate(0,0)"/>
<path d="" fill="#F5F6F7" transform="translate(0,0)"/>
<path d="" fill="#F3F6F6" transform="translate(0,0)"/>
<path d="" fill="#FDFDFB" transform="translate(0,0)"/>
<path d="" fill="#F4F4F3" transform="translate(0,0)"/>
<path d="" fill="#F5F7F5" transform="translate(0,0)"/>
<path d="" fill="#F3F4F5" transform="translate(0,0)"/>
<path d="" fill="#F8F7F7" transform="translate(0,0)"/>
<path d="" fill="#F9F8F7" transform="translate(0,0)"/>
<path d="" fill="#FBFAFA" transform="translate(0,0)"/>
<path d="" fill="#F5F6F4" transform="translate(0,0)"/>
<path d="" fill="#FBFBFA" transform="translate(0,0)"/>
<path d="" fill="#FBFAFB" transform="translate(0,0)"/>
<path d="" fill="#FAFCF9" transform="translate(0,0)"/>
<path d="" fill="#FCFCF9" transform="translate(0,0)"/>
<path d="" fill="#FCFBFC" transform="translate(0,0)"/>
<path d="" fill="#FAFBFB" transform="translate(0,0)"/>
<path d="" fill="#F3F6F5" transform="translate(0,0)"/>
<path d="" fill="#F2EFF0" transform="translate(0,0)"/>
<path d="" fill="#FCFDFB" transform="translate(0,0)"/>
<path d="" fill="#FAF8FA" transform="translate(0,0)"/>
<path d="" fill="#F4F1F2" transform="translate(0,0)"/>
<path d="" fill="#FAFAF9" transform="translate(0,0)"/>
<path d="" fill="#F8F8F6" transform="translate(0,0)"/>
<path d="" fill="#F7F7F5" transform="translate(0,0)"/>
<path d="" fill="#FBF9F8" transform="translate(0,0)"/>
<path d="" fill="#F8FAFC" transform="translate(0,0)"/>
<path d="" fill="#F6F7F3" transform="translate(0,0)"/>
<path d="" fill="#F1F1F1" transform="translate(0,0)"/>
<path d="" fill="#F2F5F3" transform="translate(0,0)"/>
<path d="" fill="#FAF9FA" transform="translate(0,0)"/>
<path d="" fill="#F4F4F5" transform="translate(0,0)"/>
<path d="" fill="#F8FAF7" transform="translate(0,0)"/>
<path d="" fill="#FCF7FA" transform="translate(0,0)"/>
<path d="" fill="#F7F7F6" transform="translate(0,0)"/>
<path d="" fill="#F8FBFA" transform="translate(0,0)"/>
<path d="" fill="#F6F3F7" transform="translate(0,0)"/>
<path d="" fill="#EDF0F1" transform="translate(0,0)"/>
<path d="" fill="#FBFCF8" transform="translate(0,0)"/>
<path d="" fill="#FCF8F9" transform="translate(0,0)"/>
<path d="" fill="#F9FAF9" transform="translate(0,0)"/>
<path d="" fill="#FDFAFA" transform="translate(0,0)"/>
<path d="" fill="#F5F6F8" transform="translate(0,0)"/>
<path d="" fill="#F1F1F3" transform="translate(0,0)"/>
<path d="" fill="#F9F7F7" transform="translate(0,0)"/>
<path d="" fill="#F5F3F5" transform="translate(0,0)"/>
<path d="" fill="#FCFCF9" transform="translate(0,0)"/>
<path d="" fill="#F5F4F7" transform="translate(0,0)"/>
<path d="" fill="#F4F5F6" transform="translate(0,0)"/>
<path d="" fill="#EFF2EE" transform="translate(0,0)"/>
<path d="" fill="#F4F3F3" transform="translate(0,0)"/>
<path d="" fill="#F5F8F8" transform="translate(0,0)"/>
<path d="" fill="#F7FBFA" transform="translate(0,0)"/>
<path d="" fill="#F5F9F8" transform="translate(0,0)"/>
<path d="" fill="#F8F8FA" transform="translate(0,0)"/>
<path d="" fill="#FAFDFB" transform="translate(0,0)"/>
<path d="" fill="#F8F9FA" transform="translate(0,0)"/>
<path d="" fill="#F6FAF9" transform="translate(0,0)"/>
<path d="" fill="#F8F6FA" transform="translate(0,0)"/>
<path d="" fill="#F4F7F6" transform="translate(0,0)"/>
<path d="" fill="#F7F6F6" transform="translate(0,0)"/>
<path d="" fill="#F8F8F6" transform="translate(0,0)"/>
<path d="" fill="#F2F2F0" transform="translate(0,0)"/>
<path d="" fill="#F3F5F5" transform="translate(0,0)"/>
<path d="" fill="#F4F5F2" transform="translate(0,0)"/>
<path d="" fill="#F9FBFE" transform="translate(0,0)"/>
<path d="" fill="#FFFDFC" transform="translate(0,0)"/>
<path d="" fill="#F8F8F8" transform="translate(0,0)"/>
<path d="" fill="#FAF9F9" transform="translate(0,0)"/>
<path d="" fill="#FAFEF9" transform="translate(0,0)"/>
<path d="" fill="#FCF9FA" transform="translate(0,0)"/>
<path d="" fill="#FFFEFE" transform="translate(0,0)"/>
<path d="" fill="#F8F6F8" transform="translate(0,0)"/>
<path d="" fill="#F7F8F6" transform="translate(0,0)"/>
<path d="" fill="#F8F7F6" transform="translate(0,0)"/>
<path d="" fill="#FAF6F9" transform="translate(0,0)"/>
<path d="" fill="#F2F3F5" transform="translate(0,0)"/>
<path d="" fill="#F4F6F7" transform="translate(0,0)"/>
<path d="" fill="#F5F8F6" transform="translate(0,0)"/>
<path d="" fill="#F1F3F2" transform="translate(0,0)"/>
<path d="" fill="#F9FBF8" transform="translate(0,0)"/>
<path d="" fill="#F8F9FA" transform="translate(0,0)"/>
<path d="" fill="#F5F6F5" transform="translate(0,0)"/>
<path d="" fill="#F9F8F9" transform="translate(0,0)"/>
<path d="" fill="#F9FBFA" transform="translate(0,0)"/>
<path d="" fill="#FBFCFB" transform="translate(0,0)"/>
<path d="" fill="#FFFCFD" transform="translate(0,0)"/>
<path d="" fill="#FAF9FD" transform="translate(0,0)"/>
<path d="" fill="#FCFEFD" transform="translate(0,0)"/>
<path d="" fill="#FDFDFF" transform="translate(0,0)"/>
<path d="" fill="#F9F9FA" transform="translate(0,0)"/>
<path d="" fill="#FCFEFF" transform="translate(0,0)"/>
<path d="" fill="#F9F8F9" transform="translate(0,0)"/>
<path d="" fill="#F5F7F6" transform="translate(0,0)"/>
<path d="" fill="#F7F6F5" transform="translate(0,0)"/>
<path d="" fill="#F7F9F9" transform="translate(0,0)"/>
<path d="" fill="#F8FBFA" transform="translate(0,0)"/>
<path d="" fill="#F8F4F4" transform="translate(0,0)"/>
<path d="" fill="#F9FAF8" transform="translate(0,0)"/>
<path d="" fill="#F6F7F8" transform="translate(0,0)"/>
<path d="" fill="#F8F7F7" transform="translate(0,0)"/>
<path d="" fill="#F7FCF9" transform="translate(0,0)"/>
<path d="" fill="#FEFEFE" transform="translate(0,0)"/>
<path d="" fill="#F8F4F6" transform="translate(0,0)"/>
<path d="" fill="#F7F8F8" transform="translate(0,0)"/>
<path d="" fill="#FBF9FC" transform="translate(0,0)"/>
<path d="" fill="#F7F7F9" transform="translate(0,0)"/>
<path d="" fill="#FAFAF8" transform="translate(0,0)"/>
<path d="" fill="#F9FAF9" transform="translate(0,0)"/>
<path d="" fill="#F7F8F8" transform="translate(0,0)"/>
<path d="" fill="#FCFDFD" transform="translate(0,0)"/>
<path d="" fill="#FAFBFB" transform="translate(0,0)"/>
<path d="" fill="#F8FDF9" transform="translate(0,0)"/>
<path d="" fill="#FCFEFC" transform="translate(0,0)"/>
<path d="" fill="#FEFCFC" transform="translate(0,0)"/>
<path d="" fill="#FBFCFC" transform="translate(0,0)"/>
<path d="" fill="#FBF9FB" transform="translate(0,0)"/>
<path d="" fill="#F9FBFB" transform="translate(0,0)"/>
<path d="" fill="#F7F9F8" transform="translate(0,0)"/>
<path d="" fill="#FAFBFB" transform="translate(0,0)"/>
<path d="" fill="#FAF9F6" transform="translate(0,0)"/>
<path d="" fill="#F0F3F2" transform="translate(0,0)"/>
<path d="" fill="#F6F8F6" transform="translate(0,0)"/>
<path d="" fill="#F6F4F7" transform="translate(0,0)"/>
<path d="" fill="#F7F7F6" transform="translate(0,0)"/>
<path d="" fill="#FAF7F8" transform="translate(0,0)"/>
<path d="" fill="#F9FAF7" transform="translate(0,0)"/>
<path d="" fill="#F8F6F8" transform="translate(0,0)"/>
<path d="" fill="#F7F7F9" transform="translate(0,0)"/>
<path d="" fill="#F6F7F7" transform="translate(0,0)"/>
<path d="" fill="#FDFCFD" transform="translate(0,0)"/>
<path d="" fill="#F9F9F9" transform="translate(0,0)"/>
<path d="" fill="#FDFBFD" transform="translate(0,0)"/>
<path d="" fill="#FEFFFC" transform="translate(0,0)"/>
<path d="" fill="#FBFBFB" transform="translate(0,0)"/>
<path d="" fill="#F6F6F3" transform="translate(0,0)"/>
<path d="" fill="#F1EEEF" transform="translate(0,0)"/>
<path d="" fill="#F9FBF9" transform="translate(0,0)"/>
<path d="" fill="#F2F3F7" transform="translate(0,0)"/>
<path d="" fill="#FFFEFE" transform="translate(0,0)"/>
<path d="" fill="#FCF9FD" transform="translate(0,0)"/>
<path d="" fill="#F8F8F7" transform="translate(0,0)"/>
<path d="" fill="#FBFBFA" transform="translate(0,0)"/>
<path d="" fill="#FBF9F6" transform="translate(0,0)"/>
<path d="" fill="#F9F9FD" transform="translate(0,0)"/>
<path d="" fill="#F7F7F7" transform="translate(0,0)"/>
<path d="" fill="#F8FBFA" transform="translate(0,0)"/>
<path d="" fill="#F6F2F0" transform="translate(0,0)"/>
<path d="" fill="#F5F5F3" transform="translate(0,0)"/>
<path d="" fill="#F8FBF9" transform="translate(0,0)"/>
<path d="" fill="#FDFBFB" transform="translate(0,0)"/>
<path d="" fill="#F3F4F4" transform="translate(0,0)"/>
<path d="" fill="#FAFBFA" transform="translate(0,0)"/>
<path d="" fill="#FBFBFA" transform="translate(0,0)"/>
<path d="" fill="#F9F9F7" transform="translate(0,0)"/>
<path d="" fill="#FAF9FA" transform="translate(0,0)"/>
<path d="" fill="#FBFBFB" transform="translate(0,0)"/>
<path d="" fill="#F5F5F3" transform="translate(0,0)"/>
<path d="" fill="#F9F9F5" transform="translate(0,0)"/>
<path d="" fill="#FCFBFB" transform="translate(0,0)"/>
<path d="" fill="#FCF8F9" transform="translate(0,0)"/>
<path d="" fill="#FCF7F7" transform="translate(0,0)"/>
<path d="" fill="#FDF9FC" transform="translate(0,0)"/>
<path d="" fill="#F9F6F8" transform="translate(0,0)"/>
<path d="" fill="#F6F9F7" transform="translate(0,0)"/>
<path d="" fill="#F5F5F5" transform="translate(0,0)"/>
<path d="" fill="#F3F6F4" transform="translate(0,0)"/>
<path d="" fill="#FAF9F9" transform="translate(0,0)"/>
<path d="" fill="#FBF8FB" transform="translate(0,0)"/>
<path d="" fill="#F7F6F9" transform="translate(0,0)"/>
<path d="" fill="#FCFDFB" transform="translate(0,0)"/>
<path d="" fill="#F7F7F7" transform="translate(0,0)"/>
<path d="" fill="#FAF8F9" transform="translate(0,0)"/>
<path d="" fill="#FAFCFA" transform="translate(0,0)"/>
<path d="" fill="#F8F5F6" transform="translate(0,0)"/>
<path d="" fill="#F9F9F9" transform="translate(0,0)"/>
<path d="" fill="#F9FAF8" transform="translate(0,0)"/>
<path d="" fill="#FCFBFB" transform="translate(0,0)"/>
<path d="" fill="#F4F7F7" transform="translate(0,0)"/>
<path d="" fill="#F8FAFB" transform="translate(0,0)"/>
<path d="" fill="#FFF8FE" transform="translate(0,0)"/>
<path d="" fill="#FDFCFA" transform="translate(0,0)"/>
<path d="" fill="#F6F7F4" transform="translate(0,0)"/>
<path d="" fill="#FAF9F6" transform="translate(0,0)"/>
<path d="" fill="#FAF7F8" transform="translate(0,0)"/>
<path d="" fill="#F6F6F7" transform="translate(0,0)"/>
<path d="" fill="#FBFCFD" transform="translate(0,0)"/>
<path d="" fill="#FAFDFB" transform="translate(0,0)"/>
<path d="" fill="#F8F8FA" transform="translate(0,0)"/>
<path d="" fill="#FAF9F7" transform="translate(0,0)"/>
<path d="" fill="#FCF9F8" transform="translate(0,0)"/>
<path d="" fill="#FCFBFB" transform="translate(0,0)"/>
<path d="" fill="#F8FAF9" transform="translate(0,0)"/>
<path d="" fill="#FCFDFC" transform="translate(0,0)"/>
<path d="" fill="#FAFAFB" transform="translate(0,0)"/>
<path d="" fill="#FAFBF8" transform="translate(0,0)"/>
<path d="" fill="#F5F2F2" transform="translate(0,0)"/>
<path d="" fill="#F5F6F7" transform="translate(0,0)"/>
<path d="" fill="#F3F4F4" transform="translate(0,0)"/>
<path d="" fill="#FAFAF9" transform="translate(0,0)"/>
<path d="" fill="#F9F7F7" transform="translate(0,0)"/>
<path d="" fill="#FAFAFA" transform="translate(0,0)"/>
<path d="" fill="#F7F9F3" transform="translate(0,0)"/>
<path d="" fill="#F8F9F9" transform="translate(0,0)"/>
<path d="" fill="#FCFCFA" transform="translate(0,0)"/>
<path d="" fill="#FBF6F8" transform="translate(0,0)"/>
<path d="" fill="#F7F9FB" transform="translate(0,0)"/>
<path d="" fill="#F5F6F4" transform="translate(0,0)"/>
<path d="" fill="#F6F5F5" transform="translate(0,0)"/>
<path d="" fill="#F9F7F5" transform="translate(0,0)"/>
<path d="" fill="#F4F3F2" transform="translate(0,0)"/>
<path d="" fill="#F8FAF8" transform="translate(0,0)"/>
<path d="" fill="#F9F8FA" transform="translate(0,0)"/>
<path d="" fill="#F4F8F4" transform="translate(0,0)"/>
<path d="" fill="#F6F8F9" transform="translate(0,0)"/>
<path d="" fill="#FBF9FB" transform="translate(0,0)"/>
<path d="" fill="#F7FAF9" transform="translate(0,0)"/>
<path d="" fill="#F7FAF8" transform="translate(0,0)"/>
<path d="" fill="#F7F6F4" transform="translate(0,0)"/>
<path d="" fill="#F9FAFA" transform="translate(0,0)"/>
<path d="" fill="#FAFAF9" transform="translate(0,0)"/>
<path d="" fill="#F7F8F7" transform="translate(0,0)"/>
<path d="" fill="#F6F6F6" transform="translate(0,0)"/>
<path d="" fill="#F5F4F3" transform="translate(0,0)"/>
<path d="" fill="#F6FAF7" transform="translate(0,0)"/>
<path d="" fill="#F3F5F5" transform="translate(0,0)"/>
<path d="" fill="#F8F8F9" transform="translate(0,0)"/>
<path d="" fill="#F6F8FA" transform="translate(0,0)"/>
<path d="" fill="#F7F9F8" transform="translate(0,0)"/>
<path d="" fill="#FCFCFC" transform="translate(0,0)"/>
<path d="" fill="#FAFAF9" transform="translate(0,0)"/>
<path d="" fill="#FAFBF8" transform="translate(0,0)"/>
<path d="" fill="#F8F8F7" transform="translate(0,0)"/>
<path d="" fill="#F9F9F9" transform="translate(0,0)"/>
<path d="" fill="#F7F8F7" transform="translate(0,0)"/>
<path d="" fill="#FCFBFB" transform="translate(0,0)"/>
<path d="" fill="#F2F2F2" transform="translate(0,0)"/>
<path d="" fill="#F7F8F6" transform="translate(0,0)"/>
<path d="" fill="#F9F6F8" transform="translate(0,0)"/>
<path d="" fill="#F7F7F6" transform="translate(0,0)"/>
<path d="" fill="#F9F8F9" transform="translate(0,0)"/>
<path d="" fill="#F9F7F8" transform="translate(0,0)"/>
<path d="" fill="#F8F9F6" transform="translate(0,0)"/>
<path d="" fill="#F7F6F7" transform="translate(0,0)"/>
<path d="" fill="#F0F3F1" transform="translate(0,0)"/>
<path d="" fill="#F8F8F6" transform="translate(0,0)"/>
<path d="" fill="#F5F8F4" transform="translate(0,0)"/>
<path d="" fill="#F7F6F7" transform="translate(0,0)"/>
<path d="" fill="#FAFDFF" transform="translate(0,0)"/>
<path d="" fill="#F2F2F0" transform="translate(0,0)"/>
<path d="" fill="#F9F5F9" transform="translate(0,0)"/>
<path d="" fill="#F8FBF9" transform="translate(0,0)"/>
<path d="" fill="#F8F8F7" transform="translate(0,0)"/>
<path d="" fill="#FCFDFA" transform="translate(0,0)"/>
<path d="" fill="#F8FAFA" transform="translate(0,0)"/>
<path d="" fill="#F9FBF6" transform="translate(0,0)"/>
<path d="" fill="#F9F8F9" transform="translate(0,0)"/>
<path d="" fill="#F8F6F7" transform="translate(0,0)"/>
<path d="" fill="#FAFAF8" transform="translate(0,0)"/>
<path d="" fill="#F7F7F9" transform="translate(0,0)"/>
<path d="" fill="#F6F5F4" transform="translate(0,0)"/>
<path d="" fill="#F6F2F5" transform="translate(0,0)"/>
<path d="" fill="#F1F6F6" transform="translate(0,0)"/>
<path d="" fill="#F7F8F8" transform="translate(0,0)"/>
<path d="" fill="#F7FAF9" transform="translate(0,0)"/>
<path d="" fill="#FAFAFA" transform="translate(0,0)"/>
<path d="" fill="#F7F7F6" transform="translate(0,0)"/>
<path d="" fill="#F9F8FA" transform="translate(0,0)"/>
<path d="" fill="#FCFBFB" transform="translate(0,0)"/>
<path d="" fill="#F6F8F6" transform="translate(0,0)"/>
<path d="" fill="#FBFAFB" transform="translate(0,0)"/>
<path d="" fill="#F7F9F4" transform="translate(0,0)"/>
<path d="" fill="#F9F8F8" transform="translate(0,0)"/>
<path d="" fill="#F5F7F9" transform="translate(0,0)"/>
<path d="" fill="#F6F3F5" transform="translate(0,0)"/>
<path d="" fill="#F2F4F2" transform="translate(0,0)"/>
<path d="" fill="#F6F7F7" transform="translate(0,0)"/>
<path d="" fill="#F9F8F4" transform="translate(0,0)"/>
<path d="" fill="#FEFCF5" transform="translate(0,0)"/>
<path d="" fill="#F4F4F3" transform="translate(0,0)"/>
<path d="" fill="#F5F6F5" transform="translate(0,0)"/>
<path d="" fill="#F5F5F4" transform="translate(0,0)"/>
<path d="" fill="#F7F9F7" transform="translate(0,0)"/>
<path d="" fill="#FAF9FA" transform="translate(0,0)"/>
<path d="" fill="#FAFBF8" transform="translate(0,0)"/>
<path d="" fill="#F1F4F3" transform="translate(0,0)"/>
<path d="" fill="#F2F5F4" transform="translate(0,0)"/>
<path d="" fill="#FBFCFC" transform="translate(0,0)"/>
<path d="" fill="#F5F3F4" transform="translate(0,0)"/>
<path d="" fill="#F5F7F7" transform="translate(0,0)"/>
<path d="" fill="#F8FAF9" transform="translate(0,0)"/>
<path d="" fill="#FBF9F9" transform="translate(0,0)"/>
<path d="" fill="#F4F3F2" transform="translate(0,0)"/>
<path d="" fill="#F8FAF9" transform="translate(0,0)"/>
<path d="" fill="#FCF9FB" transform="translate(0,0)"/>
<path d="" fill="#FBFCFC" transform="translate(0,0)"/>
<path d="" fill="#F9F9F9" transform="translate(0,0)"/>
<path d="" fill="#F2F3F1" transform="translate(0,0)"/>
<path d="" fill="#F7F5F1" transform="translate(0,0)"/>
<path d="" fill="#FBF8F9" transform="translate(0,0)"/>
<path d="" fill="#F6F7F5" transform="translate(0,0)"/>
<path d="" fill="#F8F7F5" transform="translate(0,0)"/>
<path d="" fill="#FAFAFB" transform="translate(0,0)"/>
<path d="" fill="#F6F7F5" transform="translate(0,0)"/>
<path d="" fill="#F5F6F5" transform="translate(0,0)"/>
<path d="" fill="#F8F7F8" transform="translate(0,0)"/>
<path d="" fill="#F2F3F2" transform="translate(0,0)"/>
<path d="" fill="#F5F6F5" transform="translate(0,0)"/>
<path d="" fill="#FFF8F9" transform="translate(0,0)"/>
<path d="" fill="#F3F3F2" transform="translate(0,0)"/>
<path d="" fill="#F6F6F9" transform="translate(0,0)"/>
<path d="" fill="#FAFAF7" transform="translate(0,0)"/>
<path d="" fill="#F5F8F7" transform="translate(0,0)"/>
<path d="" fill="#F5F6F3" transform="translate(0,0)"/>
<path d="" fill="#F8F8F8" transform="translate(0,0)"/>
<path d="" fill="#F5F5F5" transform="translate(0,0)"/>
<path d="" fill="#FAF9F9" transform="translate(0,0)"/>
<path d="" fill="#FAFBF8" transform="translate(0,0)"/>
<path d="" fill="#F2F3F5" transform="translate(0,0)"/>
<path d="" fill="#F6F9F8" transform="translate(0,0)"/>
<path d="" fill="#F3F6F5" transform="translate(0,0)"/>
<path d="" fill="#F8F8F7" transform="translate(0,0)"/>
<path d="" fill="#FAF9FA" transform="translate(0,0)"/>
<path d="" fill="#FCFBFD" transform="translate(0,0)"/>
<path d="" fill="#F7F9FA" transform="translate(0,0)"/>
<path d="" fill="#F5F4F5" transform="translate(0,0)"/>
<path d="" fill="#F4F3F4" transform="translate(0,0)"/>
<path d="" fill="#FCF7F6" transform="translate(0,0)"/>
<path d="" fill="#FCFBFA" transform="translate(0,0)"/>
<path d="" fill="#F8F8F9" transform="translate(0,0)"/>
<path d="" fill="#FBFAF9" transform="translate(0,0)"/>
<path d="" fill="#FAF7F9" transform="translate(0,0)"/>
<path d="" fill="#F7F8F5" transform="translate(0,0)"/>
<path d="" fill="#F8F5F5" transform="translate(0,0)"/>
<path d="" fill="#FBFAFC" transform="translate(0,0)"/>
<path d="" fill="#F5F4F5" transform="translate(0,0)"/>
<path d="" fill="#F8FBF8" transform="translate(0,0)"/>
<path d="" fill="#F9F8F9" transform="translate(0,0)"/>
<path d="" fill="#F5F8F7" transform="translate(0,0)"/>
<path d="" fill="#FBFAFC" transform="translate(0,0)"/>
<path d="" fill="#F9F8F7" transform="translate(0,0)"/>
<path d="" fill="#F9F7F6" transform="translate(0,0)"/>
<path d="" fill="#F7F7F4" transform="translate(0,0)"/>
<path d="" fill="#F6F6F4" transform="translate(0,0)"/>
<path d="" fill="#FCF8F8" transform="translate(0,0)"/>
<path d="" fill="#FAF9F5" transform="translate(0,0)"/>
<path d="" fill="#FAFAF7" transform="translate(0,0)"/>
<path d="" fill="#F7FBF7" transform="translate(0,0)"/>
<path d="" fill="#FAFAF9" transform="translate(0,0)"/>
<path d="" fill="#F8F7F7" transform="translate(0,0)"/>
<path d="" fill="#F9F6F6" transform="translate(0,0)"/>
<path d="" fill="#F5F5F3" transform="translate(0,0)"/>
<path d="" fill="#F7F5F4" transform="translate(0,0)"/>
<path d="" fill="#F5F5F4" transform="translate(0,0)"/>
<path d="" fill="#F6F7F6" transform="translate(0,0)"/>
<path d="" fill="#F6F6F5" transform="translate(0,0)"/>
<path d="" fill="#FCF9FA" transform="translate(0,0)"/>
<path d="" fill="#FAF9F9" transform="translate(0,0)"/>
<path d="" fill="#F8F6F9" transform="translate(0,0)"/>
<path d="" fill="#F5F8F7" transform="translate(0,0)"/>
<path d="" fill="#F6F5F5" transform="translate(0,0)"/>
<path d="" fill="#F9FDFA" transform="translate(0,0)"/>
<path d="" fill="#FAF8F7" transform="translate(0,0)"/>
<path d="" fill="#FAFBF8" transform="translate(0,0)"/>
<path d="" fill="#F7F6F7" transform="translate(0,0)"/>
<path d="" fill="#F6F7F6" transform="translate(0,0)"/>
<path d="" fill="#FAF8F9" transform="translate(0,0)"/>
<path d="" fill="#F6F6F4" transform="translate(0,0)"/>
<path d="" fill="#F8F5F5" transform="translate(0,0)"/>
<path d="" fill="#F7F8FB" transform="translate(0,0)"/>
<path d="" fill="#F4F5F1" transform="translate(0,0)"/>
<path d="" fill="#F7F4F5" transform="translate(0,0)"/>
<path d="" fill="#FCFCFD" transform="translate(0,0)"/>
<path d="" fill="#FAFAF9" transform="translate(0,0)"/>
<path d="" fill="#F7F5F6" transform="translate(0,0)"/>
<path d="" fill="#F2F4F2" transform="translate(0,0)"/>
<path d="" fill="#F3F1F3" transform="translate(0,0)"/>
<path d="" fill="#F3F4F5" transform="translate(0,0)"/>
<path d="" fill="#F5F5F7" transform="translate(0,0)"/>
<path d="" fill="#F4F6F5" transform="translate(0,0)"/>
<path d="" fill="#FCFCFD" transform="translate(0,0)"/>
<path d="" fill="#FBF9F8" transform="translate(0,0)"/>
<path d="" fill="#FAFCFA" transform="translate(0,0)"/>
<path d="" fill="#FCFAF9" transform="translate(0,0)"/>
<path d="" fill="#FBF9FB" transform="translate(0,0)"/>
<path d="" fill="#F8F9F6" transform="translate(0,0)"/>
<path d="" fill="#F5F1F5" transform="translate(0,0)"/>
<path d="" fill="#F5F6F8" transform="translate(0,0)"/>
<path d="" fill="#F6F7F5" transform="translate(0,0)"/>
<path d="" fill="#F6F7F5" transform="translate(0,0)"/>
<path d="" fill="#F5F5F6" transform="translate(0,0)"/>
<path d="" fill="#F9F9F8" transform="translate(0,0)"/>
<path d="" fill="#F9F8FA" transform="translate(0,0)"/>
<path d="" fill="#FAFBFA" transform="translate(0,0)"/>
<path d="" fill="#FAF9F8" transform="translate(0,0)"/>
<path d="" fill="#F7F9F6" transform="translate(0,0)"/>
<path d="" fill="#F5F3F3" transform="translate(0,0)"/>
<path d="" fill="#FBFDFB" transform="translate(0,0)"/>
<path d="" fill="#F4F4F3" transform="translate(0,0)"/>
<path d="" fill="#F8FBF8" transform="translate(0,0)"/>
<path d="" fill="#FCFBFA" transform="translate(0,0)"/>
<path d="" fill="#F6F7F7" transform="translate(0,0)"/>
<path d="" fill="#F5F7F4" transform="translate(0,0)"/>
<path d="" fill="#FCFDFB" transform="translate(0,0)"/>
<path d="" fill="#F8F8F8" transform="translate(0,0)"/>
<path d="" fill="#F4F5F5" transform="translate(0,0)"/>
<path d="" fill="#F8FBFA" transform="translate(0,0)"/>
<path d="" fill="#FCFCFB" transform="translate(0,0)"/>
<path d="" fill="#F7F8F8" transform="translate(0,0)"/>
<path d="" fill="#F7FBF8" transform="translate(0,0)"/>
<path d="" fill="#FBFCFE" transform="translate(0,0)"/>
<path d="" fill="#F6F7F5" transform="translate(0,0)"/>
<path d="" fill="#F8F8F5" transform="translate(0,0)"/>
<path d="" fill="#FAF8FB" transform="translate(0,0)"/>
<path d="" fill="#F5F4F6" transform="translate(0,0)"/>
<path d="" fill="#FAF4F6" transform="translate(0,0)"/>
<path d="" fill="#FDFBFC" transform="translate(0,0)"/>
<path d="" fill="#F8FAF6" transform="translate(0,0)"/>
<path d="" fill="#F6F5F6" transform="translate(0,0)"/>
<path d="" fill="#F6F8F8" transform="translate(0,0)"/>
<path d="" fill="#F7F6F5" transform="translate(0,0)"/>
<path d="" fill="#F3F4F5" transform="translate(0,0)"/>
<path d="" fill="#F3F2F5" transform="translate(0,0)"/>
<path d="" fill="#FAFAFA" transform="translate(0,0)"/>
<path d="" fill="#F8FBFC" transform="translate(0,0)"/>
<path d="" fill="#FCFDFE" transform="translate(0,0)"/>
<path d="" fill="#FCFCFB" transform="translate(0,0)"/>
<path d="" fill="#F6F7F6" transform="translate(0,0)"/>
<path d="" fill="#FBFBF9" transform="translate(0,0)"/>
<path d="" fill="#F7F8F6" transform="translate(0,0)"/>
<path d="" fill="#F5F9F6" transform="translate(0,0)"/>
<path d="" fill="#F1F1F3" transform="translate(0,0)"/>
<path d="" fill="#FEFFFD" transform="translate(0,0)"/>
<path d="" fill="#F9F8F6" transform="translate(0,0)"/>
<path d="" fill="#F4F6F5" transform="translate(0,0)"/>
<path d="" fill="#F3F3F1" transform="translate(0,0)"/>
<path d="" fill="#F4F4F5" transform="translate(0,0)"/>
<path d="" fill="#FAF9F9" transform="translate(0,0)"/>
<path d="" fill="#F8F7F9" transform="translate(0,0)"/>
<path d="" fill="#F9FBFD" transform="translate(0,0)"/>
<path d="" fill="#F6F6F5" transform="translate(0,0)"/>
<path d="" fill="#F5F6F8" transform="translate(0,0)"/>
<path d="" fill="#F4F5F4" transform="translate(0,0)"/>
<path d="" fill="#F3F5F5" transform="translate(0,0)"/>
<path d="" fill="#FCFBFB" transform="translate(0,0)"/>
<path d="" fill="#FDFAFB" transform="translate(0,0)"/>
<path d="" fill="#F5F8F5" transform="translate(0,0)"/>
<path d="" fill="#F9FAF8" transform="translate(0,0)"/>
<path d="" fill="#FBFDFB" transform="translate(0,0)"/>
<path d="" fill="#F6F4F4" transform="translate(0,0)"/>
<path d="" fill="#F3F5F5" transform="translate(0,0)"/>
<path d="" fill="#F7FBFA" transform="translate(0,0)"/>
<path d="" fill="#F2F4F0" transform="translate(0,0)"/>
<path d="" fill="#F0F1F1" transform="translate(0,0)"/>
<path d="" fill="#F7FAF6" transform="translate(0,0)"/>
<path d="" fill="#F2F3F3" transform="translate(0,0)"/>
<path d="" fill="#F2F2F1" transform="translate(0,0)"/>
<path d="" fill="#F3F3F2" transform="translate(0,0)"/>
<path d="" fill="#F2F4F3" transform="translate(0,0)"/>
<path d="" fill="#F1F1F0" transform="translate(0,0)"/>
<path d="" fill="#F3F5F2" transform="translate(0,0)"/>
<path d="" fill="#F3F1EE" transform="translate(0,0)"/>
<path d="" fill="#F4F1F2" transform="translate(0,0)"/>
<path d="" fill="#F4F4F3" transform="translate(0,0)"/>
<path d="" fill="#F2F3F3" transform="translate(0,0)"/>
<path d="" fill="#F2F6F2" transform="translate(0,0)"/>
<path d="" fill="#F7F7F6" transform="translate(0,0)"/>
<path d="" fill="#F7F6F4" transform="translate(0,0)"/>
</svg>
