<?xml version="1.0" encoding="UTF-8"?>
<svg version="1.1" xmlns="http://www.w3.org/2000/svg" width="100" height="87">
<path d="M0 0 C2.47407031 1.9000504 4.71637139 3.86530369 7 6 C7.56847656 5.45730469 8.13695312 4.91460937 8.72265625 4.35546875 C16.68402112 -3.02108802 22.50471009 -5.67103338 33.484375 -5.4140625 C40.02334586 -4.64391704 45.4863966 -2.02384753 49.9375 2.875 C55.43446293 11.20373171 55.85442087 18.01733595 55 28 C54.21661324 30.82104849 53.1511819 33.29722511 52 36 C52.22103069 39.02075272 53.11411207 41.32331753 54.125 44.1875 C55.73506705 51.20279215 54.93555965 56.90375786 51.5 63.25 C47.70753497 69.08102977 42.57758296 72.80747235 36 75 C28.62396166 75.56822814 22.72858436 75.10550047 16 72 C15.46890625 72.58910156 14.9378125 73.17820312 14.390625 73.78515625 C13.33101562 74.91244141 13.33101562 74.91244141 12.25 76.0625 C11.55390625 76.81660156 10.8578125 77.57070312 10.140625 78.34765625 C8 80 8 80 6.05078125 79.75805664 C2.64762925 78.50010581 0.31634108 75.85497741 -2.25 73.375 C-3.4185591 72.27008012 -4.58782677 71.16590913 -5.7578125 70.0625 C-6.59940918 69.26392578 -6.59940918 69.26392578 -7.45800781 68.44921875 C-9.30774484 66.71077053 -11.20339265 65.03348269 -13.125 63.375 C-14.04152344 62.57642578 -14.04152344 62.57642578 -14.9765625 61.76171875 C-16.53172486 60.40770673 -18.0895177 59.0567155 -19.6484375 57.70703125 C-29.32472435 49.15743534 -41.07886812 37.90257734 -42.23828125 24.1796875 C-42.45059697 14.72605053 -41.20167895 8.21151235 -34.75 1.125 C-24.84701568 -7.87961232 -10.76789604 -7.28527232 0 0 Z M-32.55859375 5.71875 C-37.53081813 12.36716334 -37.89143331 18.85103892 -37 27 C-32.39776844 42.3734118 -17.54725962 53.67875539 -6 64 C-4.80117187 65.08861328 -4.80117187 65.08861328 -3.578125 66.19921875 C-0.22335212 69.20716361 2.99364771 71.87162535 7 74 C8.65 72.35 10.3 70.7 12 69 C11.57074219 68.15308594 11.57074219 68.15308594 11.1328125 67.2890625 C7.51262224 59.97378149 4.52004155 53.30063652 6 45 C8.50040743 37.71157835 11.94211804 32.6360995 18.84375 29.0390625 C26.40186104 25.76987955 33.3681372 26.33318093 40.98046875 29.1328125 C43.47581894 30.20431684 45.75244538 31.477463 48 33 C50.97663135 25.18634272 52.27481187 18.87466321 48.9765625 10.921875 C46.2123777 5.48195931 42.65804867 2.36486106 37 0 C29.71934186 -1.0135487 22.72524981 -1.11779556 16.68359375 3.4296875 C13.31646338 6.57025921 10.07330068 9.85339864 8 14 C4.65807501 12.58750883 2.92434625 10.95442366 0.6875 8.125 C-3.49447353 3.28271486 -6.55336404 0.4236582 -13.05078125 -0.375 C-20.66670382 -0.65609518 -27.22745604 -0.16019885 -32.55859375 5.71875 Z M12.12890625 40.31640625 C9.00281405 44.97850223 9.59818964 50.62965001 10 56 C11.79537615 61.83497248 16.18009861 65.47253184 21 69 C26.4970727 70.83235757 32.96647245 71.1772627 38.42578125 69.05859375 C43.44287359 66.04455899 46.89389226 62.5440478 49.25 57.125 C50.82494479 50.56273006 50.14522422 45.96508042 47 40 C43.59668875 35.08410597 40.75860608 32.69926081 35 31 C25.03929998 29.68167206 18.41070088 32.63104987 12.12890625 40.31640625 Z " fill="#FEFEFE" transform="translate(43,6)"/>
<path d="M0 0 C3.27798565 0.56977862 4.7117211 1.43811845 6.875 3.9375 C9.65769576 6.89676275 12.04815918 7.92222523 16 9 C16.66 9.66 17.32 10.32 18 11 C17.8125 14 17.8125 14 17 17 C14 19 14 19 10.9375 18.9375 C8 18 8 18 6.75 15.6875 C6.5025 14.800625 6.255 13.91375 6 13 C4.78531737 10.010012 3.75122213 8.76857873 1.3125 6.5 C0.549375 5.675 -0.21375 4.85 -1 4 C-0.8125 1.6875 -0.8125 1.6875 0 0 Z " fill="#FEFEFE" transform="translate(61,43)"/>
</svg>
