<?xml version="1.0" encoding="UTF-8"?>
<svg version="1.1" xmlns="http://www.w3.org/2000/svg" width="100" height="80">
<path d="M0 0 C6.12613771 4.00805818 10.29166022 8.80587348 12 16 C13.11960926 25.10615535 12.31851495 32.4134899 7 40 C5.81749306 41.39727298 4.60905709 42.77303937 3.375 44.125 C-2.86302946 50.9868324 -3.37661933 57.67120617 -3.62255859 66.54101562 C-3.79960271 71.79960271 -3.79960271 71.79960271 -6 74 C-9.14659932 74.4456098 -12.32542493 74.32411997 -15.5 74.3125 C-16.38042969 74.32861328 -17.26085937 74.34472656 -18.16796875 74.36132812 C-19.43060547 74.36229492 -19.43060547 74.36229492 -20.71875 74.36328125 C-21.49154297 74.36626221 -22.26433594 74.36924316 -23.06054688 74.37231445 C-23.70056641 74.24945068 -24.34058594 74.12658691 -25 74 C-27.49118953 70.2632157 -27.2065226 68.25548181 -27.125 63.8125 C-27.10695312 62.54019531 -27.08890625 61.26789063 -27.0703125 59.95703125 C-27.04710937 58.98121094 -27.02390625 58.00539062 -27 57 C-28.8253125 57.1546875 -28.8253125 57.1546875 -30.6875 57.3125 C-34.26295245 57.3125 -34.92756607 57.05281641 -38 54.8125 C-40.18354899 51.74188423 -40.48025896 50.64996808 -40 47 C-40 46.01 -40 45.02 -40 44 C-40 42.33333333 -40 40.66666667 -40 39 C-40.99 39 -41.98 39 -43 39 C-42.814375 39.94875 -42.62875 40.8975 -42.4375 41.875 C-42 45 -42 45 -43 47 C-43 48.32 -43 49.64 -43 51 C-47.29 51 -51.58 51 -56 51 C-55.67 52.65 -55.34 54.3 -55 56 C-56.5 58.3125 -56.5 58.3125 -59 60 C-62.5625 60.5 -62.5625 60.5 -66 60 C-68.70029608 57.73523555 -68.96213296 56.37867037 -69.3125 52.875 C-69 50 -69 50 -67 48 C-67.81984375 47.95101562 -68.6396875 47.90203125 -69.484375 47.8515625 C-70.56203125 47.77679688 -71.6396875 47.70203125 -72.75 47.625 C-73.81734375 47.55539063 -74.8846875 47.48578125 -75.984375 47.4140625 C-79.61406897 46.91568483 -82.03311734 46.24313485 -84.3125 43.3125 C-85.32922829 39.89259577 -84.87281149 37.42890226 -84 34 C-81.74582958 31.4118784 -80.39479021 31.05757357 -77 30.5625 C-74 31 -74 31 -71.625 32.6875 C-69.72741996 35.38790237 -69.64117787 36.77060081 -70 40 C-71.32 40 -72.64 40 -74 40 C-74.33 38.68 -74.66 37.36 -75 36 C-76.98 36.495 -76.98 36.495 -79 37 C-79.33 38.32 -79.66 39.64 -80 41 C-75.38 41 -70.76 41 -66 41 C-66.66 40.01 -67.32 39.02 -68 38 C-67.86714936 34.28018216 -67.75057131 31.889566 -65.3125 29 C-62.16357865 27.63830428 -60.25905865 28.07896169 -57 29 C-55 31 -55 31 -54.875 34.125 C-54.91625 35.07375 -54.9575 36.0225 -55 37 C-51.69511305 37.38189805 -49.09893624 37.26889559 -46 36 C-41.4533716 30.17612169 -39.70913297 23.4705782 -38.5390625 16.3125 C-36.91062635 9.32674493 -31.83915687 3.89681778 -26 0 C-17.65341571 -4.52320007 -8.43204499 -4.20107206 0 0 Z M-28.9375 8.875 C-33.13036709 14.20786321 -34.29060459 18.98643083 -35.33984375 25.59765625 C-36.08096615 28.29464015 -37.31998675 29.79812977 -39 32 C-39 32.99 -39 33.98 -39 35 C-38.01 35.66 -37.02 36.32 -36 37 C-35.7834375 38.2375 -35.7834375 38.2375 -35.5625 39.5 C-35.27087348 42.16822177 -35.27087348 42.16822177 -32.9375 43.3125 C-32.298125 43.539375 -31.65875 43.76625 -31 44 C-31.3125 45.875 -31.3125 45.875 -32 48 C-32.99 48.66 -33.98 49.32 -35 50 C-32.68789868 52.31210132 -31.58208523 52.46184889 -28.4375 53.0625 C-24.09722222 53.90277778 -24.09722222 53.90277778 -23 55 C-22.76472227 57.34987262 -22.58613583 59.70556039 -22.4375 62.0625 C-22.31181641 63.99802734 -22.31181641 63.99802734 -22.18359375 65.97265625 C-22.12300781 66.97167969 -22.06242187 67.97070312 -22 69 C-17.71 69 -13.42 69 -9 69 C-8.9175 67.081875 -8.835 65.16375 -8.75 63.1875 C-7.75943338 51.28783605 -3.56110024 43.76211545 3.85546875 34.75 C8.0279928 29.39944092 7.56339941 23.52051964 7 17 C5.72665271 11.81197015 3.11052679 8.73352271 -1.125 5.5625 C-10.51733746 -0.07290248 -21.43060843 0.67015364 -28.9375 8.875 Z M-62 33 C-62.33 34.32 -62.66 35.64 -63 37 C-61.68 37 -60.36 37 -59 37 C-59.33 35.68 -59.66 34.36 -60 33 C-60.66 33 -61.32 33 -62 33 Z M-63 51 C-63.33 52.32 -63.66 53.64 -64 55 C-62.68 55 -61.36 55 -60 55 C-59.67 53.68 -59.34 52.36 -59 51 C-60.32 51 -61.64 51 -63 51 Z " fill="#F8F8F8" transform="translate(86,4)"/>
</svg>
