<?xml version="1.0" encoding="UTF-8"?>
<svg version="1.1" xmlns="http://www.w3.org/2000/svg" width="100" height="84">
<path d="M0 0 C3.22340991 1.87148635 6.09558306 3.74531403 8.375 6.75 C8.375 7.41 8.375 8.07 8.375 8.75 C9.035 8.75 9.695 8.75 10.375 8.75 C10.61347656 8.15574219 10.85195313 7.56148437 11.09765625 6.94921875 C12.64601091 4.28339712 14.22615147 3.21453543 16.8125 1.5625 C17.59496094 1.05332031 18.37742188 0.54414062 19.18359375 0.01953125 C25.07114274 -3.39125916 31.78771905 -2.86293416 38.375 -2.25 C45.21509963 -0.21891849 50.6914664 3.60310331 54.375 9.75 C58.60592409 18.71427041 59.4078864 25.78315562 56.3671875 35.23828125 C54.87351527 39.01950663 53.01238607 42.63388048 50.375 45.75 C49.715 45.75 49.055 45.75 48.375 45.75 C48.27058594 46.33394531 48.16617188 46.91789062 48.05859375 47.51953125 C44.78096009 58.21398166 30.2576311 67.02057185 21.625 73.25 C20.543396 74.04325684 20.543396 74.04325684 19.43994141 74.85253906 C15.52673378 77.61576128 12.33830661 79.83226475 7.375 79.75 C4.65625 78.484375 4.65625 78.484375 1.875 76.5 C0.83601563 75.76007813 -0.20296875 75.02015625 -1.2734375 74.2578125 C-2.39261992 73.42454776 -3.5097494 72.58851984 -4.625 71.75 C-5.20411133 71.32041992 -5.78322266 70.89083984 -6.37988281 70.44824219 C-27.15029858 54.95285265 -27.15029858 54.95285265 -32.625 44.75 C-32.625 43.76 -32.625 42.77 -32.625 41.75 C-30.27647472 40.57573736 -28.88725935 40.63491827 -26.2734375 40.65234375 C-25.42265625 40.65556641 -24.571875 40.65878906 -23.6953125 40.66210938 C-22.80585938 40.67048828 -21.91640625 40.67886719 -21 40.6875 C-20.1028125 40.69201172 -19.205625 40.69652344 -18.28125 40.70117188 C-16.06243352 40.71297409 -13.84374982 40.72943845 -11.625 40.75 C-11.57891602 40.13568115 -11.53283203 39.5213623 -11.48535156 38.88842773 C-10.86900495 31.04045503 -9.25444706 23.43607104 -7.625 15.75 C-6.305 15.75 -4.985 15.75 -3.625 15.75 C-1.315 22.02 0.995 28.29 3.375 34.75 C4.365 33.1 5.355 31.45 6.375 29.75 C7.365 29.75 8.355 29.75 9.375 29.75 C10.35483928 32.35391539 11.33389794 34.95811968 12.3125 37.5625 C12.59029297 38.30048828 12.86808594 39.03847656 13.15429688 39.79882812 C13.55551758 40.86713867 13.55551758 40.86713867 13.96484375 41.95703125 C14.33403931 42.93893433 14.33403931 42.93893433 14.71069336 43.94067383 C15.29537033 45.53311815 15.83855559 47.14066676 16.375 48.75 C18.355 42.81 20.335 36.87 22.375 30.75 C23.695 30.75 25.015 30.75 26.375 30.75 C28.025 34.05 29.675 37.35 31.375 40.75 C33.98027105 40.85792837 36.58108311 40.93724878 39.1875 41 C39.92548828 41.03351562 40.66347656 41.06703125 41.42382812 41.1015625 C45.70629074 41.22378793 45.70629074 41.22378793 49.26171875 39.109375 C52.80632967 31.59728729 54.01439826 23.37712375 51.65234375 15.26953125 C48.8734925 9.27306275 44.57032147 5.70759278 38.3828125 3.296875 C31.18970294 1.33766228 25.10671063 2.57073566 18.6484375 6.10546875 C15.03905391 8.71638024 12.67832803 11.97666181 10.375 15.75 C7.28517109 14.40659612 6.44052197 13.8539314 4.5625 10.875 C1.25887164 6.15553091 -2.95913417 3.91139395 -8.625 2.75 C-15.98364625 1.74784973 -21.47317072 3.70420237 -27.625 7.75 C-31.41522479 11.54022479 -33.41807453 15.40078733 -33.890625 20.765625 C-33.85850125 27.41524133 -33.36703155 33.32625867 -31.625 39.75 C-32.945 39.75 -34.265 39.75 -35.625 39.75 C-39.42614979 31.3213635 -40.99883889 24.33361987 -38 15.25 C-34.82881722 7.21193254 -30.47474673 2.23761109 -22.53125 -1.36328125 C-14.92503813 -3.68399374 -7.19619282 -3.4176609 0 0 Z M-5.625 26.75 C-5.82996094 27.96558594 -6.03492187 29.18117188 -6.24609375 30.43359375 C-6.51801961 32.01826514 -6.79016643 33.60289863 -7.0625 35.1875 C-7.19720703 35.98994141 -7.33191406 36.79238281 -7.47070312 37.61914062 C-8.51171875 43.63671875 -8.51171875 43.63671875 -9.625 44.75 C-12.31735776 44.98678716 -14.98998156 45.17198025 -17.6875 45.3125 C-18.82541992 45.37727539 -18.82541992 45.37727539 -19.98632812 45.44335938 C-21.86565438 45.54973633 -23.74530244 45.65039934 -25.625 45.75 C-18.30364758 58.64632719 -4.68393811 66.71070793 7.375 74.75 C20.10219762 73.70335546 33.56681562 58.73830137 42.203125 50.1875 C43.61027148 48.63474049 43.61027148 48.63474049 44.375 45.75 C43.25480469 45.74742188 42.13460937 45.74484375 40.98046875 45.7421875 C39.50777242 45.70466657 38.03511689 45.66551912 36.5625 45.625 C35.82451172 45.62757812 35.08652344 45.63015625 34.32617188 45.6328125 C32.16796875 45.5546875 32.16796875 45.5546875 28.375 44.75 C26.36328125 41.6953125 26.36328125 41.6953125 25.375 38.75 C23.6541123 41.33133154 22.9098737 42.87794206 22.0859375 45.76171875 C21.75722656 46.89770508 21.75722656 46.89770508 21.421875 48.05664062 C21.08929688 49.23516602 21.08929688 49.23516602 20.75 50.4375 C20.40582031 51.63342773 20.40582031 51.63342773 20.0546875 52.85351562 C19.49013764 54.8176787 18.93195012 56.78366847 18.375 58.75 C17.385 58.75 16.395 58.75 15.375 58.75 C13.065 52.15 10.755 45.55 8.375 38.75 C7.715 38.75 7.055 38.75 6.375 38.75 C5.385 40.73 4.395 42.71 3.375 44.75 C0.80325625 43.46412812 0.7777107 42.60578141 -0.1328125 39.93359375 C-0.39707031 39.16982422 -0.66132812 38.40605469 -0.93359375 37.61914062 C-1.20300781 36.81669922 -1.47242187 36.01425781 -1.75 35.1875 C-2.16572266 33.97803711 -2.16572266 33.97803711 -2.58984375 32.74414062 C-3.2747948 30.74833499 -3.95074416 28.74944421 -4.625 26.75 C-4.955 26.75 -5.285 26.75 -5.625 26.75 Z " fill="#FEFEFE" transform="translate(40.625,3.25)"/>
</svg>
