<?xml version="1.0" encoding="UTF-8"?>
<svg version="1.1" xmlns="http://www.w3.org/2000/svg" width="100" height="136">
<path d="M0 0 C2.47302666 2.00283865 3.72641187 4.14190015 5.05859375 7 C5.43814209 7.79486816 5.81769043 8.58973633 6.20874023 9.40869141 C6.61423096 10.26382324 7.01972168 11.11895508 7.4375 12 C12.14860205 21.67804225 17.63118927 30.64213479 23.48876953 39.65771484 C47.0498326 76.17545945 47.0498326 76.17545945 45 99 C42.57172818 110.07127322 36.18769778 119.43735873 27 126 C13.69649414 134.26974689 -2.1170626 136.18606807 -17.3125 132.875 C-29.85973818 129.23170425 -40.39714083 122.10747059 -46.74609375 110.5859375 C-51.96971864 99.81322822 -52.72488345 88.21557052 -49.5625 76.625 C-45.2571805 64.31118409 -38.2998293 53.21253721 -31.16235352 42.3737793 C-23.58785956 30.86746679 -16.79762865 19.06137761 -10.86669922 6.62329102 C-7.98393439 0.64612716 -6.71164637 -0.5478895 0 0 Z M-4 8 C-4.31001953 8.62640381 -4.62003906 9.25280762 -4.93945312 9.89819336 C-11.15138369 22.3593532 -17.62463792 34.34398646 -25.25 46 C-29.88341567 53.08332457 -34.40939218 60.14221597 -38.375 67.625 C-38.72594727 68.28113281 -39.07689453 68.93726563 -39.43847656 69.61328125 C-44.60433676 79.64020013 -45.79803369 91.03144162 -43.3125 102.046875 C-39.32994568 112.73339575 -32.53793084 119.27156109 -22.45703125 124.2578125 C-10.70808443 128.99716199 4.72285976 129.01885517 16.46484375 124.24609375 C26.00871942 119.55503622 33.23137101 113.16152032 37.171875 102.96875 C41.39382081 87.83347255 36.60578807 74.26370116 29.20507812 61.06201172 C26.29891439 56.08926882 23.11425946 51.29834972 19.9375 46.49609375 C11.7928208 34.13363424 4.30106255 21.40085133 -2 8 C-2.66 8 -3.32 8 -4 8 Z " fill="#E1E2E2" transform="translate(53,1)"/>
<path d="M0 0 C4.10790847 2.00949635 6.43700414 4.82314476 8.2109375 8.90625 C9.85178069 15.09847964 9.98175862 22.33656822 7.6796875 28.3828125 C5.10709112 32.64090306 2.6392297 35.47618626 -1.8203125 37.7578125 C-7.8415097 38.89388744 -13.09258041 38.42147611 -18.5703125 35.6328125 C-23.31114697 31.47012858 -24.80784561 27.51226982 -25.29296875 21.34765625 C-25.57088034 14.3032015 -24.29934139 8.93820555 -19.6953125 3.5078125 C-13.85697094 -1.33373903 -7.32491333 -2.11966356 0 0 Z M-17.1328125 10.3828125 C-19.04523972 16.12009417 -18.8756564 22.2657074 -16.8828125 27.9453125 C-15.02057146 30.53914823 -14.17781149 31.51281279 -11.1328125 32.3828125 C-6.50081803 32.87557787 -3.82314475 32.25307092 -0.1328125 29.3828125 C2.22518616 25.85813854 2.16635063 22.61086086 2.1796875 18.4453125 C2.19644531 17.24003906 2.21320312 16.03476563 2.23046875 14.79296875 C1.84226078 11.148823 1.06148227 9.28184428 -1.1328125 6.3828125 C-7.36485704 3.26679023 -13.08958388 4.94972405 -17.1328125 10.3828125 Z " fill="#FFFFFF" transform="translate(49.1328125,65.6171875)"/>
<path d="M0 0 C0.78246094 -0.02578125 1.56492187 -0.0515625 2.37109375 -0.078125 C4.5625 0.25 4.5625 0.25 6.3125 1.53515625 C8.04814158 3.91623955 8.14817597 6.15531105 8.0625 9.046875 C7.04295102 13.53926271 3.76281263 17.04968737 0.5625 20.25 C2.8725 20.58 5.1825 20.91 7.5625 21.25 C7.8925 22.9 8.2225 24.55 8.5625 26.25 C3.2825 26.25 -1.9975 26.25 -7.4375 26.25 C-7.4375 21.25 -7.4375 21.25 -5.9765625 19.3359375 C-5.34492187 18.77132812 -4.71328125 18.20671875 -4.0625 17.625 C-1.74811617 15.52014886 -0.19991969 13.89362954 1.5625 11.25 C1.72949232 8.12478167 1.72949232 8.12478167 1.5625 5.25 C-2.8925 5.745 -2.8925 5.745 -7.4375 6.25 C-7.0625 3.8125 -7.0625 3.8125 -6.4375 1.25 C-4.11063547 0.08656773 -2.59028587 0.05104012 0 0 Z " fill="#FFFFFF" transform="translate(66.4375,84.75)"/>
</svg>
