<svg version="1.1" xmlns="http://www.w3.org/2000/svg" width="100px" height="166px" transform="rotate(0) scale(1, 1)">
<path d="M0 0 C5.46032611 3.33233832 8.08273831 7.00459813 10.35546875 12.9375 C10.85973089 15.77267295 10.8720996 18.51155436 10.82202148 21.38549805 C10.8243277 22.18818115 10.82663391 22.99086426 10.82901001 23.81787109 C10.83162354 25.54584804 10.82527794 27.27385782 10.81075859 29.00177574 C10.78874463 31.73873879 10.79262865 34.47460464 10.80323792 37.21162415 C10.82482953 44.00278905 10.80750578 50.79370385 10.78173828 57.58483887 C10.76033791 63.33797074 10.75837516 69.09039553 10.78465462 74.8435154 C10.78900186 77.53665287 10.76438603 80.22855664 10.73912048 82.92155457 C10.74439105 84.57360381 10.75111338 86.22564929 10.75952148 87.87768555 C10.74461166 88.62325211 10.72970184 89.36881866 10.71434021 90.13697815 C10.76829464 94.07387987 11.17097803 95.72045975 13.7559967 98.7615509 C15.04273537 99.83864571 15.04273537 99.83864571 16.35546875 100.9375 C22.2253391 108.65218675 23.2902779 116.47107823 22.35546875 125.9375 C20.24633856 135.4349006 15.46218027 142.37594054 7.41796875 147.8125 C-0.46369529 152.32281642 -8.83941747 153.09611937 -17.58203125 150.8125 C-26.9439329 147.70624692 -33.02112745 142.65375307 -37.64453125 133.9375 C-41.3895688 125.74852704 -41.40021509 117.00400477 -38.73828125 108.48828125 C-36.62588043 103.56186076 -33.40552148 99.69849023 -29.64453125 95.9375 C-29.44803532 93.36002544 -29.37492489 90.88857047 -29.38916016 88.31005859 C-29.3855397 87.5228241 -29.38191925 86.7355896 -29.37818909 85.92449951 C-29.37128515 84.21117692 -29.36879151 82.49783228 -29.37013626 80.78449631 C-29.37109998 78.06838852 -29.35817558 75.35267821 -29.34115601 72.6366272 C-29.29485154 64.91289411 -29.27029806 57.18919904 -29.26367188 49.46533203 C-29.25864292 44.74255986 -29.23431615 40.02019832 -29.19834518 35.29756546 C-29.18857262 33.50116065 -29.18620131 31.70469913 -29.19151688 29.9082756 C-29.1986273 27.38551124 -29.18122246 24.86395866 -29.15869141 22.34130859 C-29.16686386 21.60645233 -29.17503632 20.87159607 -29.18345642 20.11447144 C-29.08905459 14.13589029 -27.37010102 8.82481039 -23.19732094 4.40440941 C-16.43783758 -1.43708631 -8.55893919 -3.43874662 0 0 Z M-16.64453125 8.9375 C-20.55749886 13.65851883 -21.20926527 17.47291646 -21.09863281 23.42138672 C-21.09950897 24.6662812 -21.09950897 24.6662812 -21.10040283 25.93632507 C-21.09762897 28.6637133 -21.06657076 31.38999158 -21.03515625 34.1171875 C-21.02769136 36.01432702 -21.0219996 37.91147427 -21.01800537 39.80862427 C-21.00276856 44.79005403 -20.96350356 49.77101366 -20.91918945 54.7522583 C-20.87819461 59.83998252 -20.85998536 64.92778305 -20.83984375 70.015625 C-20.79700743 79.98978933 -20.72877974 89.9636055 -20.64453125 99.9375 C-21.25167969 100.21335937 -21.85882813 100.48921875 -22.484375 100.7734375 C-27.62306701 103.5425699 -30.35762877 108.50172795 -32.140625 113.87109375 C-33.91476988 121.14646305 -32.42961207 128.33650568 -28.578125 134.69921875 C-24.81354046 139.63169421 -19.71034116 142.71519932 -13.64453125 143.9375 C-5.90984375 144.8873739 -0.06890031 143.35702285 6.35546875 138.9375 C11.04531342 134.68369461 13.98623926 130.29061897 14.69140625 123.88671875 C14.79832229 114.95922913 13.71674099 109.61144873 7.66796875 103 C6.90484375 102.319375 6.14171875 101.63875 5.35546875 100.9375 C3.38651485 98.9685461 4.20149242 95.11574512 4.19775391 92.42358398 C4.19267319 91.63649551 4.18759247 90.84940704 4.18235779 90.03846741 C4.17162832 88.32239852 4.16301832 86.6063154 4.15623856 84.89022636 C4.14447277 82.17007472 4.12502276 79.45008352 4.1031189 76.72999573 C4.04144807 68.99347317 3.98757277 61.25696351 3.95410156 53.52026367 C3.93309329 48.79219351 3.89773186 44.06440987 3.85334396 39.33650398 C3.83922251 37.5373174 3.83047026 35.73808005 3.82728958 33.93884087 C3.82235166 31.41131787 3.79911751 28.88454661 3.77197266 26.35717773 C3.77497879 25.62075043 3.77798492 24.88432312 3.78108215 24.12557983 C3.68845718 18.28474084 2.64843322 12.47613924 -1.39453125 8 C-7.10885309 5.30157024 -11.42986631 5.34517527 -16.64453125 8.9375 Z " fill="#fefefe" transform="translate(52.64453125,9.0625)"/>
<path d="M0 0 C3.63 0 7.26 0 11 0 C11 22.44 11 44.88 11 68 C12.65 68.33 14.3 68.66 16 69 C17.984375 70.7421875 17.984375 70.7421875 19.75 72.875 C20.34296875 73.57367188 20.9359375 74.27234375 21.546875 74.9921875 C24.96895634 79.72054721 24.6569248 85.41613916 24 91 C22.01623653 96.51560404 18.32063982 100.31680645 13.24609375 103.15625 C8.03032491 105.1155649 3.04240181 104.64075351 -2.1875 103 C-6.42703814 99.98521733 -10.99349271 96.0137704 -12.68359375 90.953125 C-13.67112255 84.85726823 -12.92233248 80.44158462 -10 75 C-6.69253066 71.08325999 -4.90267337 69.96106935 0 68 C0 45.56 0 23.12 0 0 Z " fill="#fefefe" transform="translate(38,44)"/>
<path d="M0 0 C0.83724609 -0.01224609 1.67449219 -0.02449219 2.53710938 -0.03710938 C3.73883789 -0.04000977 3.73883789 -0.04000977 4.96484375 -0.04296875 C5.70210693 -0.04707764 6.43937012 -0.05118652 7.19897461 -0.05541992 C9.0625 0.1875 9.0625 0.1875 11.0625 2.1875 C10.50694444 6.74305556 10.50694444 6.74305556 9.0625 8.1875 C6.07231839 8.31417764 3.11555892 8.37270838 0.125 8.375 C-0.71224609 8.38724609 -1.54949219 8.39949219 -2.41210938 8.41210938 C-3.61383789 8.41500977 -3.61383789 8.41500977 -4.83984375 8.41796875 C-5.57710693 8.42207764 -6.31437012 8.42618652 -7.07397461 8.43041992 C-8.9375 8.1875 -8.9375 8.1875 -10.9375 6.1875 C-10.03074546 -1.24788726 -6.61756655 0.00507093 0 0 Z " fill="#fefefe" transform="translate(76.9375,93.8125)"/>
<path d="M0 0 C0.83724609 -0.01224609 1.67449219 -0.02449219 2.53710938 -0.03710938 C3.73883789 -0.04000977 3.73883789 -0.04000977 4.96484375 -0.04296875 C5.70210693 -0.04707764 6.43937012 -0.05118652 7.19897461 -0.05541992 C9.0625 0.1875 9.0625 0.1875 11.0625 2.1875 C10.8125 4.75 10.8125 4.75 10.0625 7.1875 C6.91847519 8.7595124 3.57302603 8.37196744 0.125 8.375 C-0.60396484 8.38724609 -1.33292969 8.39949219 -2.08398438 8.41210938 C-5.9088391 8.42262685 -7.68106564 8.35845624 -10.9375 6.1875 C-9.61749613 -1.16680726 -6.9053503 0.00529146 0 0 Z " fill="#fefefe" transform="translate(76.9375,62.8125)"/>
<path d="M0 0 C0.83265381 0.00523682 1.66530762 0.01047363 2.52319336 0.01586914 C3.42231445 0.0190918 4.32143555 0.02231445 5.24780273 0.02563477 C6.66609375 0.03820312 6.66609375 0.03820312 8.11303711 0.05102539 C9.06243164 0.05553711 10.01182617 0.06004883 10.98999023 0.06469727 C13.34356776 0.07652429 15.69702188 0.09300514 18.05053711 0.11352539 C19.17553711 4.86352539 19.17553711 4.86352539 18.05053711 7.11352539 C14.73805524 7.14240686 11.42560544 7.16028338 8.11303711 7.17602539 C7.16750977 7.1844043 6.22198242 7.1927832 5.24780273 7.20141602 C3.89912109 7.20625 3.89912109 7.20625 2.52319336 7.21118164 C1.27421265 7.21903687 1.27421265 7.21903687 0 7.22705078 C-1.94946289 7.11352539 -1.94946289 7.11352539 -2.94946289 6.11352539 C-3.07446289 3.61352539 -3.07446289 3.61352539 -2.94946289 1.11352539 C-1.94946289 0.11352539 -1.94946289 0.11352539 0 0 Z " fill="#fefefe" transform="translate(68.949462890625,31.886474609375)"/>
<path d="M0 0 C1.76150391 -0.02126953 1.76150391 -0.02126953 3.55859375 -0.04296875 C6.5625 0.1875 6.5625 0.1875 8.5625 2.1875 C8.6875 4.8125 8.6875 4.8125 8.5625 7.1875 C5.71411879 8.6116906 3.23462092 8.35745508 0.0625 8.375 C-1.1028125 8.38917969 -2.268125 8.40335938 -3.46875 8.41796875 C-6.4375 8.1875 -6.4375 8.1875 -8.4375 6.1875 C-7.6543813 -0.2340733 -6.20315753 0.03397129 0 0 Z " fill="#fefefe" transform="translate(74.4375,46.8125)"/>
<path d="M0 0 C0.70253906 0.00386719 1.40507813 0.00773437 2.12890625 0.01171875 C2.83144531 0.00785156 3.53398438 0.00398438 4.2578125 0 C9.50229247 0.01010497 9.50229247 0.01010497 10.62890625 1.13671875 C10.75390625 3.63671875 10.75390625 3.63671875 10.62890625 6.13671875 C8.87330683 7.89231817 6.59308183 7.26893794 4.2578125 7.2734375 C3.55527344 7.26957031 2.85273437 7.26570313 2.12890625 7.26171875 C1.42636719 7.26558594 0.72382812 7.26945312 0 7.2734375 C-5.24447997 7.26333253 -5.24447997 7.26333253 -6.37109375 6.13671875 C-6.49609375 3.63671875 -6.49609375 3.63671875 -6.37109375 1.13671875 C-4.61549433 -0.61888067 -2.33526933 0.00449956 0 0 Z " fill="#fefefe" transform="translate(72.37109375,78.86328125)"/>
<path d="M0 0 C0.66 0.33 1.32 0.66 2 1 C1.04882866 2.1725131 0.08882991 3.33787015 -0.875 4.5 C-1.40867187 5.1496875 -1.94234375 5.799375 -2.4921875 6.46875 C-2.98976563 6.9740625 -3.48734375 7.479375 -4 8 C-4.66 8 -5.32 8 -6 8 C-6.02714735 10.22909871 -6.04646254 12.45829367 -6.0625 14.6875 C-6.07410156 15.92886719 -6.08570313 17.17023438 -6.09765625 18.44921875 C-6.01478673 21.46235454 -5.70839449 24.08275339 -5 27 C-8.64864547 23.82726481 -8.89345923 21.41166515 -9.25 16.6875 C-8.77989102 9.75339248 -6.10420779 5.56692276 -1 1 C-0.67 0.67 -0.34 0.34 0 0 Z " fill="#fefefe" transform="translate(34,113)"/>
<path d="M0 0 C0.70253906 0.00386719 1.40507813 0.00773437 2.12890625 0.01171875 C2.83144531 0.00785156 3.53398438 0.00398438 4.2578125 0 C9.50229247 0.01010497 9.50229247 0.01010497 10.62890625 1.13671875 C10.75390625 3.63671875 10.75390625 3.63671875 10.62890625 6.13671875 C8.87330683 7.89231817 6.59308183 7.26893794 4.2578125 7.2734375 C3.55527344 7.26957031 2.85273437 7.26570313 2.12890625 7.26171875 C1.42636719 7.26558594 0.72382812 7.26945312 0 7.2734375 C-5.24447997 7.26333253 -5.24447997 7.26333253 -6.37109375 6.13671875 C-6.49609375 3.63671875 -6.49609375 3.63671875 -6.37109375 1.13671875 C-4.61549433 -0.61888067 -2.33526933 0.00449956 0 0 Z M-4.37109375 1.13671875 C-4.04109375 2.78671875 -3.71109375 4.43671875 -3.37109375 6.13671875 C0.91890625 6.13671875 5.20890625 6.13671875 9.62890625 6.13671875 C9.29890625 4.48671875 8.96890625 2.83671875 8.62890625 1.13671875 C4.33890625 1.13671875 0.04890625 1.13671875 -4.37109375 1.13671875 Z " fill="#fefefe" transform="translate(72.37109375,78.86328125)"/>
<path d="M0 0 C-1.38188453 3.21043882 -2.92421903 5.04936365 -5.625 7.25 C-6.57246094 8.03117187 -6.57246094 8.03117187 -7.5390625 8.828125 C-8.02117188 9.21484375 -8.50328125 9.6015625 -9 10 C-9 5.69032084 -6.83274712 4.10253255 -4 1 C-2 0 -2 0 0 0 Z " fill="#fefefe" transform="translate(36,10)"/>
<path d="M0 0 C0.66 0.33 1.32 0.66 2 1 C1.04882866 2.1725131 0.08882991 3.33787015 -0.875 4.5 C-1.40867187 5.1496875 -1.94234375 5.799375 -2.4921875 6.46875 C-2.98976563 6.9740625 -3.48734375 7.479375 -4 8 C-4.66 8 -5.32 8 -6 8 C-4.73058503 4.08597051 -3.48832306 2.20927127 0 0 Z " fill="#fefefe" transform="translate(34,113)"/>
</svg>